<?xml version="1.0" encoding="UTF-8" standalone="no"?>
<!DOCTYPE svg PUBLIC "-//W3C//DTD SVG 1.1//EN"
 "http://www.w3.org/Graphics/SVG/1.1/DTD/svg11.dtd">
<!-- Generated by graphviz version 2.38.0 (20140413.2041)
 -->
<!-- Title: %3 Pages: 1 -->
<svg width="321pt" height="2177pt"
 viewBox="0.00 0.00 321.20 2177.00" xmlns="http://www.w3.org/2000/svg" xmlns:xlink="http://www.w3.org/1999/xlink">
<g id="graph0" class="graph" transform="scale(1 1) rotate(0) translate(4 2173)">
<title>%3</title>
<polygon fill="white" stroke="none" points="-4,4 -4,-2173 317.2,-2173 317.2,4 -4,4"/>
<!-- cell 0 -->
<g id="node1" class="node"><title>cell 0</title>
<polygon fill="none" stroke="black" points="54,-144 0,-144 0,-108 54,-108 54,-144"/>
<text text-anchor="middle" x="27" y="-122.3" font-family="Times New Roman,serif" font-size="14.00">cell 0</text>
</g>
<!-- cell 0A -->
<g id="node25" class="node"><title>cell 0A</title>
<ellipse fill="black" stroke="black" cx="91.8" cy="-126" rx="1.8" ry="1.8"/>
</g>
<!-- cell 0&#45;&#45;cell 0A -->
<g id="edge8" class="edge"><title>cell 0&#45;&#45;cell 0A</title>
<path fill="none" stroke="black" d="M54.1056,-126C68.533,-126 84.4001,-126 89.843,-126"/>
</g>
<!-- cell 1 -->
<g id="node2" class="node"><title>cell 1</title>
<polygon fill="none" stroke="black" points="54,-333 0,-333 0,-297 54,-297 54,-333"/>
<text text-anchor="middle" x="27" y="-311.3" font-family="Times New Roman,serif" font-size="14.00">cell 1</text>
</g>
<!-- cell 1A -->
<g id="node31" class="node"><title>cell 1A</title>
<ellipse fill="black" stroke="black" cx="91.8" cy="-315" rx="1.8" ry="1.8"/>
</g>
<!-- cell 1&#45;&#45;cell 1A -->
<g id="edge14" class="edge"><title>cell 1&#45;&#45;cell 1A</title>
<path fill="none" stroke="black" d="M54.1056,-315C68.533,-315 84.4001,-315 89.843,-315"/>
</g>
<!-- cell 2 -->
<g id="node3" class="node"><title>cell 2</title>
<polygon fill="none" stroke="black" points="54,-441 0,-441 0,-405 54,-405 54,-441"/>
<text text-anchor="middle" x="27" y="-419.3" font-family="Times New Roman,serif" font-size="14.00">cell 2</text>
</g>
<!-- cell 2A -->
<g id="node46" class="node"><title>cell 2A</title>
<ellipse fill="black" stroke="black" cx="91.8" cy="-423" rx="1.8" ry="1.8"/>
</g>
<!-- cell 2&#45;&#45;cell 2A -->
<g id="edge29" class="edge"><title>cell 2&#45;&#45;cell 2A</title>
<path fill="none" stroke="black" d="M54.1056,-423C68.533,-423 84.4001,-423 89.843,-423"/>
</g>
<!-- cell 3 -->
<g id="node4" class="node"><title>cell 3</title>
<polygon fill="none" stroke="black" points="54,-576 0,-576 0,-540 54,-540 54,-576"/>
<text text-anchor="middle" x="27" y="-554.3" font-family="Times New Roman,serif" font-size="14.00">cell 3</text>
</g>
<!-- cell 3A -->
<g id="node23" class="node"><title>cell 3A</title>
<ellipse fill="black" stroke="black" cx="91.8" cy="-558" rx="1.8" ry="1.8"/>
</g>
<!-- cell 3&#45;&#45;cell 3A -->
<g id="edge6" class="edge"><title>cell 3&#45;&#45;cell 3A</title>
<path fill="none" stroke="black" d="M54.1056,-558C68.533,-558 84.4001,-558 89.843,-558"/>
</g>
<!-- cell 4 -->
<g id="node5" class="node"><title>cell 4</title>
<polygon fill="none" stroke="black" points="54,-792 0,-792 0,-756 54,-756 54,-792"/>
<text text-anchor="middle" x="27" y="-770.3" font-family="Times New Roman,serif" font-size="14.00">cell 4</text>
</g>
<!-- cell 4A -->
<g id="node20" class="node"><title>cell 4A</title>
<ellipse fill="black" stroke="black" cx="91.8" cy="-774" rx="1.8" ry="1.8"/>
</g>
<!-- cell 4&#45;&#45;cell 4A -->
<g id="edge3" class="edge"><title>cell 4&#45;&#45;cell 4A</title>
<path fill="none" stroke="black" d="M54.1056,-774C68.533,-774 84.4001,-774 89.843,-774"/>
</g>
<!-- cell 5 -->
<g id="node6" class="node"><title>cell 5</title>
<polygon fill="none" stroke="black" points="54,-1062 0,-1062 0,-1026 54,-1026 54,-1062"/>
<text text-anchor="middle" x="27" y="-1040.3" font-family="Times New Roman,serif" font-size="14.00">cell 5</text>
</g>
<!-- cell 5A -->
<g id="node18" class="node"><title>cell 5A</title>
<ellipse fill="black" stroke="black" cx="91.8" cy="-1044" rx="1.8" ry="1.8"/>
</g>
<!-- cell 5&#45;&#45;cell 5A -->
<g id="edge1" class="edge"><title>cell 5&#45;&#45;cell 5A</title>
<path fill="none" stroke="black" d="M54.1056,-1044C68.533,-1044 84.4001,-1044 89.843,-1044"/>
</g>
<!-- cell 6 -->
<g id="node7" class="node"><title>cell 6</title>
<polygon fill="none" stroke="black" points="54,-1251 0,-1251 0,-1215 54,-1215 54,-1251"/>
<text text-anchor="middle" x="27" y="-1229.3" font-family="Times New Roman,serif" font-size="14.00">cell 6</text>
</g>
<!-- cell 6A -->
<g id="node61" class="node"><title>cell 6A</title>
<ellipse fill="black" stroke="black" cx="91.8" cy="-1233" rx="1.8" ry="1.8"/>
</g>
<!-- cell 6&#45;&#45;cell 6A -->
<g id="edge44" class="edge"><title>cell 6&#45;&#45;cell 6A</title>
<path fill="none" stroke="black" d="M54.1056,-1233C68.533,-1233 84.4001,-1233 89.843,-1233"/>
</g>
<!-- cell 7 -->
<g id="node8" class="node"><title>cell 7</title>
<polygon fill="none" stroke="black" points="54,-1386 0,-1386 0,-1350 54,-1350 54,-1386"/>
<text text-anchor="middle" x="27" y="-1364.3" font-family="Times New Roman,serif" font-size="14.00">cell 7</text>
</g>
<!-- cell 7A -->
<g id="node33" class="node"><title>cell 7A</title>
<ellipse fill="black" stroke="black" cx="91.8" cy="-1368" rx="1.8" ry="1.8"/>
</g>
<!-- cell 7&#45;&#45;cell 7A -->
<g id="edge16" class="edge"><title>cell 7&#45;&#45;cell 7A</title>
<path fill="none" stroke="black" d="M54.1056,-1368C68.533,-1368 84.4001,-1368 89.843,-1368"/>
</g>
<!-- cell 8 -->
<g id="node9" class="node"><title>cell 8</title>
<polygon fill="none" stroke="black" points="54,-1521 0,-1521 0,-1485 54,-1485 54,-1521"/>
<text text-anchor="middle" x="27" y="-1499.3" font-family="Times New Roman,serif" font-size="14.00">cell 8</text>
</g>
<!-- cell 8A -->
<g id="node29" class="node"><title>cell 8A</title>
<ellipse fill="black" stroke="black" cx="91.8" cy="-1503" rx="1.8" ry="1.8"/>
</g>
<!-- cell 8&#45;&#45;cell 8A -->
<g id="edge12" class="edge"><title>cell 8&#45;&#45;cell 8A</title>
<path fill="none" stroke="black" d="M54.1056,-1503C68.533,-1503 84.4001,-1503 89.843,-1503"/>
</g>
<!-- cell 9 -->
<g id="node10" class="node"><title>cell 9</title>
<polygon fill="none" stroke="black" points="54,-1656 0,-1656 0,-1620 54,-1620 54,-1656"/>
<text text-anchor="middle" x="27" y="-1634.3" font-family="Times New Roman,serif" font-size="14.00">cell 9</text>
</g>
<!-- cell 9A -->
<g id="node35" class="node"><title>cell 9A</title>
<ellipse fill="black" stroke="black" cx="91.8" cy="-1638" rx="1.8" ry="1.8"/>
</g>
<!-- cell 9&#45;&#45;cell 9A -->
<g id="edge18" class="edge"><title>cell 9&#45;&#45;cell 9A</title>
<path fill="none" stroke="black" d="M54.1056,-1638C68.533,-1638 84.4001,-1638 89.843,-1638"/>
</g>
<!-- cell 10 -->
<g id="node11" class="node"><title>cell 10</title>
<polygon fill="none" stroke="black" points="54,-1764 0,-1764 0,-1728 54,-1728 54,-1764"/>
<text text-anchor="middle" x="27" y="-1742.3" font-family="Times New Roman,serif" font-size="14.00">cell 10</text>
</g>
<!-- cell 10A -->
<g id="node37" class="node"><title>cell 10A</title>
<ellipse fill="black" stroke="black" cx="91.8" cy="-1746" rx="1.8" ry="1.8"/>
</g>
<!-- cell 10&#45;&#45;cell 10A -->
<g id="edge20" class="edge"><title>cell 10&#45;&#45;cell 10A</title>
<path fill="none" stroke="black" d="M54.1056,-1746C68.533,-1746 84.4001,-1746 89.843,-1746"/>
</g>
<!-- cell 11 -->
<g id="node12" class="node"><title>cell 11</title>
<polygon fill="none" stroke="black" points="54,-1845 0,-1845 0,-1809 54,-1809 54,-1845"/>
<text text-anchor="middle" x="27" y="-1823.3" font-family="Times New Roman,serif" font-size="14.00">cell 11</text>
</g>
<!-- cell 12 -->
<g id="node13" class="node"><title>cell 12</title>
<polygon fill="none" stroke="black" points="54,-1899 0,-1899 0,-1863 54,-1863 54,-1899"/>
<text text-anchor="middle" x="27" y="-1877.3" font-family="Times New Roman,serif" font-size="14.00">cell 12</text>
</g>
<!-- cell 13 -->
<g id="node14" class="node"><title>cell 13</title>
<polygon fill="none" stroke="black" points="54,-1953 0,-1953 0,-1917 54,-1917 54,-1953"/>
<text text-anchor="middle" x="27" y="-1931.3" font-family="Times New Roman,serif" font-size="14.00">cell 13</text>
</g>
<!-- cell 13A -->
<g id="node27" class="node"><title>cell 13A</title>
<ellipse fill="black" stroke="black" cx="91.8" cy="-1935" rx="1.8" ry="1.8"/>
</g>
<!-- cell 13&#45;&#45;cell 13A -->
<g id="edge10" class="edge"><title>cell 13&#45;&#45;cell 13A</title>
<path fill="none" stroke="black" d="M54.1056,-1935C68.533,-1935 84.4001,-1935 89.843,-1935"/>
</g>
<!-- cell 14 -->
<g id="node15" class="node"><title>cell 14</title>
<polygon fill="none" stroke="black" points="54,-2115 0,-2115 0,-2079 54,-2079 54,-2115"/>
<text text-anchor="middle" x="27" y="-2093.3" font-family="Times New Roman,serif" font-size="14.00">cell 14</text>
</g>
<!-- cell 14A -->
<g id="node70" class="node"><title>cell 14A</title>
<ellipse fill="black" stroke="black" cx="91.8" cy="-2097" rx="1.8" ry="1.8"/>
</g>
<!-- cell 14&#45;&#45;cell 14A -->
<g id="edge53" class="edge"><title>cell 14&#45;&#45;cell 14A</title>
<path fill="none" stroke="black" d="M54.1056,-2097C68.533,-2097 84.4001,-2097 89.843,-2097"/>
</g>
<!-- cell 15 -->
<g id="node16" class="node"><title>cell 15</title>
<polygon fill="none" stroke="black" points="54,-2169 0,-2169 0,-2133 54,-2133 54,-2169"/>
<text text-anchor="middle" x="27" y="-2147.3" font-family="Times New Roman,serif" font-size="14.00">cell 15</text>
</g>
<!-- cell 16 -->
<g id="node17" class="node"><title>cell 16</title>
<polygon fill="none" stroke="black" points="183.6,-1170 129.6,-1170 129.6,-1134 183.6,-1134 183.6,-1170"/>
<text text-anchor="middle" x="156.6" y="-1148.3" font-family="Times New Roman,serif" font-size="14.00">cell 16</text>
</g>
<!-- cell 16A -->
<g id="node67" class="node"><title>cell 16A</title>
<ellipse fill="black" stroke="black" cx="221.4" cy="-1152" rx="1.8" ry="1.8"/>
</g>
<!-- cell 16&#45;&#45;cell 16A -->
<g id="edge50" class="edge"><title>cell 16&#45;&#45;cell 16A</title>
<path fill="none" stroke="black" d="M183.706,-1152C198.133,-1152 214,-1152 219.443,-1152"/>
</g>
<!-- cell 5A&#45;&#45;cell 16 -->
<g id="edge2" class="edge"><title>cell 5A&#45;&#45;cell 16</title>
<path fill="none" stroke="black" d="M91.2,-1045.87C91.2,-1060.22 91.2,-1152 91.2,-1152 91.2,-1152 111.322,-1152 129.243,-1152"/>
</g>
<!-- cell 18 -->
<g id="node21" class="node"><title>cell 18</title>
<polygon fill="none" stroke="black" points="183.6,-1116 129.6,-1116 129.6,-1080 183.6,-1080 183.6,-1116"/>
<text text-anchor="middle" x="156.6" y="-1094.3" font-family="Times New Roman,serif" font-size="14.00">cell 18</text>
</g>
<!-- cell 5A&#45;&#45;cell 18 -->
<g id="edge5" class="edge"><title>cell 5A&#45;&#45;cell 18</title>
<path fill="none" stroke="black" d="M92.2,-1045.8C92.2,-1055.17 92.2,-1098 92.2,-1098 92.2,-1098 111.736,-1098 129.289,-1098"/>
</g>
<!-- cell 33 -->
<g id="node44" class="node"><title>cell 33</title>
<polygon fill="none" stroke="black" points="183.6,-1062 129.6,-1062 129.6,-1026 183.6,-1026 183.6,-1062"/>
<text text-anchor="middle" x="156.6" y="-1040.3" font-family="Times New Roman,serif" font-size="14.00">cell 33</text>
</g>
<!-- cell 5A&#45;&#45;cell 33 -->
<g id="edge28" class="edge"><title>cell 5A&#45;&#45;cell 33</title>
<path fill="none" stroke="black" d="M93.6695,-1044C99.0233,-1044 114.961,-1044 129.456,-1044"/>
</g>
<!-- cell 37 -->
<g id="node49" class="node"><title>cell 37</title>
<polygon fill="none" stroke="black" points="183.6,-1008 129.6,-1008 129.6,-972 183.6,-972 183.6,-1008"/>
<text text-anchor="middle" x="156.6" y="-986.3" font-family="Times New Roman,serif" font-size="14.00">cell 37</text>
</g>
<!-- cell 5A&#45;&#45;cell 37 -->
<g id="edge33" class="edge"><title>cell 5A&#45;&#45;cell 37</title>
<path fill="none" stroke="black" d="M92.2,-1042.2C92.2,-1032.83 92.2,-990 92.2,-990 92.2,-990 111.736,-990 129.289,-990"/>
</g>
<!-- cell 59 -->
<g id="node74" class="node"><title>cell 59</title>
<polygon fill="none" stroke="black" points="183.6,-954 129.6,-954 129.6,-918 183.6,-918 183.6,-954"/>
<text text-anchor="middle" x="156.6" y="-932.3" font-family="Times New Roman,serif" font-size="14.00">cell 59</text>
</g>
<!-- cell 5A&#45;&#45;cell 59 -->
<g id="edge58" class="edge"><title>cell 5A&#45;&#45;cell 59</title>
<path fill="none" stroke="black" d="M91.2,-1042.13C91.2,-1027.78 91.2,-936 91.2,-936 91.2,-936 111.322,-936 129.243,-936"/>
</g>
<!-- cell 17 -->
<g id="node19" class="node"><title>cell 17</title>
<polygon fill="none" stroke="black" points="183.6,-900 129.6,-900 129.6,-864 183.6,-864 183.6,-900"/>
<text text-anchor="middle" x="156.6" y="-878.3" font-family="Times New Roman,serif" font-size="14.00">cell 17</text>
</g>
<!-- cell 4A&#45;&#45;cell 17 -->
<g id="edge4" class="edge"><title>cell 4A&#45;&#45;cell 17</title>
<path fill="none" stroke="black" d="M92.2,-775.875C92.2,-790.216 92.2,-882 92.2,-882 92.2,-882 111.736,-882 129.289,-882"/>
</g>
<!-- cell 30 -->
<g id="node41" class="node"><title>cell 30</title>
<polygon fill="none" stroke="black" points="183.6,-846 129.6,-846 129.6,-810 183.6,-810 183.6,-846"/>
<text text-anchor="middle" x="156.6" y="-824.3" font-family="Times New Roman,serif" font-size="14.00">cell 30</text>
</g>
<!-- cell 4A&#45;&#45;cell 30 -->
<g id="edge25" class="edge"><title>cell 4A&#45;&#45;cell 30</title>
<path fill="none" stroke="black" d="M93.2,-775.335C93.2,-783.65 93.2,-828 93.2,-828 93.2,-828 112.161,-828 129.345,-828"/>
</g>
<!-- cell 31 -->
<g id="node42" class="node"><title>cell 31</title>
<polygon fill="none" stroke="black" points="183.6,-792 129.6,-792 129.6,-756 183.6,-756 183.6,-792"/>
<text text-anchor="middle" x="156.6" y="-770.3" font-family="Times New Roman,serif" font-size="14.00">cell 31</text>
</g>
<!-- cell 4A&#45;&#45;cell 31 -->
<g id="edge26" class="edge"><title>cell 4A&#45;&#45;cell 31</title>
<path fill="none" stroke="black" d="M93.6695,-774C99.0233,-774 114.961,-774 129.456,-774"/>
</g>
<!-- cell 51 -->
<g id="node63" class="node"><title>cell 51</title>
<polygon fill="none" stroke="black" points="183.6,-738 129.6,-738 129.6,-702 183.6,-702 183.6,-738"/>
<text text-anchor="middle" x="156.6" y="-716.3" font-family="Times New Roman,serif" font-size="14.00">cell 51</text>
</g>
<!-- cell 4A&#45;&#45;cell 51 -->
<g id="edge47" class="edge"><title>cell 4A&#45;&#45;cell 51</title>
<path fill="none" stroke="black" d="M93.2,-772.665C93.2,-764.35 93.2,-720 93.2,-720 93.2,-720 112.161,-720 129.345,-720"/>
</g>
<!-- cell 55 -->
<g id="node68" class="node"><title>cell 55</title>
<polygon fill="none" stroke="black" points="183.6,-684 129.6,-684 129.6,-648 183.6,-648 183.6,-684"/>
<text text-anchor="middle" x="156.6" y="-662.3" font-family="Times New Roman,serif" font-size="14.00">cell 55</text>
</g>
<!-- cell 4A&#45;&#45;cell 55 -->
<g id="edge52" class="edge"><title>cell 4A&#45;&#45;cell 55</title>
<path fill="none" stroke="black" d="M91.2,-772.125C91.2,-757.784 91.2,-666 91.2,-666 91.2,-666 111.322,-666 129.243,-666"/>
</g>
<!-- cell 19 -->
<g id="node22" class="node"><title>cell 19</title>
<polygon fill="none" stroke="black" points="183.6,-630 129.6,-630 129.6,-594 183.6,-594 183.6,-630"/>
<text text-anchor="middle" x="156.6" y="-608.3" font-family="Times New Roman,serif" font-size="14.00">cell 19</text>
</g>
<!-- cell 19A -->
<g id="node51" class="node"><title>cell 19A</title>
<ellipse fill="black" stroke="black" cx="221.4" cy="-612" rx="1.8" ry="1.8"/>
</g>
<!-- cell 19&#45;&#45;cell 19A -->
<g id="edge34" class="edge"><title>cell 19&#45;&#45;cell 19A</title>
<path fill="none" stroke="black" d="M183.706,-612C198.133,-612 214,-612 219.443,-612"/>
</g>
<!-- cell 3A&#45;&#45;cell 19 -->
<g id="edge7" class="edge"><title>cell 3A&#45;&#45;cell 19</title>
<path fill="none" stroke="black" d="M92.2,-559.797C92.2,-569.167 92.2,-612 92.2,-612 92.2,-612 111.736,-612 129.289,-612"/>
</g>
<!-- cell 32 -->
<g id="node43" class="node"><title>cell 32</title>
<polygon fill="none" stroke="black" points="183.6,-576 129.6,-576 129.6,-540 183.6,-540 183.6,-576"/>
<text text-anchor="middle" x="156.6" y="-554.3" font-family="Times New Roman,serif" font-size="14.00">cell 32</text>
</g>
<!-- cell 3A&#45;&#45;cell 32 -->
<g id="edge27" class="edge"><title>cell 3A&#45;&#45;cell 32</title>
<path fill="none" stroke="black" d="M93.6695,-558C99.0233,-558 114.961,-558 129.456,-558"/>
</g>
<!-- cell 44 -->
<g id="node57" class="node"><title>cell 44</title>
<polygon fill="none" stroke="black" points="183.6,-522 129.6,-522 129.6,-486 183.6,-486 183.6,-522"/>
<text text-anchor="middle" x="156.6" y="-500.3" font-family="Times New Roman,serif" font-size="14.00">cell 44</text>
</g>
<!-- cell 3A&#45;&#45;cell 44 -->
<g id="edge41" class="edge"><title>cell 3A&#45;&#45;cell 44</title>
<path fill="none" stroke="black" d="M92.2,-556.203C92.2,-546.833 92.2,-504 92.2,-504 92.2,-504 111.736,-504 129.289,-504"/>
</g>
<!-- cell 20 -->
<g id="node24" class="node"><title>cell 20</title>
<polygon fill="none" stroke="black" points="183.6,-252 129.6,-252 129.6,-216 183.6,-216 183.6,-252"/>
<text text-anchor="middle" x="156.6" y="-230.3" font-family="Times New Roman,serif" font-size="14.00">cell 20</text>
</g>
<!-- cell 0A&#45;&#45;cell 20 -->
<g id="edge9" class="edge"><title>cell 0A&#45;&#45;cell 20</title>
<path fill="none" stroke="black" d="M91.2,-127.875C91.2,-142.216 91.2,-234 91.2,-234 91.2,-234 111.322,-234 129.243,-234"/>
</g>
<!-- cell 28 -->
<g id="node39" class="node"><title>cell 28</title>
<polygon fill="none" stroke="black" points="183.6,-198 129.6,-198 129.6,-162 183.6,-162 183.6,-198"/>
<text text-anchor="middle" x="156.6" y="-176.3" font-family="Times New Roman,serif" font-size="14.00">cell 28</text>
</g>
<!-- cell 0A&#45;&#45;cell 28 -->
<g id="edge23" class="edge"><title>cell 0A&#45;&#45;cell 28</title>
<path fill="none" stroke="black" d="M92.2,-127.797C92.2,-137.167 92.2,-180 92.2,-180 92.2,-180 111.736,-180 129.289,-180"/>
</g>
<!-- cell 29 -->
<g id="node40" class="node"><title>cell 29</title>
<polygon fill="none" stroke="black" points="183.6,-144 129.6,-144 129.6,-108 183.6,-108 183.6,-144"/>
<text text-anchor="middle" x="156.6" y="-122.3" font-family="Times New Roman,serif" font-size="14.00">cell 29</text>
</g>
<!-- cell 0A&#45;&#45;cell 29 -->
<g id="edge24" class="edge"><title>cell 0A&#45;&#45;cell 29</title>
<path fill="none" stroke="black" d="M93.6695,-126C99.0233,-126 114.961,-126 129.456,-126"/>
</g>
<!-- cell 47 -->
<g id="node59" class="node"><title>cell 47</title>
<polygon fill="none" stroke="black" points="183.6,-90 129.6,-90 129.6,-54 183.6,-54 183.6,-90"/>
<text text-anchor="middle" x="156.6" y="-68.3" font-family="Times New Roman,serif" font-size="14.00">cell 47</text>
</g>
<!-- cell 0A&#45;&#45;cell 47 -->
<g id="edge43" class="edge"><title>cell 0A&#45;&#45;cell 47</title>
<path fill="none" stroke="black" d="M93.2,-124.665C93.2,-116.35 93.2,-72 93.2,-72 93.2,-72 112.161,-72 129.345,-72"/>
</g>
<!-- cell 53 -->
<g id="node65" class="node"><title>cell 53</title>
<polygon fill="none" stroke="black" points="183.6,-36 129.6,-36 129.6,-0 183.6,-0 183.6,-36"/>
<text text-anchor="middle" x="156.6" y="-14.3" font-family="Times New Roman,serif" font-size="14.00">cell 53</text>
</g>
<!-- cell 0A&#45;&#45;cell 53 -->
<g id="edge49" class="edge"><title>cell 0A&#45;&#45;cell 53</title>
<path fill="none" stroke="black" d="M92.2,-124.125C92.2,-109.784 92.2,-18 92.2,-18 92.2,-18 111.736,-18 129.289,-18"/>
</g>
<!-- cell 21 -->
<g id="node26" class="node"><title>cell 21</title>
<polygon fill="none" stroke="black" points="183.6,-2034 129.6,-2034 129.6,-1998 183.6,-1998 183.6,-2034"/>
<text text-anchor="middle" x="156.6" y="-2012.3" font-family="Times New Roman,serif" font-size="14.00">cell 21</text>
</g>
<!-- cell 13A&#45;&#45;cell 21 -->
<g id="edge11" class="edge"><title>cell 13A&#45;&#45;cell 21</title>
<path fill="none" stroke="black" d="M91.2,-1937C91.2,-1949.48 91.2,-2016 91.2,-2016 91.2,-2016 111.322,-2016 129.243,-2016"/>
</g>
<!-- cell 27 -->
<g id="node38" class="node"><title>cell 27</title>
<polygon fill="none" stroke="black" points="183.6,-1980 129.6,-1980 129.6,-1944 183.6,-1944 183.6,-1980"/>
<text text-anchor="middle" x="156.6" y="-1958.3" font-family="Times New Roman,serif" font-size="14.00">cell 27</text>
</g>
<!-- cell 13A&#45;&#45;cell 27 -->
<g id="edge22" class="edge"><title>cell 13A&#45;&#45;cell 27</title>
<path fill="none" stroke="black" d="M92.2,-1937.11C92.2,-1940.91 92.2,-1948.5 92.2,-1948.5 92.2,-1948.5 111.736,-1948.5 129.289,-1948.5"/>
</g>
<!-- cell 39 -->
<g id="node52" class="node"><title>cell 39</title>
<polygon fill="none" stroke="black" points="183.6,-1926 129.6,-1926 129.6,-1890 183.6,-1890 183.6,-1926"/>
<text text-anchor="middle" x="156.6" y="-1904.3" font-family="Times New Roman,serif" font-size="14.00">cell 39</text>
</g>
<!-- cell 13A&#45;&#45;cell 39 -->
<g id="edge36" class="edge"><title>cell 13A&#45;&#45;cell 39</title>
<path fill="none" stroke="black" d="M93.2,-1933.75C93.2,-1930.41 93.2,-1921.5 93.2,-1921.5 93.2,-1921.5 112.161,-1921.5 129.345,-1921.5"/>
</g>
<!-- cell 46 -->
<g id="node58" class="node"><title>cell 46</title>
<polygon fill="none" stroke="black" points="183.6,-1872 129.6,-1872 129.6,-1836 183.6,-1836 183.6,-1872"/>
<text text-anchor="middle" x="156.6" y="-1850.3" font-family="Times New Roman,serif" font-size="14.00">cell 46</text>
</g>
<!-- cell 13A&#45;&#45;cell 46 -->
<g id="edge42" class="edge"><title>cell 13A&#45;&#45;cell 46</title>
<path fill="none" stroke="black" d="M93.6826,-1935C98.7328,-1935 112.2,-1935 112.2,-1935 112.2,-1935 112.2,-1867.5 112.2,-1867.5 112.2,-1867.5 120.249,-1867.5 129.493,-1867.5"/>
</g>
<!-- cell 22 -->
<g id="node28" class="node"><title>cell 22</title>
<polygon fill="none" stroke="black" points="183.6,-1548 129.6,-1548 129.6,-1512 183.6,-1512 183.6,-1548"/>
<text text-anchor="middle" x="156.6" y="-1526.3" font-family="Times New Roman,serif" font-size="14.00">cell 22</text>
</g>
<!-- cell 8A&#45;&#45;cell 22 -->
<g id="edge13" class="edge"><title>cell 8A&#45;&#45;cell 22</title>
<path fill="none" stroke="black" d="M93.2,-1504.25C93.2,-1507.59 93.2,-1516.5 93.2,-1516.5 93.2,-1516.5 112.161,-1516.5 129.345,-1516.5"/>
</g>
<!-- cell 36 -->
<g id="node48" class="node"><title>cell 36</title>
<polygon fill="none" stroke="black" points="183.6,-1494 129.6,-1494 129.6,-1458 183.6,-1458 183.6,-1494"/>
<text text-anchor="middle" x="156.6" y="-1472.3" font-family="Times New Roman,serif" font-size="14.00">cell 36</text>
</g>
<!-- cell 8A&#45;&#45;cell 36 -->
<g id="edge32" class="edge"><title>cell 8A&#45;&#45;cell 36</title>
<path fill="none" stroke="black" d="M93.2,-1501.75C93.2,-1498.41 93.2,-1489.5 93.2,-1489.5 93.2,-1489.5 112.161,-1489.5 129.345,-1489.5"/>
</g>
<!-- cell 23 -->
<g id="node30" class="node"><title>cell 23</title>
<polygon fill="none" stroke="black" points="183.6,-360 129.6,-360 129.6,-324 183.6,-324 183.6,-360"/>
<text text-anchor="middle" x="156.6" y="-338.3" font-family="Times New Roman,serif" font-size="14.00">cell 23</text>
</g>
<!-- cell 1A&#45;&#45;cell 23 -->
<g id="edge15" class="edge"><title>cell 1A&#45;&#45;cell 23</title>
<path fill="none" stroke="black" d="M92.2,-317.109C92.2,-320.906 92.2,-328.5 92.2,-328.5 92.2,-328.5 111.736,-328.5 129.289,-328.5"/>
</g>
<!-- cell 40 -->
<g id="node53" class="node"><title>cell 40</title>
<polygon fill="none" stroke="black" points="183.6,-306 129.6,-306 129.6,-270 183.6,-270 183.6,-306"/>
<text text-anchor="middle" x="156.6" y="-284.3" font-family="Times New Roman,serif" font-size="14.00">cell 40</text>
</g>
<!-- cell 1A&#45;&#45;cell 40 -->
<g id="edge37" class="edge"><title>cell 1A&#45;&#45;cell 40</title>
<path fill="none" stroke="black" d="M93.2,-313.754C93.2,-310.412 93.2,-301.5 93.2,-301.5 93.2,-301.5 112.161,-301.5 129.345,-301.5"/>
</g>
<!-- cell 24 -->
<g id="node32" class="node"><title>cell 24</title>
<polygon fill="none" stroke="black" points="183.6,-1440 129.6,-1440 129.6,-1404 183.6,-1404 183.6,-1440"/>
<text text-anchor="middle" x="156.6" y="-1418.3" font-family="Times New Roman,serif" font-size="14.00">cell 24</text>
</g>
<!-- cell 7A&#45;&#45;cell 24 -->
<g id="edge17" class="edge"><title>cell 7A&#45;&#45;cell 24</title>
<path fill="none" stroke="black" d="M92.2,-1369.8C92.2,-1379.17 92.2,-1422 92.2,-1422 92.2,-1422 111.736,-1422 129.289,-1422"/>
</g>
<!-- cell 41 -->
<g id="node54" class="node"><title>cell 41</title>
<polygon fill="none" stroke="black" points="183.6,-1386 129.6,-1386 129.6,-1350 183.6,-1350 183.6,-1386"/>
<text text-anchor="middle" x="156.6" y="-1364.3" font-family="Times New Roman,serif" font-size="14.00">cell 41</text>
</g>
<!-- cell 7A&#45;&#45;cell 41 -->
<g id="edge38" class="edge"><title>cell 7A&#45;&#45;cell 41</title>
<path fill="none" stroke="black" d="M93.6695,-1368C99.0233,-1368 114.961,-1368 129.456,-1368"/>
</g>
<!-- cell 52 -->
<g id="node64" class="node"><title>cell 52</title>
<polygon fill="none" stroke="black" points="183.6,-1332 129.6,-1332 129.6,-1296 183.6,-1296 183.6,-1332"/>
<text text-anchor="middle" x="156.6" y="-1310.3" font-family="Times New Roman,serif" font-size="14.00">cell 52</text>
</g>
<!-- cell 7A&#45;&#45;cell 52 -->
<g id="edge48" class="edge"><title>cell 7A&#45;&#45;cell 52</title>
<path fill="none" stroke="black" d="M92.2,-1366.2C92.2,-1356.83 92.2,-1314 92.2,-1314 92.2,-1314 111.736,-1314 129.289,-1314"/>
</g>
<!-- cell 25 -->
<g id="node34" class="node"><title>cell 25</title>
<polygon fill="none" stroke="black" points="183.6,-1710 129.6,-1710 129.6,-1674 183.6,-1674 183.6,-1710"/>
<text text-anchor="middle" x="156.6" y="-1688.3" font-family="Times New Roman,serif" font-size="14.00">cell 25</text>
</g>
<!-- cell 9A&#45;&#45;cell 25 -->
<g id="edge19" class="edge"><title>cell 9A&#45;&#45;cell 25</title>
<path fill="none" stroke="black" d="M92.2,-1639.8C92.2,-1649.17 92.2,-1692 92.2,-1692 92.2,-1692 111.736,-1692 129.289,-1692"/>
</g>
<!-- cell 42 -->
<g id="node55" class="node"><title>cell 42</title>
<polygon fill="none" stroke="black" points="183.6,-1656 129.6,-1656 129.6,-1620 183.6,-1620 183.6,-1656"/>
<text text-anchor="middle" x="156.6" y="-1634.3" font-family="Times New Roman,serif" font-size="14.00">cell 42</text>
</g>
<!-- cell 9A&#45;&#45;cell 42 -->
<g id="edge39" class="edge"><title>cell 9A&#45;&#45;cell 42</title>
<path fill="none" stroke="black" d="M93.6695,-1638C99.0233,-1638 114.961,-1638 129.456,-1638"/>
</g>
<!-- cell 50 -->
<g id="node62" class="node"><title>cell 50</title>
<polygon fill="none" stroke="black" points="183.6,-1602 129.6,-1602 129.6,-1566 183.6,-1566 183.6,-1602"/>
<text text-anchor="middle" x="156.6" y="-1580.3" font-family="Times New Roman,serif" font-size="14.00">cell 50</text>
</g>
<!-- cell 9A&#45;&#45;cell 50 -->
<g id="edge46" class="edge"><title>cell 9A&#45;&#45;cell 50</title>
<path fill="none" stroke="black" d="M92.2,-1636.2C92.2,-1626.83 92.2,-1584 92.2,-1584 92.2,-1584 111.736,-1584 129.289,-1584"/>
</g>
<!-- cell 26 -->
<g id="node36" class="node"><title>cell 26</title>
<polygon fill="none" stroke="black" points="183.6,-1818 129.6,-1818 129.6,-1782 183.6,-1782 183.6,-1818"/>
<text text-anchor="middle" x="156.6" y="-1796.3" font-family="Times New Roman,serif" font-size="14.00">cell 26</text>
</g>
<!-- cell 10A&#45;&#45;cell 26 -->
<g id="edge21" class="edge"><title>cell 10A&#45;&#45;cell 26</title>
<path fill="none" stroke="black" d="M92.2,-1748.13C92.2,-1757.6 92.2,-1795.5 92.2,-1795.5 92.2,-1795.5 111.736,-1795.5 129.289,-1795.5"/>
</g>
<!-- cell 43 -->
<g id="node56" class="node"><title>cell 43</title>
<polygon fill="none" stroke="black" points="183.6,-1764 129.6,-1764 129.6,-1728 183.6,-1728 183.6,-1764"/>
<text text-anchor="middle" x="156.6" y="-1742.3" font-family="Times New Roman,serif" font-size="14.00">cell 43</text>
</g>
<!-- cell 10A&#45;&#45;cell 43 -->
<g id="edge40" class="edge"><title>cell 10A&#45;&#45;cell 43</title>
<path fill="none" stroke="black" d="M93.6695,-1746C99.0233,-1746 114.961,-1746 129.456,-1746"/>
</g>
<!-- cell 32A -->
<g id="node72" class="node"><title>cell 32A</title>
<ellipse fill="black" stroke="black" cx="221.4" cy="-558" rx="1.8" ry="1.8"/>
</g>
<!-- cell 32&#45;&#45;cell 32A -->
<g id="edge55" class="edge"><title>cell 32&#45;&#45;cell 32A</title>
<path fill="none" stroke="black" d="M183.706,-558C198.133,-558 214,-558 219.443,-558"/>
</g>
<!-- cell 34 -->
<g id="node45" class="node"><title>cell 34</title>
<polygon fill="none" stroke="black" points="183.6,-468 129.6,-468 129.6,-432 183.6,-432 183.6,-468"/>
<text text-anchor="middle" x="156.6" y="-446.3" font-family="Times New Roman,serif" font-size="14.00">cell 34</text>
</g>
<!-- cell 2A&#45;&#45;cell 34 -->
<g id="edge30" class="edge"><title>cell 2A&#45;&#45;cell 34</title>
<path fill="none" stroke="black" d="M93.2,-424.246C93.2,-427.588 93.2,-436.5 93.2,-436.5 93.2,-436.5 112.161,-436.5 129.345,-436.5"/>
</g>
<!-- cell 35 -->
<g id="node47" class="node"><title>cell 35</title>
<polygon fill="none" stroke="black" points="183.6,-414 129.6,-414 129.6,-378 183.6,-378 183.6,-414"/>
<text text-anchor="middle" x="156.6" y="-392.3" font-family="Times New Roman,serif" font-size="14.00">cell 35</text>
</g>
<!-- cell 2A&#45;&#45;cell 35 -->
<g id="edge31" class="edge"><title>cell 2A&#45;&#45;cell 35</title>
<path fill="none" stroke="black" d="M93.2,-421.754C93.2,-418.412 93.2,-409.5 93.2,-409.5 93.2,-409.5 112.161,-409.5 129.345,-409.5"/>
</g>
<!-- cell 38 -->
<g id="node50" class="node"><title>cell 38</title>
<polygon fill="none" stroke="black" points="313.2,-630 259.2,-630 259.2,-594 313.2,-594 313.2,-630"/>
<text text-anchor="middle" x="286.2" y="-608.3" font-family="Times New Roman,serif" font-size="14.00">cell 38</text>
</g>
<!-- cell 19A&#45;&#45;cell 38 -->
<g id="edge35" class="edge"><title>cell 19A&#45;&#45;cell 38</title>
<path fill="none" stroke="black" d="M223.269,-612C228.623,-612 244.561,-612 259.056,-612"/>
</g>
<!-- cell 48 -->
<g id="node60" class="node"><title>cell 48</title>
<polygon fill="none" stroke="black" points="183.6,-1278 129.6,-1278 129.6,-1242 183.6,-1242 183.6,-1278"/>
<text text-anchor="middle" x="156.6" y="-1256.3" font-family="Times New Roman,serif" font-size="14.00">cell 48</text>
</g>
<!-- cell 6A&#45;&#45;cell 48 -->
<g id="edge45" class="edge"><title>cell 6A&#45;&#45;cell 48</title>
<path fill="none" stroke="black" d="M93.2,-1234.25C93.2,-1237.59 93.2,-1246.5 93.2,-1246.5 93.2,-1246.5 112.161,-1246.5 129.345,-1246.5"/>
</g>
<!-- cell 60 -->
<g id="node75" class="node"><title>cell 60</title>
<polygon fill="none" stroke="black" points="183.6,-1224 129.6,-1224 129.6,-1188 183.6,-1188 183.6,-1224"/>
<text text-anchor="middle" x="156.6" y="-1202.3" font-family="Times New Roman,serif" font-size="14.00">cell 60</text>
</g>
<!-- cell 6A&#45;&#45;cell 60 -->
<g id="edge59" class="edge"><title>cell 6A&#45;&#45;cell 60</title>
<path fill="none" stroke="black" d="M93.2,-1231.75C93.2,-1228.41 93.2,-1219.5 93.2,-1219.5 93.2,-1219.5 112.161,-1219.5 129.345,-1219.5"/>
</g>
<!-- cell 54 -->
<g id="node66" class="node"><title>cell 54</title>
<polygon fill="none" stroke="black" points="313.2,-1170 259.2,-1170 259.2,-1134 313.2,-1134 313.2,-1170"/>
<text text-anchor="middle" x="286.2" y="-1148.3" font-family="Times New Roman,serif" font-size="14.00">cell 54</text>
</g>
<!-- cell 16A&#45;&#45;cell 54 -->
<g id="edge51" class="edge"><title>cell 16A&#45;&#45;cell 54</title>
<path fill="none" stroke="black" d="M223.269,-1152C228.623,-1152 244.561,-1152 259.056,-1152"/>
</g>
<!-- cell 56 -->
<g id="node69" class="node"><title>cell 56</title>
<polygon fill="none" stroke="black" points="183.6,-2142 129.6,-2142 129.6,-2106 183.6,-2106 183.6,-2142"/>
<text text-anchor="middle" x="156.6" y="-2120.3" font-family="Times New Roman,serif" font-size="14.00">cell 56</text>
</g>
<!-- cell 14A&#45;&#45;cell 56 -->
<g id="edge54" class="edge"><title>cell 14A&#45;&#45;cell 56</title>
<path fill="none" stroke="black" d="M92.2,-2099.11C92.2,-2102.91 92.2,-2110.5 92.2,-2110.5 92.2,-2110.5 111.736,-2110.5 129.289,-2110.5"/>
</g>
<!-- cell 58 -->
<g id="node73" class="node"><title>cell 58</title>
<polygon fill="none" stroke="black" points="183.6,-2088 129.6,-2088 129.6,-2052 183.6,-2052 183.6,-2088"/>
<text text-anchor="middle" x="156.6" y="-2066.3" font-family="Times New Roman,serif" font-size="14.00">cell 58</text>
</g>
<!-- cell 14A&#45;&#45;cell 58 -->
<g id="edge57" class="edge"><title>cell 14A&#45;&#45;cell 58</title>
<path fill="none" stroke="black" d="M93.2,-2095.75C93.2,-2092.41 93.2,-2083.5 93.2,-2083.5 93.2,-2083.5 112.161,-2083.5 129.345,-2083.5"/>
</g>
<!-- cell 57 -->
<g id="node71" class="node"><title>cell 57</title>
<polygon fill="none" stroke="black" points="313.2,-576 259.2,-576 259.2,-540 313.2,-540 313.2,-576"/>
<text text-anchor="middle" x="286.2" y="-554.3" font-family="Times New Roman,serif" font-size="14.00">cell 57</text>
</g>
<!-- cell 32A&#45;&#45;cell 57 -->
<g id="edge56" class="edge"><title>cell 32A&#45;&#45;cell 57</title>
<path fill="none" stroke="black" d="M223.269,-558C228.623,-558 244.561,-558 259.056,-558"/>
</g>
</g>
</svg>
