<?xml version="1.0" encoding="UTF-8" standalone="no"?>
<!DOCTYPE svg PUBLIC "-//W3C//DTD SVG 1.1//EN"
 "http://www.w3.org/Graphics/SVG/1.1/DTD/svg11.dtd">
<!-- Generated by graphviz version 2.38.0 (20140413.2041)
 -->
<!-- Title: %3 Pages: 1 -->
<svg width="321pt" height="2177pt"
 viewBox="0.00 0.00 321.20 2177.00" xmlns="http://www.w3.org/2000/svg" xmlns:xlink="http://www.w3.org/1999/xlink">
<g id="graph0" class="graph" transform="scale(1 1) rotate(0) translate(4 2173)">
<title>%3</title>
<polygon fill="white" stroke="none" points="-4,4 -4,-2173 317.2,-2173 317.2,4 -4,4"/>
<!-- cell 0 -->
<g id="node1" class="node"><title>cell 0</title>
<polygon fill="none" stroke="black" points="54,-144 0,-144 0,-108 54,-108 54,-144"/>
<text text-anchor="middle" x="27" y="-122.3" font-family="Times New Roman,serif" font-size="14.00">cell 0</text>
</g>
<!-- cell 0A -->
<g id="node25" class="node"><title>cell 0A</title>
<ellipse fill="black" stroke="black" cx="91.8" cy="-126" rx="1.8" ry="1.8"/>
</g>
<!-- cell 0&#45;&#45;cell 0A -->
<g id="edge8" class="edge"><title>cell 0&#45;&#45;cell 0A</title>
<path fill="none" stroke="black" d="M54.269,-126C69.3267,-126 86.0025,-126 89.9361,-126"/>
</g>
<!-- cell 1 -->
<g id="node2" class="node"><title>cell 1</title>
<polygon fill="none" stroke="black" points="54,-333 0,-333 0,-297 54,-297 54,-333"/>
<text text-anchor="middle" x="27" y="-311.3" font-family="Times New Roman,serif" font-size="14.00">cell 1</text>
</g>
<!-- cell 1A -->
<g id="node31" class="node"><title>cell 1A</title>
<ellipse fill="black" stroke="black" cx="91.8" cy="-315" rx="1.8" ry="1.8"/>
</g>
<!-- cell 1&#45;&#45;cell 1A -->
<g id="edge14" class="edge"><title>cell 1&#45;&#45;cell 1A</title>
<path fill="none" stroke="black" d="M54.269,-315C69.3267,-315 86.0025,-315 89.9361,-315"/>
</g>
<!-- cell 2 -->
<g id="node3" class="node"><title>cell 2</title>
<polygon fill="none" stroke="black" points="54,-441 0,-441 0,-405 54,-405 54,-441"/>
<text text-anchor="middle" x="27" y="-419.3" font-family="Times New Roman,serif" font-size="14.00">cell 2</text>
</g>
<!-- cell 2A -->
<g id="node46" class="node"><title>cell 2A</title>
<ellipse fill="black" stroke="black" cx="91.8" cy="-423" rx="1.8" ry="1.8"/>
</g>
<!-- cell 2&#45;&#45;cell 2A -->
<g id="edge29" class="edge"><title>cell 2&#45;&#45;cell 2A</title>
<path fill="none" stroke="black" d="M54.269,-423C69.3267,-423 86.0025,-423 89.9361,-423"/>
</g>
<!-- cell 3 -->
<g id="node4" class="node"><title>cell 3</title>
<polygon fill="none" stroke="black" points="54,-576 0,-576 0,-540 54,-540 54,-576"/>
<text text-anchor="middle" x="27" y="-554.3" font-family="Times New Roman,serif" font-size="14.00">cell 3</text>
</g>
<!-- cell 3A -->
<g id="node23" class="node"><title>cell 3A</title>
<ellipse fill="black" stroke="black" cx="91.8" cy="-558" rx="1.8" ry="1.8"/>
</g>
<!-- cell 3&#45;&#45;cell 3A -->
<g id="edge6" class="edge"><title>cell 3&#45;&#45;cell 3A</title>
<path fill="none" stroke="black" d="M54.269,-558C69.3267,-558 86.0025,-558 89.9361,-558"/>
</g>
<!-- cell 4 -->
<g id="node5" class="node"><title>cell 4</title>
<polygon fill="none" stroke="black" points="54,-792 0,-792 0,-756 54,-756 54,-792"/>
<text text-anchor="middle" x="27" y="-770.3" font-family="Times New Roman,serif" font-size="14.00">cell 4</text>
</g>
<!-- cell 4A -->
<g id="node20" class="node"><title>cell 4A</title>
<ellipse fill="black" stroke="black" cx="91.8" cy="-774" rx="1.8" ry="1.8"/>
</g>
<!-- cell 4&#45;&#45;cell 4A -->
<g id="edge3" class="edge"><title>cell 4&#45;&#45;cell 4A</title>
<path fill="none" stroke="black" d="M54.269,-774C69.3267,-774 86.0025,-774 89.9361,-774"/>
</g>
<!-- cell 5 -->
<g id="node6" class="node"><title>cell 5</title>
<polygon fill="none" stroke="black" points="54,-1062 0,-1062 0,-1026 54,-1026 54,-1062"/>
<text text-anchor="middle" x="27" y="-1040.3" font-family="Times New Roman,serif" font-size="14.00">cell 5</text>
</g>
<!-- cell 5A -->
<g id="node18" class="node"><title>cell 5A</title>
<ellipse fill="black" stroke="black" cx="91.8" cy="-1044" rx="1.8" ry="1.8"/>
</g>
<!-- cell 5&#45;&#45;cell 5A -->
<g id="edge1" class="edge"><title>cell 5&#45;&#45;cell 5A</title>
<path fill="none" stroke="black" d="M54.269,-1044C69.3267,-1044 86.0025,-1044 89.9361,-1044"/>
</g>
<!-- cell 6 -->
<g id="node7" class="node"><title>cell 6</title>
<polygon fill="none" stroke="black" points="54,-1251 0,-1251 0,-1215 54,-1215 54,-1251"/>
<text text-anchor="middle" x="27" y="-1229.3" font-family="Times New Roman,serif" font-size="14.00">cell 6</text>
</g>
<!-- cell 6A -->
<g id="node61" class="node"><title>cell 6A</title>
<ellipse fill="black" stroke="black" cx="91.8" cy="-1233" rx="1.8" ry="1.8"/>
</g>
<!-- cell 6&#45;&#45;cell 6A -->
<g id="edge44" class="edge"><title>cell 6&#45;&#45;cell 6A</title>
<path fill="none" stroke="black" d="M54.269,-1233C69.3267,-1233 86.0025,-1233 89.9361,-1233"/>
</g>
<!-- cell 7 -->
<g id="node8" class="node"><title>cell 7</title>
<polygon fill="none" stroke="black" points="54,-1386 0,-1386 0,-1350 54,-1350 54,-1386"/>
<text text-anchor="middle" x="27" y="-1364.3" font-family="Times New Roman,serif" font-size="14.00">cell 7</text>
</g>
<!-- cell 7A -->
<g id="node33" class="node"><title>cell 7A</title>
<ellipse fill="black" stroke="black" cx="91.8" cy="-1368" rx="1.8" ry="1.8"/>
</g>
<!-- cell 7&#45;&#45;cell 7A -->
<g id="edge16" class="edge"><title>cell 7&#45;&#45;cell 7A</title>
<path fill="none" stroke="black" d="M54.269,-1368C69.3267,-1368 86.0025,-1368 89.9361,-1368"/>
</g>
<!-- cell 8 -->
<g id="node9" class="node"><title>cell 8</title>
<polygon fill="none" stroke="black" points="54,-1521 0,-1521 0,-1485 54,-1485 54,-1521"/>
<text text-anchor="middle" x="27" y="-1499.3" font-family="Times New Roman,serif" font-size="14.00">cell 8</text>
</g>
<!-- cell 8A -->
<g id="node29" class="node"><title>cell 8A</title>
<ellipse fill="black" stroke="black" cx="91.8" cy="-1503" rx="1.8" ry="1.8"/>
</g>
<!-- cell 8&#45;&#45;cell 8A -->
<g id="edge12" class="edge"><title>cell 8&#45;&#45;cell 8A</title>
<path fill="none" stroke="black" d="M54.269,-1503C69.3267,-1503 86.0025,-1503 89.9361,-1503"/>
</g>
<!-- cell 9 -->
<g id="node10" class="node"><title>cell 9</title>
<polygon fill="none" stroke="black" points="54,-1656 0,-1656 0,-1620 54,-1620 54,-1656"/>
<text text-anchor="middle" x="27" y="-1634.3" font-family="Times New Roman,serif" font-size="14.00">cell 9</text>
</g>
<!-- cell 9A -->
<g id="node35" class="node"><title>cell 9A</title>
<ellipse fill="black" stroke="black" cx="91.8" cy="-1638" rx="1.8" ry="1.8"/>
</g>
<!-- cell 9&#45;&#45;cell 9A -->
<g id="edge18" class="edge"><title>cell 9&#45;&#45;cell 9A</title>
<path fill="none" stroke="black" d="M54.269,-1638C69.3267,-1638 86.0025,-1638 89.9361,-1638"/>
</g>
<!-- cell 10 -->
<g id="node11" class="node"><title>cell 10</title>
<polygon fill="none" stroke="black" points="54,-1764 0,-1764 0,-1728 54,-1728 54,-1764"/>
<text text-anchor="middle" x="27" y="-1742.3" font-family="Times New Roman,serif" font-size="14.00">cell 10</text>
</g>
<!-- cell 10A -->
<g id="node37" class="node"><title>cell 10A</title>
<ellipse fill="black" stroke="black" cx="91.8" cy="-1746" rx="1.8" ry="1.8"/>
</g>
<!-- cell 10&#45;&#45;cell 10A -->
<g id="edge20" class="edge"><title>cell 10&#45;&#45;cell 10A</title>
<path fill="none" stroke="black" d="M54.269,-1746C69.3267,-1746 86.0025,-1746 89.9361,-1746"/>
</g>
<!-- cell 11 -->
<g id="node12" class="node"><title>cell 11</title>
<polygon fill="none" stroke="black" points="54,-1845 0,-1845 0,-1809 54,-1809 54,-1845"/>
<text text-anchor="middle" x="27" y="-1823.3" font-family="Times New Roman,serif" font-size="14.00">cell 11</text>
</g>
<!-- cell 12 -->
<g id="node13" class="node"><title>cell 12</title>
<polygon fill="none" stroke="black" points="54,-1899 0,-1899 0,-1863 54,-1863 54,-1899"/>
<text text-anchor="middle" x="27" y="-1877.3" font-family="Times New Roman,serif" font-size="14.00">cell 12</text>
</g>
<!-- cell 13 -->
<g id="node14" class="node"><title>cell 13</title>
<polygon fill="none" stroke="black" points="54,-1953 0,-1953 0,-1917 54,-1917 54,-1953"/>
<text text-anchor="middle" x="27" y="-1931.3" font-family="Times New Roman,serif" font-size="14.00">cell 13</text>
</g>
<!-- cell 13A -->
<g id="node27" class="node"><title>cell 13A</title>
<ellipse fill="black" stroke="black" cx="91.8" cy="-1935" rx="1.8" ry="1.8"/>
</g>
<!-- cell 13&#45;&#45;cell 13A -->
<g id="edge10" class="edge"><title>cell 13&#45;&#45;cell 13A</title>
<path fill="none" stroke="black" d="M54.269,-1935C69.3267,-1935 86.0025,-1935 89.9361,-1935"/>
</g>
<!-- cell 14 -->
<g id="node15" class="node"><title>cell 14</title>
<polygon fill="none" stroke="black" points="54,-2115 0,-2115 0,-2079 54,-2079 54,-2115"/>
<text text-anchor="middle" x="27" y="-2093.3" font-family="Times New Roman,serif" font-size="14.00">cell 14</text>
</g>
<!-- cell 14A -->
<g id="node70" class="node"><title>cell 14A</title>
<ellipse fill="black" stroke="black" cx="91.8" cy="-2097" rx="1.8" ry="1.8"/>
</g>
<!-- cell 14&#45;&#45;cell 14A -->
<g id="edge53" class="edge"><title>cell 14&#45;&#45;cell 14A</title>
<path fill="none" stroke="black" d="M54.269,-2097C69.3267,-2097 86.0025,-2097 89.9361,-2097"/>
</g>
<!-- cell 15 -->
<g id="node16" class="node"><title>cell 15</title>
<polygon fill="none" stroke="black" points="54,-2169 0,-2169 0,-2133 54,-2133 54,-2169"/>
<text text-anchor="middle" x="27" y="-2147.3" font-family="Times New Roman,serif" font-size="14.00">cell 15</text>
</g>
<!-- cell 16 -->
<g id="node17" class="node"><title>cell 16</title>
<polygon fill="none" stroke="black" points="183.6,-1170 129.6,-1170 129.6,-1134 183.6,-1134 183.6,-1170"/>
<text text-anchor="middle" x="156.6" y="-1148.3" font-family="Times New Roman,serif" font-size="14.00">cell 16</text>
</g>
<!-- cell 16A -->
<g id="node67" class="node"><title>cell 16A</title>
<ellipse fill="black" stroke="black" cx="221.4" cy="-1152" rx="1.8" ry="1.8"/>
</g>
<!-- cell 16&#45;&#45;cell 16A -->
<g id="edge50" class="edge"><title>cell 16&#45;&#45;cell 16A</title>
<path fill="none" stroke="black" d="M183.869,-1152C198.927,-1152 215.602,-1152 219.536,-1152"/>
</g>
<!-- cell 5A&#45;&#45;cell 16 -->
<g id="edge2" class="edge"><title>cell 5A&#45;&#45;cell 16</title>
<path fill="none" stroke="black" d="M93.3202,-1045.15C97.7931,-1054.99 129.6,-1125 129.6,-1125 129.6,-1125 133.41,-1128.96 138.113,-1133.84"/>
</g>
<!-- cell 18 -->
<g id="node21" class="node"><title>cell 18</title>
<polygon fill="none" stroke="black" points="183.6,-1116 129.6,-1116 129.6,-1080 183.6,-1080 183.6,-1116"/>
<text text-anchor="middle" x="156.6" y="-1094.3" font-family="Times New Roman,serif" font-size="14.00">cell 18</text>
</g>
<!-- cell 5A&#45;&#45;cell 18 -->
<g id="edge5" class="edge"><title>cell 5A&#45;&#45;cell 18</title>
<path fill="none" stroke="black" d="M93.5053,-1044.61C97.5479,-1048.08 118.172,-1065.82 134.558,-1079.91"/>
</g>
<!-- cell 33 -->
<g id="node44" class="node"><title>cell 33</title>
<polygon fill="none" stroke="black" points="183.6,-1062 129.6,-1062 129.6,-1026 183.6,-1026 183.6,-1062"/>
<text text-anchor="middle" x="156.6" y="-1040.3" font-family="Times New Roman,serif" font-size="14.00">cell 33</text>
</g>
<!-- cell 5A&#45;&#45;cell 33 -->
<g id="edge28" class="edge"><title>cell 5A&#45;&#45;cell 33</title>
<path fill="none" stroke="black" d="M93.89,-1044C98.2225,-1044 114.71,-1044 129.552,-1044"/>
</g>
<!-- cell 37 -->
<g id="node49" class="node"><title>cell 37</title>
<polygon fill="none" stroke="black" points="183.6,-1008 129.6,-1008 129.6,-972 183.6,-972 183.6,-1008"/>
<text text-anchor="middle" x="156.6" y="-986.3" font-family="Times New Roman,serif" font-size="14.00">cell 37</text>
</g>
<!-- cell 5A&#45;&#45;cell 37 -->
<g id="edge33" class="edge"><title>cell 5A&#45;&#45;cell 37</title>
<path fill="none" stroke="black" d="M93.5053,-1043.39C97.5479,-1039.92 118.172,-1022.18 134.558,-1008.09"/>
</g>
<!-- cell 59 -->
<g id="node74" class="node"><title>cell 59</title>
<polygon fill="none" stroke="black" points="183.6,-954 129.6,-954 129.6,-918 183.6,-918 183.6,-954"/>
<text text-anchor="middle" x="156.6" y="-932.3" font-family="Times New Roman,serif" font-size="14.00">cell 59</text>
</g>
<!-- cell 5A&#45;&#45;cell 59 -->
<g id="edge58" class="edge"><title>cell 5A&#45;&#45;cell 59</title>
<path fill="none" stroke="black" d="M93.3202,-1042.85C97.7931,-1033.01 129.6,-963 129.6,-963 129.6,-963 133.41,-959.043 138.113,-954.159"/>
</g>
<!-- cell 17 -->
<g id="node19" class="node"><title>cell 17</title>
<polygon fill="none" stroke="black" points="183.6,-900 129.6,-900 129.6,-864 183.6,-864 183.6,-900"/>
<text text-anchor="middle" x="156.6" y="-878.3" font-family="Times New Roman,serif" font-size="14.00">cell 17</text>
</g>
<!-- cell 4A&#45;&#45;cell 17 -->
<g id="edge4" class="edge"><title>cell 4A&#45;&#45;cell 17</title>
<path fill="none" stroke="black" d="M93.3202,-775.145C97.7931,-784.99 129.6,-855 129.6,-855 129.6,-855 133.41,-858.957 138.113,-863.841"/>
</g>
<!-- cell 30 -->
<g id="node41" class="node"><title>cell 30</title>
<polygon fill="none" stroke="black" points="183.6,-846 129.6,-846 129.6,-810 183.6,-810 183.6,-846"/>
<text text-anchor="middle" x="156.6" y="-824.3" font-family="Times New Roman,serif" font-size="14.00">cell 30</text>
</g>
<!-- cell 4A&#45;&#45;cell 30 -->
<g id="edge25" class="edge"><title>cell 4A&#45;&#45;cell 30</title>
<path fill="none" stroke="black" d="M93.5053,-774.606C97.5479,-778.083 118.172,-795.816 134.558,-809.906"/>
</g>
<!-- cell 31 -->
<g id="node42" class="node"><title>cell 31</title>
<polygon fill="none" stroke="black" points="183.6,-792 129.6,-792 129.6,-756 183.6,-756 183.6,-792"/>
<text text-anchor="middle" x="156.6" y="-770.3" font-family="Times New Roman,serif" font-size="14.00">cell 31</text>
</g>
<!-- cell 4A&#45;&#45;cell 31 -->
<g id="edge26" class="edge"><title>cell 4A&#45;&#45;cell 31</title>
<path fill="none" stroke="black" d="M93.89,-774C98.2225,-774 114.71,-774 129.552,-774"/>
</g>
<!-- cell 51 -->
<g id="node63" class="node"><title>cell 51</title>
<polygon fill="none" stroke="black" points="183.6,-738 129.6,-738 129.6,-702 183.6,-702 183.6,-738"/>
<text text-anchor="middle" x="156.6" y="-716.3" font-family="Times New Roman,serif" font-size="14.00">cell 51</text>
</g>
<!-- cell 4A&#45;&#45;cell 51 -->
<g id="edge47" class="edge"><title>cell 4A&#45;&#45;cell 51</title>
<path fill="none" stroke="black" d="M93.5053,-773.394C97.5479,-769.917 118.172,-752.184 134.558,-738.094"/>
</g>
<!-- cell 55 -->
<g id="node68" class="node"><title>cell 55</title>
<polygon fill="none" stroke="black" points="183.6,-684 129.6,-684 129.6,-648 183.6,-648 183.6,-684"/>
<text text-anchor="middle" x="156.6" y="-662.3" font-family="Times New Roman,serif" font-size="14.00">cell 55</text>
</g>
<!-- cell 4A&#45;&#45;cell 55 -->
<g id="edge52" class="edge"><title>cell 4A&#45;&#45;cell 55</title>
<path fill="none" stroke="black" d="M93.3202,-772.855C97.7931,-763.01 129.6,-693 129.6,-693 129.6,-693 133.41,-689.043 138.113,-684.159"/>
</g>
<!-- cell 19 -->
<g id="node22" class="node"><title>cell 19</title>
<polygon fill="none" stroke="black" points="183.6,-630 129.6,-630 129.6,-594 183.6,-594 183.6,-630"/>
<text text-anchor="middle" x="156.6" y="-608.3" font-family="Times New Roman,serif" font-size="14.00">cell 19</text>
</g>
<!-- cell 19A -->
<g id="node51" class="node"><title>cell 19A</title>
<ellipse fill="black" stroke="black" cx="221.4" cy="-612" rx="1.8" ry="1.8"/>
</g>
<!-- cell 19&#45;&#45;cell 19A -->
<g id="edge34" class="edge"><title>cell 19&#45;&#45;cell 19A</title>
<path fill="none" stroke="black" d="M183.869,-612C198.927,-612 215.602,-612 219.536,-612"/>
</g>
<!-- cell 3A&#45;&#45;cell 19 -->
<g id="edge7" class="edge"><title>cell 3A&#45;&#45;cell 19</title>
<path fill="none" stroke="black" d="M93.5053,-558.606C97.5479,-562.083 118.172,-579.816 134.558,-593.906"/>
</g>
<!-- cell 32 -->
<g id="node43" class="node"><title>cell 32</title>
<polygon fill="none" stroke="black" points="183.6,-576 129.6,-576 129.6,-540 183.6,-540 183.6,-576"/>
<text text-anchor="middle" x="156.6" y="-554.3" font-family="Times New Roman,serif" font-size="14.00">cell 32</text>
</g>
<!-- cell 3A&#45;&#45;cell 32 -->
<g id="edge27" class="edge"><title>cell 3A&#45;&#45;cell 32</title>
<path fill="none" stroke="black" d="M93.89,-558C98.2225,-558 114.71,-558 129.552,-558"/>
</g>
<!-- cell 44 -->
<g id="node57" class="node"><title>cell 44</title>
<polygon fill="none" stroke="black" points="183.6,-522 129.6,-522 129.6,-486 183.6,-486 183.6,-522"/>
<text text-anchor="middle" x="156.6" y="-500.3" font-family="Times New Roman,serif" font-size="14.00">cell 44</text>
</g>
<!-- cell 3A&#45;&#45;cell 44 -->
<g id="edge41" class="edge"><title>cell 3A&#45;&#45;cell 44</title>
<path fill="none" stroke="black" d="M93.5053,-557.394C97.5479,-553.917 118.172,-536.184 134.558,-522.094"/>
</g>
<!-- cell 20 -->
<g id="node24" class="node"><title>cell 20</title>
<polygon fill="none" stroke="black" points="183.6,-252 129.6,-252 129.6,-216 183.6,-216 183.6,-252"/>
<text text-anchor="middle" x="156.6" y="-230.3" font-family="Times New Roman,serif" font-size="14.00">cell 20</text>
</g>
<!-- cell 0A&#45;&#45;cell 20 -->
<g id="edge9" class="edge"><title>cell 0A&#45;&#45;cell 20</title>
<path fill="none" stroke="black" d="M93.3202,-127.145C97.7931,-136.99 129.6,-207 129.6,-207 129.6,-207 133.41,-210.957 138.113,-215.841"/>
</g>
<!-- cell 28 -->
<g id="node39" class="node"><title>cell 28</title>
<polygon fill="none" stroke="black" points="183.6,-198 129.6,-198 129.6,-162 183.6,-162 183.6,-198"/>
<text text-anchor="middle" x="156.6" y="-176.3" font-family="Times New Roman,serif" font-size="14.00">cell 28</text>
</g>
<!-- cell 0A&#45;&#45;cell 28 -->
<g id="edge23" class="edge"><title>cell 0A&#45;&#45;cell 28</title>
<path fill="none" stroke="black" d="M93.5053,-126.606C97.5479,-130.083 118.172,-147.816 134.558,-161.906"/>
</g>
<!-- cell 29 -->
<g id="node40" class="node"><title>cell 29</title>
<polygon fill="none" stroke="black" points="183.6,-144 129.6,-144 129.6,-108 183.6,-108 183.6,-144"/>
<text text-anchor="middle" x="156.6" y="-122.3" font-family="Times New Roman,serif" font-size="14.00">cell 29</text>
</g>
<!-- cell 0A&#45;&#45;cell 29 -->
<g id="edge24" class="edge"><title>cell 0A&#45;&#45;cell 29</title>
<path fill="none" stroke="black" d="M93.89,-126C98.2225,-126 114.71,-126 129.552,-126"/>
</g>
<!-- cell 47 -->
<g id="node59" class="node"><title>cell 47</title>
<polygon fill="none" stroke="black" points="183.6,-90 129.6,-90 129.6,-54 183.6,-54 183.6,-90"/>
<text text-anchor="middle" x="156.6" y="-68.3" font-family="Times New Roman,serif" font-size="14.00">cell 47</text>
</g>
<!-- cell 0A&#45;&#45;cell 47 -->
<g id="edge43" class="edge"><title>cell 0A&#45;&#45;cell 47</title>
<path fill="none" stroke="black" d="M93.5053,-125.394C97.5479,-121.917 118.172,-104.184 134.558,-90.0939"/>
</g>
<!-- cell 53 -->
<g id="node65" class="node"><title>cell 53</title>
<polygon fill="none" stroke="black" points="183.6,-36 129.6,-36 129.6,-0 183.6,-0 183.6,-36"/>
<text text-anchor="middle" x="156.6" y="-14.3" font-family="Times New Roman,serif" font-size="14.00">cell 53</text>
</g>
<!-- cell 0A&#45;&#45;cell 53 -->
<g id="edge49" class="edge"><title>cell 0A&#45;&#45;cell 53</title>
<path fill="none" stroke="black" d="M93.3202,-124.855C97.7931,-115.01 129.6,-45 129.6,-45 129.6,-45 133.41,-41.0433 138.113,-36.1592"/>
</g>
<!-- cell 21 -->
<g id="node26" class="node"><title>cell 21</title>
<polygon fill="none" stroke="black" points="183.6,-2034 129.6,-2034 129.6,-1998 183.6,-1998 183.6,-2034"/>
<text text-anchor="middle" x="156.6" y="-2012.3" font-family="Times New Roman,serif" font-size="14.00">cell 21</text>
</g>
<!-- cell 13A&#45;&#45;cell 21 -->
<g id="edge11" class="edge"><title>cell 13A&#45;&#45;cell 21</title>
<path fill="none" stroke="black" d="M93.4387,-1935.94C98.3254,-1943.11 129.6,-1989 129.6,-1989 129.6,-1989 133.41,-1992.96 138.113,-1997.84"/>
</g>
<!-- cell 27 -->
<g id="node38" class="node"><title>cell 27</title>
<polygon fill="none" stroke="black" points="183.6,-1980 129.6,-1980 129.6,-1944 183.6,-1944 183.6,-1980"/>
<text text-anchor="middle" x="156.6" y="-1958.3" font-family="Times New Roman,serif" font-size="14.00">cell 27</text>
</g>
<!-- cell 13A&#45;&#45;cell 27 -->
<g id="edge22" class="edge"><title>cell 13A&#45;&#45;cell 27</title>
<path fill="none" stroke="black" d="M93.89,-1935.47C98.2225,-1937.33 114.71,-1944.42 129.552,-1950.8"/>
</g>
<!-- cell 39 -->
<g id="node52" class="node"><title>cell 39</title>
<polygon fill="none" stroke="black" points="183.6,-1926 129.6,-1926 129.6,-1890 183.6,-1890 183.6,-1926"/>
<text text-anchor="middle" x="156.6" y="-1904.3" font-family="Times New Roman,serif" font-size="14.00">cell 39</text>
</g>
<!-- cell 13A&#45;&#45;cell 39 -->
<g id="edge36" class="edge"><title>cell 13A&#45;&#45;cell 39</title>
<path fill="none" stroke="black" d="M93.89,-1934.53C98.2225,-1932.67 114.71,-1925.58 129.552,-1919.2"/>
</g>
<!-- cell 46 -->
<g id="node58" class="node"><title>cell 46</title>
<polygon fill="none" stroke="black" points="183.6,-1872 129.6,-1872 129.6,-1836 183.6,-1836 183.6,-1872"/>
<text text-anchor="middle" x="156.6" y="-1850.3" font-family="Times New Roman,serif" font-size="14.00">cell 46</text>
</g>
<!-- cell 13A&#45;&#45;cell 46 -->
<g id="edge42" class="edge"><title>cell 13A&#45;&#45;cell 46</title>
<path fill="none" stroke="black" d="M93.4387,-1934.06C98.3254,-1926.89 129.6,-1881 129.6,-1881 129.6,-1881 133.41,-1877.04 138.113,-1872.16"/>
</g>
<!-- cell 22 -->
<g id="node28" class="node"><title>cell 22</title>
<polygon fill="none" stroke="black" points="183.6,-1548 129.6,-1548 129.6,-1512 183.6,-1512 183.6,-1548"/>
<text text-anchor="middle" x="156.6" y="-1526.3" font-family="Times New Roman,serif" font-size="14.00">cell 22</text>
</g>
<!-- cell 8A&#45;&#45;cell 22 -->
<g id="edge13" class="edge"><title>cell 8A&#45;&#45;cell 22</title>
<path fill="none" stroke="black" d="M93.89,-1503.47C98.2225,-1505.33 114.71,-1512.42 129.552,-1518.8"/>
</g>
<!-- cell 36 -->
<g id="node48" class="node"><title>cell 36</title>
<polygon fill="none" stroke="black" points="183.6,-1494 129.6,-1494 129.6,-1458 183.6,-1458 183.6,-1494"/>
<text text-anchor="middle" x="156.6" y="-1472.3" font-family="Times New Roman,serif" font-size="14.00">cell 36</text>
</g>
<!-- cell 8A&#45;&#45;cell 36 -->
<g id="edge32" class="edge"><title>cell 8A&#45;&#45;cell 36</title>
<path fill="none" stroke="black" d="M93.89,-1502.53C98.2225,-1500.67 114.71,-1493.58 129.552,-1487.2"/>
</g>
<!-- cell 23 -->
<g id="node30" class="node"><title>cell 23</title>
<polygon fill="none" stroke="black" points="183.6,-360 129.6,-360 129.6,-324 183.6,-324 183.6,-360"/>
<text text-anchor="middle" x="156.6" y="-338.3" font-family="Times New Roman,serif" font-size="14.00">cell 23</text>
</g>
<!-- cell 1A&#45;&#45;cell 23 -->
<g id="edge15" class="edge"><title>cell 1A&#45;&#45;cell 23</title>
<path fill="none" stroke="black" d="M93.89,-315.469C98.2225,-317.331 114.71,-324.42 129.552,-330.801"/>
</g>
<!-- cell 40 -->
<g id="node53" class="node"><title>cell 40</title>
<polygon fill="none" stroke="black" points="183.6,-306 129.6,-306 129.6,-270 183.6,-270 183.6,-306"/>
<text text-anchor="middle" x="156.6" y="-284.3" font-family="Times New Roman,serif" font-size="14.00">cell 40</text>
</g>
<!-- cell 1A&#45;&#45;cell 40 -->
<g id="edge37" class="edge"><title>cell 1A&#45;&#45;cell 40</title>
<path fill="none" stroke="black" d="M93.89,-314.531C98.2225,-312.669 114.71,-305.58 129.552,-299.199"/>
</g>
<!-- cell 24 -->
<g id="node32" class="node"><title>cell 24</title>
<polygon fill="none" stroke="black" points="183.6,-1440 129.6,-1440 129.6,-1404 183.6,-1404 183.6,-1440"/>
<text text-anchor="middle" x="156.6" y="-1418.3" font-family="Times New Roman,serif" font-size="14.00">cell 24</text>
</g>
<!-- cell 7A&#45;&#45;cell 24 -->
<g id="edge17" class="edge"><title>cell 7A&#45;&#45;cell 24</title>
<path fill="none" stroke="black" d="M93.5053,-1368.61C97.5479,-1372.08 118.172,-1389.82 134.558,-1403.91"/>
</g>
<!-- cell 41 -->
<g id="node54" class="node"><title>cell 41</title>
<polygon fill="none" stroke="black" points="183.6,-1386 129.6,-1386 129.6,-1350 183.6,-1350 183.6,-1386"/>
<text text-anchor="middle" x="156.6" y="-1364.3" font-family="Times New Roman,serif" font-size="14.00">cell 41</text>
</g>
<!-- cell 7A&#45;&#45;cell 41 -->
<g id="edge38" class="edge"><title>cell 7A&#45;&#45;cell 41</title>
<path fill="none" stroke="black" d="M93.89,-1368C98.2225,-1368 114.71,-1368 129.552,-1368"/>
</g>
<!-- cell 52 -->
<g id="node64" class="node"><title>cell 52</title>
<polygon fill="none" stroke="black" points="183.6,-1332 129.6,-1332 129.6,-1296 183.6,-1296 183.6,-1332"/>
<text text-anchor="middle" x="156.6" y="-1310.3" font-family="Times New Roman,serif" font-size="14.00">cell 52</text>
</g>
<!-- cell 7A&#45;&#45;cell 52 -->
<g id="edge48" class="edge"><title>cell 7A&#45;&#45;cell 52</title>
<path fill="none" stroke="black" d="M93.5053,-1367.39C97.5479,-1363.92 118.172,-1346.18 134.558,-1332.09"/>
</g>
<!-- cell 25 -->
<g id="node34" class="node"><title>cell 25</title>
<polygon fill="none" stroke="black" points="183.6,-1710 129.6,-1710 129.6,-1674 183.6,-1674 183.6,-1710"/>
<text text-anchor="middle" x="156.6" y="-1688.3" font-family="Times New Roman,serif" font-size="14.00">cell 25</text>
</g>
<!-- cell 9A&#45;&#45;cell 25 -->
<g id="edge19" class="edge"><title>cell 9A&#45;&#45;cell 25</title>
<path fill="none" stroke="black" d="M93.5053,-1638.61C97.5479,-1642.08 118.172,-1659.82 134.558,-1673.91"/>
</g>
<!-- cell 42 -->
<g id="node55" class="node"><title>cell 42</title>
<polygon fill="none" stroke="black" points="183.6,-1656 129.6,-1656 129.6,-1620 183.6,-1620 183.6,-1656"/>
<text text-anchor="middle" x="156.6" y="-1634.3" font-family="Times New Roman,serif" font-size="14.00">cell 42</text>
</g>
<!-- cell 9A&#45;&#45;cell 42 -->
<g id="edge39" class="edge"><title>cell 9A&#45;&#45;cell 42</title>
<path fill="none" stroke="black" d="M93.89,-1638C98.2225,-1638 114.71,-1638 129.552,-1638"/>
</g>
<!-- cell 50 -->
<g id="node62" class="node"><title>cell 50</title>
<polygon fill="none" stroke="black" points="183.6,-1602 129.6,-1602 129.6,-1566 183.6,-1566 183.6,-1602"/>
<text text-anchor="middle" x="156.6" y="-1580.3" font-family="Times New Roman,serif" font-size="14.00">cell 50</text>
</g>
<!-- cell 9A&#45;&#45;cell 50 -->
<g id="edge46" class="edge"><title>cell 9A&#45;&#45;cell 50</title>
<path fill="none" stroke="black" d="M93.5053,-1637.39C97.5479,-1633.92 118.172,-1616.18 134.558,-1602.09"/>
</g>
<!-- cell 26 -->
<g id="node36" class="node"><title>cell 26</title>
<polygon fill="none" stroke="black" points="183.6,-1818 129.6,-1818 129.6,-1782 183.6,-1782 183.6,-1818"/>
<text text-anchor="middle" x="156.6" y="-1796.3" font-family="Times New Roman,serif" font-size="14.00">cell 26</text>
</g>
<!-- cell 10A&#45;&#45;cell 26 -->
<g id="edge21" class="edge"><title>cell 10A&#45;&#45;cell 26</title>
<path fill="none" stroke="black" d="M93.5053,-1746.61C97.5479,-1750.08 118.172,-1767.82 134.558,-1781.91"/>
</g>
<!-- cell 43 -->
<g id="node56" class="node"><title>cell 43</title>
<polygon fill="none" stroke="black" points="183.6,-1764 129.6,-1764 129.6,-1728 183.6,-1728 183.6,-1764"/>
<text text-anchor="middle" x="156.6" y="-1742.3" font-family="Times New Roman,serif" font-size="14.00">cell 43</text>
</g>
<!-- cell 10A&#45;&#45;cell 43 -->
<g id="edge40" class="edge"><title>cell 10A&#45;&#45;cell 43</title>
<path fill="none" stroke="black" d="M93.89,-1746C98.2225,-1746 114.71,-1746 129.552,-1746"/>
</g>
<!-- cell 32A -->
<g id="node72" class="node"><title>cell 32A</title>
<ellipse fill="black" stroke="black" cx="221.4" cy="-558" rx="1.8" ry="1.8"/>
</g>
<!-- cell 32&#45;&#45;cell 32A -->
<g id="edge55" class="edge"><title>cell 32&#45;&#45;cell 32A</title>
<path fill="none" stroke="black" d="M183.869,-558C198.927,-558 215.602,-558 219.536,-558"/>
</g>
<!-- cell 34 -->
<g id="node45" class="node"><title>cell 34</title>
<polygon fill="none" stroke="black" points="183.6,-468 129.6,-468 129.6,-432 183.6,-432 183.6,-468"/>
<text text-anchor="middle" x="156.6" y="-446.3" font-family="Times New Roman,serif" font-size="14.00">cell 34</text>
</g>
<!-- cell 2A&#45;&#45;cell 34 -->
<g id="edge30" class="edge"><title>cell 2A&#45;&#45;cell 34</title>
<path fill="none" stroke="black" d="M93.89,-423.469C98.2225,-425.331 114.71,-432.42 129.552,-438.801"/>
</g>
<!-- cell 35 -->
<g id="node47" class="node"><title>cell 35</title>
<polygon fill="none" stroke="black" points="183.6,-414 129.6,-414 129.6,-378 183.6,-378 183.6,-414"/>
<text text-anchor="middle" x="156.6" y="-392.3" font-family="Times New Roman,serif" font-size="14.00">cell 35</text>
</g>
<!-- cell 2A&#45;&#45;cell 35 -->
<g id="edge31" class="edge"><title>cell 2A&#45;&#45;cell 35</title>
<path fill="none" stroke="black" d="M93.89,-422.531C98.2225,-420.669 114.71,-413.58 129.552,-407.199"/>
</g>
<!-- cell 38 -->
<g id="node50" class="node"><title>cell 38</title>
<polygon fill="none" stroke="black" points="313.2,-630 259.2,-630 259.2,-594 313.2,-594 313.2,-630"/>
<text text-anchor="middle" x="286.2" y="-608.3" font-family="Times New Roman,serif" font-size="14.00">cell 38</text>
</g>
<!-- cell 19A&#45;&#45;cell 38 -->
<g id="edge35" class="edge"><title>cell 19A&#45;&#45;cell 38</title>
<path fill="none" stroke="black" d="M223.49,-612C227.822,-612 244.31,-612 259.152,-612"/>
</g>
<!-- cell 48 -->
<g id="node60" class="node"><title>cell 48</title>
<polygon fill="none" stroke="black" points="183.6,-1278 129.6,-1278 129.6,-1242 183.6,-1242 183.6,-1278"/>
<text text-anchor="middle" x="156.6" y="-1256.3" font-family="Times New Roman,serif" font-size="14.00">cell 48</text>
</g>
<!-- cell 6A&#45;&#45;cell 48 -->
<g id="edge45" class="edge"><title>cell 6A&#45;&#45;cell 48</title>
<path fill="none" stroke="black" d="M93.89,-1233.47C98.2225,-1235.33 114.71,-1242.42 129.552,-1248.8"/>
</g>
<!-- cell 60 -->
<g id="node75" class="node"><title>cell 60</title>
<polygon fill="none" stroke="black" points="183.6,-1224 129.6,-1224 129.6,-1188 183.6,-1188 183.6,-1224"/>
<text text-anchor="middle" x="156.6" y="-1202.3" font-family="Times New Roman,serif" font-size="14.00">cell 60</text>
</g>
<!-- cell 6A&#45;&#45;cell 60 -->
<g id="edge59" class="edge"><title>cell 6A&#45;&#45;cell 60</title>
<path fill="none" stroke="black" d="M93.89,-1232.53C98.2225,-1230.67 114.71,-1223.58 129.552,-1217.2"/>
</g>
<!-- cell 54 -->
<g id="node66" class="node"><title>cell 54</title>
<polygon fill="none" stroke="black" points="313.2,-1170 259.2,-1170 259.2,-1134 313.2,-1134 313.2,-1170"/>
<text text-anchor="middle" x="286.2" y="-1148.3" font-family="Times New Roman,serif" font-size="14.00">cell 54</text>
</g>
<!-- cell 16A&#45;&#45;cell 54 -->
<g id="edge51" class="edge"><title>cell 16A&#45;&#45;cell 54</title>
<path fill="none" stroke="black" d="M223.49,-1152C227.822,-1152 244.31,-1152 259.152,-1152"/>
</g>
<!-- cell 56 -->
<g id="node69" class="node"><title>cell 56</title>
<polygon fill="none" stroke="black" points="183.6,-2142 129.6,-2142 129.6,-2106 183.6,-2106 183.6,-2142"/>
<text text-anchor="middle" x="156.6" y="-2120.3" font-family="Times New Roman,serif" font-size="14.00">cell 56</text>
</g>
<!-- cell 14A&#45;&#45;cell 56 -->
<g id="edge54" class="edge"><title>cell 14A&#45;&#45;cell 56</title>
<path fill="none" stroke="black" d="M93.89,-2097.47C98.2225,-2099.33 114.71,-2106.42 129.552,-2112.8"/>
</g>
<!-- cell 58 -->
<g id="node73" class="node"><title>cell 58</title>
<polygon fill="none" stroke="black" points="183.6,-2088 129.6,-2088 129.6,-2052 183.6,-2052 183.6,-2088"/>
<text text-anchor="middle" x="156.6" y="-2066.3" font-family="Times New Roman,serif" font-size="14.00">cell 58</text>
</g>
<!-- cell 14A&#45;&#45;cell 58 -->
<g id="edge57" class="edge"><title>cell 14A&#45;&#45;cell 58</title>
<path fill="none" stroke="black" d="M93.89,-2096.53C98.2225,-2094.67 114.71,-2087.58 129.552,-2081.2"/>
</g>
<!-- cell 57 -->
<g id="node71" class="node"><title>cell 57</title>
<polygon fill="none" stroke="black" points="313.2,-576 259.2,-576 259.2,-540 313.2,-540 313.2,-576"/>
<text text-anchor="middle" x="286.2" y="-554.3" font-family="Times New Roman,serif" font-size="14.00">cell 57</text>
</g>
<!-- cell 32A&#45;&#45;cell 57 -->
<g id="edge56" class="edge"><title>cell 32A&#45;&#45;cell 57</title>
<path fill="none" stroke="black" d="M223.49,-558C227.822,-558 244.31,-558 259.152,-558"/>
</g>
</g>
</svg>
