<?xml version="1.0" encoding="UTF-8" standalone="no"?>
<!DOCTYPE svg PUBLIC "-//W3C//DTD SVG 1.1//EN"
 "http://www.w3.org/Graphics/SVG/1.1/DTD/svg11.dtd">
<!-- Generated by graphviz version 2.38.0 (20140413.2041)
 -->
<!-- Title: %3 Pages: 1 -->
<svg width="242pt" height="2177pt"
 viewBox="0.00 0.00 242.00 2177.00" xmlns="http://www.w3.org/2000/svg" xmlns:xlink="http://www.w3.org/1999/xlink">
<g id="graph0" class="graph" transform="scale(1 1) rotate(0) translate(4 2173)">
<title>%3</title>
<polygon fill="white" stroke="none" points="-4,4 -4,-2173 238,-2173 238,4 -4,4"/>
<!-- cell 0 -->
<g id="node1" class="node"><title>cell 0</title>
<polygon fill="none" stroke="black" points="54,-144 0,-144 0,-108 54,-108 54,-144"/>
<text text-anchor="middle" x="27" y="-122.3" font-family="Times New Roman,serif" font-size="14.00">cell 0</text>
</g>
<!-- cell 20 -->
<g id="node21" class="node"><title>cell 20</title>
<polygon fill="none" stroke="black" points="144,-252 90,-252 90,-216 144,-216 144,-252"/>
<text text-anchor="middle" x="117" y="-230.3" font-family="Times New Roman,serif" font-size="14.00">cell 20</text>
</g>
<!-- cell 0&#45;&#45;cell 20 -->
<g id="edge5" class="edge"><title>cell 0&#45;&#45;cell 20</title>
<path fill="none" stroke="black" d="M42.0688,-144.38C60.3614,-168.279 90,-207 90,-207 90,-207 93.8102,-210.957 98.5134,-215.841"/>
</g>
<!-- cell 28 -->
<g id="node29" class="node"><title>cell 28</title>
<polygon fill="none" stroke="black" points="144,-198 90,-198 90,-162 144,-162 144,-198"/>
<text text-anchor="middle" x="117" y="-176.3" font-family="Times New Roman,serif" font-size="14.00">cell 28</text>
</g>
<!-- cell 0&#45;&#45;cell 28 -->
<g id="edge13" class="edge"><title>cell 0&#45;&#45;cell 28</title>
<path fill="none" stroke="black" d="M54.4029,-142.202C65.6421,-149.099 78.7152,-157.121 89.919,-163.996"/>
</g>
<!-- cell 29 -->
<g id="node30" class="node"><title>cell 29</title>
<polygon fill="none" stroke="black" points="144,-144 90,-144 90,-108 144,-108 144,-144"/>
<text text-anchor="middle" x="117" y="-122.3" font-family="Times New Roman,serif" font-size="14.00">cell 29</text>
</g>
<!-- cell 0&#45;&#45;cell 29 -->
<g id="edge14" class="edge"><title>cell 0&#45;&#45;cell 29</title>
<path fill="none" stroke="black" d="M54.4029,-126C65.6421,-126 78.7152,-126 89.919,-126"/>
</g>
<!-- cell 47 -->
<g id="node47" class="node"><title>cell 47</title>
<polygon fill="none" stroke="black" points="144,-90 90,-90 90,-54 144,-54 144,-90"/>
<text text-anchor="middle" x="117" y="-68.3" font-family="Times New Roman,serif" font-size="14.00">cell 47</text>
</g>
<!-- cell 0&#45;&#45;cell 47 -->
<g id="edge31" class="edge"><title>cell 0&#45;&#45;cell 47</title>
<path fill="none" stroke="black" d="M54.4029,-109.798C65.6421,-102.901 78.7152,-94.8793 89.919,-88.0043"/>
</g>
<!-- cell 53 -->
<g id="node52" class="node"><title>cell 53</title>
<polygon fill="none" stroke="black" points="144,-36 90,-36 90,-0 144,-0 144,-36"/>
<text text-anchor="middle" x="117" y="-14.3" font-family="Times New Roman,serif" font-size="14.00">cell 53</text>
</g>
<!-- cell 0&#45;&#45;cell 53 -->
<g id="edge36" class="edge"><title>cell 0&#45;&#45;cell 53</title>
<path fill="none" stroke="black" d="M42.0688,-107.62C60.3614,-83.7215 90,-45 90,-45 90,-45 93.8102,-41.0433 98.5134,-36.1592"/>
</g>
<!-- cell 1 -->
<g id="node2" class="node"><title>cell 1</title>
<polygon fill="none" stroke="black" points="54,-333 0,-333 0,-297 54,-297 54,-333"/>
<text text-anchor="middle" x="27" y="-311.3" font-family="Times New Roman,serif" font-size="14.00">cell 1</text>
</g>
<!-- cell 23 -->
<g id="node24" class="node"><title>cell 23</title>
<polygon fill="none" stroke="black" points="144,-360 90,-360 90,-324 144,-324 144,-360"/>
<text text-anchor="middle" x="117" y="-338.3" font-family="Times New Roman,serif" font-size="14.00">cell 23</text>
</g>
<!-- cell 1&#45;&#45;cell 23 -->
<g id="edge8" class="edge"><title>cell 1&#45;&#45;cell 23</title>
<path fill="none" stroke="black" d="M54.4029,-323.101C65.6421,-326.549 78.7152,-330.56 89.919,-333.998"/>
</g>
<!-- cell 40 -->
<g id="node41" class="node"><title>cell 40</title>
<polygon fill="none" stroke="black" points="144,-306 90,-306 90,-270 144,-270 144,-306"/>
<text text-anchor="middle" x="117" y="-284.3" font-family="Times New Roman,serif" font-size="14.00">cell 40</text>
</g>
<!-- cell 1&#45;&#45;cell 40 -->
<g id="edge25" class="edge"><title>cell 1&#45;&#45;cell 40</title>
<path fill="none" stroke="black" d="M54.4029,-306.899C65.6421,-303.451 78.7152,-299.44 89.919,-296.002"/>
</g>
<!-- cell 2 -->
<g id="node3" class="node"><title>cell 2</title>
<polygon fill="none" stroke="black" points="54,-441 0,-441 0,-405 54,-405 54,-441"/>
<text text-anchor="middle" x="27" y="-419.3" font-family="Times New Roman,serif" font-size="14.00">cell 2</text>
</g>
<!-- cell 34 -->
<g id="node35" class="node"><title>cell 34</title>
<polygon fill="none" stroke="black" points="144,-468 90,-468 90,-432 144,-432 144,-468"/>
<text text-anchor="middle" x="117" y="-446.3" font-family="Times New Roman,serif" font-size="14.00">cell 34</text>
</g>
<!-- cell 2&#45;&#45;cell 34 -->
<g id="edge19" class="edge"><title>cell 2&#45;&#45;cell 34</title>
<path fill="none" stroke="black" d="M54.4029,-431.101C65.6421,-434.549 78.7152,-438.56 89.919,-441.998"/>
</g>
<!-- cell 35 -->
<g id="node36" class="node"><title>cell 35</title>
<polygon fill="none" stroke="black" points="144,-414 90,-414 90,-378 144,-378 144,-414"/>
<text text-anchor="middle" x="117" y="-392.3" font-family="Times New Roman,serif" font-size="14.00">cell 35</text>
</g>
<!-- cell 2&#45;&#45;cell 35 -->
<g id="edge20" class="edge"><title>cell 2&#45;&#45;cell 35</title>
<path fill="none" stroke="black" d="M54.4029,-414.899C65.6421,-411.451 78.7152,-407.44 89.919,-404.002"/>
</g>
<!-- cell 3 -->
<g id="node4" class="node"><title>cell 3</title>
<polygon fill="none" stroke="black" points="54,-576 0,-576 0,-540 54,-540 54,-576"/>
<text text-anchor="middle" x="27" y="-554.3" font-family="Times New Roman,serif" font-size="14.00">cell 3</text>
</g>
<!-- cell 19 -->
<g id="node20" class="node"><title>cell 19</title>
<polygon fill="none" stroke="black" points="144,-630 90,-630 90,-594 144,-594 144,-630"/>
<text text-anchor="middle" x="117" y="-608.3" font-family="Times New Roman,serif" font-size="14.00">cell 19</text>
</g>
<!-- cell 3&#45;&#45;cell 19 -->
<g id="edge4" class="edge"><title>cell 3&#45;&#45;cell 19</title>
<path fill="none" stroke="black" d="M54.4029,-574.202C65.6421,-581.099 78.7152,-589.121 89.919,-595.996"/>
</g>
<!-- cell 32 -->
<g id="node33" class="node"><title>cell 32</title>
<polygon fill="none" stroke="black" points="144,-576 90,-576 90,-540 144,-540 144,-576"/>
<text text-anchor="middle" x="117" y="-554.3" font-family="Times New Roman,serif" font-size="14.00">cell 32</text>
</g>
<!-- cell 3&#45;&#45;cell 32 -->
<g id="edge17" class="edge"><title>cell 3&#45;&#45;cell 32</title>
<path fill="none" stroke="black" d="M54.4029,-558C65.6421,-558 78.7152,-558 89.919,-558"/>
</g>
<!-- cell 44 -->
<g id="node45" class="node"><title>cell 44</title>
<polygon fill="none" stroke="black" points="144,-522 90,-522 90,-486 144,-486 144,-522"/>
<text text-anchor="middle" x="117" y="-500.3" font-family="Times New Roman,serif" font-size="14.00">cell 44</text>
</g>
<!-- cell 3&#45;&#45;cell 44 -->
<g id="edge29" class="edge"><title>cell 3&#45;&#45;cell 44</title>
<path fill="none" stroke="black" d="M54.4029,-541.798C65.6421,-534.901 78.7152,-526.879 89.919,-520.004"/>
</g>
<!-- cell 4 -->
<g id="node5" class="node"><title>cell 4</title>
<polygon fill="none" stroke="black" points="54,-792 0,-792 0,-756 54,-756 54,-792"/>
<text text-anchor="middle" x="27" y="-770.3" font-family="Times New Roman,serif" font-size="14.00">cell 4</text>
</g>
<!-- cell 17 -->
<g id="node18" class="node"><title>cell 17</title>
<polygon fill="none" stroke="black" points="144,-900 90,-900 90,-864 144,-864 144,-900"/>
<text text-anchor="middle" x="117" y="-878.3" font-family="Times New Roman,serif" font-size="14.00">cell 17</text>
</g>
<!-- cell 4&#45;&#45;cell 17 -->
<g id="edge2" class="edge"><title>cell 4&#45;&#45;cell 17</title>
<path fill="none" stroke="black" d="M42.0688,-792.38C60.3614,-816.279 90,-855 90,-855 90,-855 93.8102,-858.957 98.5134,-863.841"/>
</g>
<!-- cell 30 -->
<g id="node31" class="node"><title>cell 30</title>
<polygon fill="none" stroke="black" points="144,-846 90,-846 90,-810 144,-810 144,-846"/>
<text text-anchor="middle" x="117" y="-824.3" font-family="Times New Roman,serif" font-size="14.00">cell 30</text>
</g>
<!-- cell 4&#45;&#45;cell 30 -->
<g id="edge15" class="edge"><title>cell 4&#45;&#45;cell 30</title>
<path fill="none" stroke="black" d="M54.4029,-790.202C65.6421,-797.099 78.7152,-805.121 89.919,-811.996"/>
</g>
<!-- cell 31 -->
<g id="node32" class="node"><title>cell 31</title>
<polygon fill="none" stroke="black" points="144,-792 90,-792 90,-756 144,-756 144,-792"/>
<text text-anchor="middle" x="117" y="-770.3" font-family="Times New Roman,serif" font-size="14.00">cell 31</text>
</g>
<!-- cell 4&#45;&#45;cell 31 -->
<g id="edge16" class="edge"><title>cell 4&#45;&#45;cell 31</title>
<path fill="none" stroke="black" d="M54.4029,-774C65.6421,-774 78.7152,-774 89.919,-774"/>
</g>
<!-- cell 51 -->
<g id="node50" class="node"><title>cell 51</title>
<polygon fill="none" stroke="black" points="144,-738 90,-738 90,-702 144,-702 144,-738"/>
<text text-anchor="middle" x="117" y="-716.3" font-family="Times New Roman,serif" font-size="14.00">cell 51</text>
</g>
<!-- cell 4&#45;&#45;cell 51 -->
<g id="edge34" class="edge"><title>cell 4&#45;&#45;cell 51</title>
<path fill="none" stroke="black" d="M54.4029,-757.798C65.6421,-750.901 78.7152,-742.879 89.919,-736.004"/>
</g>
<!-- cell 55 -->
<g id="node54" class="node"><title>cell 55</title>
<polygon fill="none" stroke="black" points="144,-684 90,-684 90,-648 144,-648 144,-684"/>
<text text-anchor="middle" x="117" y="-662.3" font-family="Times New Roman,serif" font-size="14.00">cell 55</text>
</g>
<!-- cell 4&#45;&#45;cell 55 -->
<g id="edge38" class="edge"><title>cell 4&#45;&#45;cell 55</title>
<path fill="none" stroke="black" d="M42.0688,-755.62C60.3614,-731.721 90,-693 90,-693 90,-693 93.8102,-689.043 98.5134,-684.159"/>
</g>
<!-- cell 5 -->
<g id="node6" class="node"><title>cell 5</title>
<polygon fill="none" stroke="black" points="54,-1062 0,-1062 0,-1026 54,-1026 54,-1062"/>
<text text-anchor="middle" x="27" y="-1040.3" font-family="Times New Roman,serif" font-size="14.00">cell 5</text>
</g>
<!-- cell 16 -->
<g id="node17" class="node"><title>cell 16</title>
<polygon fill="none" stroke="black" points="144,-1170 90,-1170 90,-1134 144,-1134 144,-1170"/>
<text text-anchor="middle" x="117" y="-1148.3" font-family="Times New Roman,serif" font-size="14.00">cell 16</text>
</g>
<!-- cell 5&#45;&#45;cell 16 -->
<g id="edge1" class="edge"><title>cell 5&#45;&#45;cell 16</title>
<path fill="none" stroke="black" d="M42.0688,-1062.38C60.3614,-1086.28 90,-1125 90,-1125 90,-1125 93.8102,-1128.96 98.5134,-1133.84"/>
</g>
<!-- cell 18 -->
<g id="node19" class="node"><title>cell 18</title>
<polygon fill="none" stroke="black" points="144,-1116 90,-1116 90,-1080 144,-1080 144,-1116"/>
<text text-anchor="middle" x="117" y="-1094.3" font-family="Times New Roman,serif" font-size="14.00">cell 18</text>
</g>
<!-- cell 5&#45;&#45;cell 18 -->
<g id="edge3" class="edge"><title>cell 5&#45;&#45;cell 18</title>
<path fill="none" stroke="black" d="M54.4029,-1060.2C65.6421,-1067.1 78.7152,-1075.12 89.919,-1082"/>
</g>
<!-- cell 33 -->
<g id="node34" class="node"><title>cell 33</title>
<polygon fill="none" stroke="black" points="144,-1062 90,-1062 90,-1026 144,-1026 144,-1062"/>
<text text-anchor="middle" x="117" y="-1040.3" font-family="Times New Roman,serif" font-size="14.00">cell 33</text>
</g>
<!-- cell 5&#45;&#45;cell 33 -->
<g id="edge18" class="edge"><title>cell 5&#45;&#45;cell 33</title>
<path fill="none" stroke="black" d="M54.4029,-1044C65.6421,-1044 78.7152,-1044 89.919,-1044"/>
</g>
<!-- cell 37 -->
<g id="node38" class="node"><title>cell 37</title>
<polygon fill="none" stroke="black" points="144,-1008 90,-1008 90,-972 144,-972 144,-1008"/>
<text text-anchor="middle" x="117" y="-986.3" font-family="Times New Roman,serif" font-size="14.00">cell 37</text>
</g>
<!-- cell 5&#45;&#45;cell 37 -->
<g id="edge22" class="edge"><title>cell 5&#45;&#45;cell 37</title>
<path fill="none" stroke="black" d="M54.4029,-1027.8C65.6421,-1020.9 78.7152,-1012.88 89.919,-1006"/>
</g>
<!-- cell 59 -->
<g id="node58" class="node"><title>cell 59</title>
<polygon fill="none" stroke="black" points="144,-954 90,-954 90,-918 144,-918 144,-954"/>
<text text-anchor="middle" x="117" y="-932.3" font-family="Times New Roman,serif" font-size="14.00">cell 59</text>
</g>
<!-- cell 5&#45;&#45;cell 59 -->
<g id="edge42" class="edge"><title>cell 5&#45;&#45;cell 59</title>
<path fill="none" stroke="black" d="M42.0688,-1025.62C60.3614,-1001.72 90,-963 90,-963 90,-963 93.8102,-959.043 98.5134,-954.159"/>
</g>
<!-- cell 6 -->
<g id="node7" class="node"><title>cell 6</title>
<polygon fill="none" stroke="black" points="54,-1251 0,-1251 0,-1215 54,-1215 54,-1251"/>
<text text-anchor="middle" x="27" y="-1229.3" font-family="Times New Roman,serif" font-size="14.00">cell 6</text>
</g>
<!-- cell 48 -->
<g id="node48" class="node"><title>cell 48</title>
<polygon fill="none" stroke="black" points="144,-1278 90,-1278 90,-1242 144,-1242 144,-1278"/>
<text text-anchor="middle" x="117" y="-1256.3" font-family="Times New Roman,serif" font-size="14.00">cell 48</text>
</g>
<!-- cell 6&#45;&#45;cell 48 -->
<g id="edge32" class="edge"><title>cell 6&#45;&#45;cell 48</title>
<path fill="none" stroke="black" d="M54.4029,-1241.1C65.6421,-1244.55 78.7152,-1248.56 89.919,-1252"/>
</g>
<!-- cell 60 -->
<g id="node59" class="node"><title>cell 60</title>
<polygon fill="none" stroke="black" points="144,-1224 90,-1224 90,-1188 144,-1188 144,-1224"/>
<text text-anchor="middle" x="117" y="-1202.3" font-family="Times New Roman,serif" font-size="14.00">cell 60</text>
</g>
<!-- cell 6&#45;&#45;cell 60 -->
<g id="edge43" class="edge"><title>cell 6&#45;&#45;cell 60</title>
<path fill="none" stroke="black" d="M54.4029,-1224.9C65.6421,-1221.45 78.7152,-1217.44 89.919,-1214"/>
</g>
<!-- cell 7 -->
<g id="node8" class="node"><title>cell 7</title>
<polygon fill="none" stroke="black" points="54,-1386 0,-1386 0,-1350 54,-1350 54,-1386"/>
<text text-anchor="middle" x="27" y="-1364.3" font-family="Times New Roman,serif" font-size="14.00">cell 7</text>
</g>
<!-- cell 24 -->
<g id="node25" class="node"><title>cell 24</title>
<polygon fill="none" stroke="black" points="144,-1440 90,-1440 90,-1404 144,-1404 144,-1440"/>
<text text-anchor="middle" x="117" y="-1418.3" font-family="Times New Roman,serif" font-size="14.00">cell 24</text>
</g>
<!-- cell 7&#45;&#45;cell 24 -->
<g id="edge9" class="edge"><title>cell 7&#45;&#45;cell 24</title>
<path fill="none" stroke="black" d="M54.4029,-1384.2C65.6421,-1391.1 78.7152,-1399.12 89.919,-1406"/>
</g>
<!-- cell 41 -->
<g id="node42" class="node"><title>cell 41</title>
<polygon fill="none" stroke="black" points="144,-1386 90,-1386 90,-1350 144,-1350 144,-1386"/>
<text text-anchor="middle" x="117" y="-1364.3" font-family="Times New Roman,serif" font-size="14.00">cell 41</text>
</g>
<!-- cell 7&#45;&#45;cell 41 -->
<g id="edge26" class="edge"><title>cell 7&#45;&#45;cell 41</title>
<path fill="none" stroke="black" d="M54.4029,-1368C65.6421,-1368 78.7152,-1368 89.919,-1368"/>
</g>
<!-- cell 52 -->
<g id="node51" class="node"><title>cell 52</title>
<polygon fill="none" stroke="black" points="144,-1332 90,-1332 90,-1296 144,-1296 144,-1332"/>
<text text-anchor="middle" x="117" y="-1310.3" font-family="Times New Roman,serif" font-size="14.00">cell 52</text>
</g>
<!-- cell 7&#45;&#45;cell 52 -->
<g id="edge35" class="edge"><title>cell 7&#45;&#45;cell 52</title>
<path fill="none" stroke="black" d="M54.4029,-1351.8C65.6421,-1344.9 78.7152,-1336.88 89.919,-1330"/>
</g>
<!-- cell 8 -->
<g id="node9" class="node"><title>cell 8</title>
<polygon fill="none" stroke="black" points="54,-1521 0,-1521 0,-1485 54,-1485 54,-1521"/>
<text text-anchor="middle" x="27" y="-1499.3" font-family="Times New Roman,serif" font-size="14.00">cell 8</text>
</g>
<!-- cell 22 -->
<g id="node23" class="node"><title>cell 22</title>
<polygon fill="none" stroke="black" points="144,-1548 90,-1548 90,-1512 144,-1512 144,-1548"/>
<text text-anchor="middle" x="117" y="-1526.3" font-family="Times New Roman,serif" font-size="14.00">cell 22</text>
</g>
<!-- cell 8&#45;&#45;cell 22 -->
<g id="edge7" class="edge"><title>cell 8&#45;&#45;cell 22</title>
<path fill="none" stroke="black" d="M54.4029,-1511.1C65.6421,-1514.55 78.7152,-1518.56 89.919,-1522"/>
</g>
<!-- cell 36 -->
<g id="node37" class="node"><title>cell 36</title>
<polygon fill="none" stroke="black" points="144,-1494 90,-1494 90,-1458 144,-1458 144,-1494"/>
<text text-anchor="middle" x="117" y="-1472.3" font-family="Times New Roman,serif" font-size="14.00">cell 36</text>
</g>
<!-- cell 8&#45;&#45;cell 36 -->
<g id="edge21" class="edge"><title>cell 8&#45;&#45;cell 36</title>
<path fill="none" stroke="black" d="M54.4029,-1494.9C65.6421,-1491.45 78.7152,-1487.44 89.919,-1484"/>
</g>
<!-- cell 9 -->
<g id="node10" class="node"><title>cell 9</title>
<polygon fill="none" stroke="black" points="54,-1656 0,-1656 0,-1620 54,-1620 54,-1656"/>
<text text-anchor="middle" x="27" y="-1634.3" font-family="Times New Roman,serif" font-size="14.00">cell 9</text>
</g>
<!-- cell 25 -->
<g id="node26" class="node"><title>cell 25</title>
<polygon fill="none" stroke="black" points="144,-1710 90,-1710 90,-1674 144,-1674 144,-1710"/>
<text text-anchor="middle" x="117" y="-1688.3" font-family="Times New Roman,serif" font-size="14.00">cell 25</text>
</g>
<!-- cell 9&#45;&#45;cell 25 -->
<g id="edge10" class="edge"><title>cell 9&#45;&#45;cell 25</title>
<path fill="none" stroke="black" d="M54.4029,-1654.2C65.6421,-1661.1 78.7152,-1669.12 89.919,-1676"/>
</g>
<!-- cell 42 -->
<g id="node43" class="node"><title>cell 42</title>
<polygon fill="none" stroke="black" points="144,-1656 90,-1656 90,-1620 144,-1620 144,-1656"/>
<text text-anchor="middle" x="117" y="-1634.3" font-family="Times New Roman,serif" font-size="14.00">cell 42</text>
</g>
<!-- cell 9&#45;&#45;cell 42 -->
<g id="edge27" class="edge"><title>cell 9&#45;&#45;cell 42</title>
<path fill="none" stroke="black" d="M54.4029,-1638C65.6421,-1638 78.7152,-1638 89.919,-1638"/>
</g>
<!-- cell 50 -->
<g id="node49" class="node"><title>cell 50</title>
<polygon fill="none" stroke="black" points="144,-1602 90,-1602 90,-1566 144,-1566 144,-1602"/>
<text text-anchor="middle" x="117" y="-1580.3" font-family="Times New Roman,serif" font-size="14.00">cell 50</text>
</g>
<!-- cell 9&#45;&#45;cell 50 -->
<g id="edge33" class="edge"><title>cell 9&#45;&#45;cell 50</title>
<path fill="none" stroke="black" d="M54.4029,-1621.8C65.6421,-1614.9 78.7152,-1606.88 89.919,-1600"/>
</g>
<!-- cell 10 -->
<g id="node11" class="node"><title>cell 10</title>
<polygon fill="none" stroke="black" points="54,-1764 0,-1764 0,-1728 54,-1728 54,-1764"/>
<text text-anchor="middle" x="27" y="-1742.3" font-family="Times New Roman,serif" font-size="14.00">cell 10</text>
</g>
<!-- cell 26 -->
<g id="node27" class="node"><title>cell 26</title>
<polygon fill="none" stroke="black" points="144,-1818 90,-1818 90,-1782 144,-1782 144,-1818"/>
<text text-anchor="middle" x="117" y="-1796.3" font-family="Times New Roman,serif" font-size="14.00">cell 26</text>
</g>
<!-- cell 10&#45;&#45;cell 26 -->
<g id="edge11" class="edge"><title>cell 10&#45;&#45;cell 26</title>
<path fill="none" stroke="black" d="M54.4029,-1762.2C65.6421,-1769.1 78.7152,-1777.12 89.919,-1784"/>
</g>
<!-- cell 43 -->
<g id="node44" class="node"><title>cell 43</title>
<polygon fill="none" stroke="black" points="144,-1764 90,-1764 90,-1728 144,-1728 144,-1764"/>
<text text-anchor="middle" x="117" y="-1742.3" font-family="Times New Roman,serif" font-size="14.00">cell 43</text>
</g>
<!-- cell 10&#45;&#45;cell 43 -->
<g id="edge28" class="edge"><title>cell 10&#45;&#45;cell 43</title>
<path fill="none" stroke="black" d="M54.4029,-1746C65.6421,-1746 78.7152,-1746 89.919,-1746"/>
</g>
<!-- cell 11 -->
<g id="node12" class="node"><title>cell 11</title>
<polygon fill="none" stroke="black" points="54,-1818 0,-1818 0,-1782 54,-1782 54,-1818"/>
<text text-anchor="middle" x="27" y="-1796.3" font-family="Times New Roman,serif" font-size="14.00">cell 11</text>
</g>
<!-- cell 12 -->
<g id="node13" class="node"><title>cell 12</title>
<polygon fill="none" stroke="black" points="54,-1872 0,-1872 0,-1836 54,-1836 54,-1872"/>
<text text-anchor="middle" x="27" y="-1850.3" font-family="Times New Roman,serif" font-size="14.00">cell 12</text>
</g>
<!-- cell 13 -->
<g id="node14" class="node"><title>cell 13</title>
<polygon fill="none" stroke="black" points="54,-1953 0,-1953 0,-1917 54,-1917 54,-1953"/>
<text text-anchor="middle" x="27" y="-1931.3" font-family="Times New Roman,serif" font-size="14.00">cell 13</text>
</g>
<!-- cell 21 -->
<g id="node22" class="node"><title>cell 21</title>
<polygon fill="none" stroke="black" points="144,-2034 90,-2034 90,-1998 144,-1998 144,-2034"/>
<text text-anchor="middle" x="117" y="-2012.3" font-family="Times New Roman,serif" font-size="14.00">cell 21</text>
</g>
<!-- cell 13&#45;&#45;cell 21 -->
<g id="edge6" class="edge"><title>cell 13&#45;&#45;cell 21</title>
<path fill="none" stroke="black" d="M47.9686,-1953.38C62.4717,-1966.73 81.9998,-1984.7 96.4136,-1997.97"/>
</g>
<!-- cell 27 -->
<g id="node28" class="node"><title>cell 27</title>
<polygon fill="none" stroke="black" points="144,-1980 90,-1980 90,-1944 144,-1944 144,-1980"/>
<text text-anchor="middle" x="117" y="-1958.3" font-family="Times New Roman,serif" font-size="14.00">cell 27</text>
</g>
<!-- cell 13&#45;&#45;cell 27 -->
<g id="edge12" class="edge"><title>cell 13&#45;&#45;cell 27</title>
<path fill="none" stroke="black" d="M54.4029,-1943.1C65.6421,-1946.55 78.7152,-1950.56 89.919,-1954"/>
</g>
<!-- cell 39 -->
<g id="node40" class="node"><title>cell 39</title>
<polygon fill="none" stroke="black" points="144,-1926 90,-1926 90,-1890 144,-1890 144,-1926"/>
<text text-anchor="middle" x="117" y="-1904.3" font-family="Times New Roman,serif" font-size="14.00">cell 39</text>
</g>
<!-- cell 13&#45;&#45;cell 39 -->
<g id="edge24" class="edge"><title>cell 13&#45;&#45;cell 39</title>
<path fill="none" stroke="black" d="M54.4029,-1926.9C65.6421,-1923.45 78.7152,-1919.44 89.919,-1916"/>
</g>
<!-- cell 46 -->
<g id="node46" class="node"><title>cell 46</title>
<polygon fill="none" stroke="black" points="144,-1872 90,-1872 90,-1836 144,-1836 144,-1872"/>
<text text-anchor="middle" x="117" y="-1850.3" font-family="Times New Roman,serif" font-size="14.00">cell 46</text>
</g>
<!-- cell 13&#45;&#45;cell 46 -->
<g id="edge30" class="edge"><title>cell 13&#45;&#45;cell 46</title>
<path fill="none" stroke="black" d="M47.9686,-1916.62C62.4717,-1903.27 81.9998,-1885.3 96.4136,-1872.03"/>
</g>
<!-- cell 14 -->
<g id="node15" class="node"><title>cell 14</title>
<polygon fill="none" stroke="black" points="54,-2115 0,-2115 0,-2079 54,-2079 54,-2115"/>
<text text-anchor="middle" x="27" y="-2093.3" font-family="Times New Roman,serif" font-size="14.00">cell 14</text>
</g>
<!-- cell 56 -->
<g id="node55" class="node"><title>cell 56</title>
<polygon fill="none" stroke="black" points="144,-2142 90,-2142 90,-2106 144,-2106 144,-2142"/>
<text text-anchor="middle" x="117" y="-2120.3" font-family="Times New Roman,serif" font-size="14.00">cell 56</text>
</g>
<!-- cell 14&#45;&#45;cell 56 -->
<g id="edge39" class="edge"><title>cell 14&#45;&#45;cell 56</title>
<path fill="none" stroke="black" d="M54.4029,-2105.1C65.6421,-2108.55 78.7152,-2112.56 89.919,-2116"/>
</g>
<!-- cell 58 -->
<g id="node57" class="node"><title>cell 58</title>
<polygon fill="none" stroke="black" points="144,-2088 90,-2088 90,-2052 144,-2052 144,-2088"/>
<text text-anchor="middle" x="117" y="-2066.3" font-family="Times New Roman,serif" font-size="14.00">cell 58</text>
</g>
<!-- cell 14&#45;&#45;cell 58 -->
<g id="edge41" class="edge"><title>cell 14&#45;&#45;cell 58</title>
<path fill="none" stroke="black" d="M54.4029,-2088.9C65.6421,-2085.45 78.7152,-2081.44 89.919,-2078"/>
</g>
<!-- cell 15 -->
<g id="node16" class="node"><title>cell 15</title>
<polygon fill="none" stroke="black" points="54,-2169 0,-2169 0,-2133 54,-2133 54,-2169"/>
<text text-anchor="middle" x="27" y="-2147.3" font-family="Times New Roman,serif" font-size="14.00">cell 15</text>
</g>
<!-- cell 54 -->
<g id="node53" class="node"><title>cell 54</title>
<polygon fill="none" stroke="black" points="234,-1170 180,-1170 180,-1134 234,-1134 234,-1170"/>
<text text-anchor="middle" x="207" y="-1148.3" font-family="Times New Roman,serif" font-size="14.00">cell 54</text>
</g>
<!-- cell 16&#45;&#45;cell 54 -->
<g id="edge37" class="edge"><title>cell 16&#45;&#45;cell 54</title>
<path fill="none" stroke="black" d="M144.403,-1152C155.642,-1152 168.715,-1152 179.919,-1152"/>
</g>
<!-- cell 38 -->
<g id="node39" class="node"><title>cell 38</title>
<polygon fill="none" stroke="black" points="234,-630 180,-630 180,-594 234,-594 234,-630"/>
<text text-anchor="middle" x="207" y="-608.3" font-family="Times New Roman,serif" font-size="14.00">cell 38</text>
</g>
<!-- cell 19&#45;&#45;cell 38 -->
<g id="edge23" class="edge"><title>cell 19&#45;&#45;cell 38</title>
<path fill="none" stroke="black" d="M144.403,-612C155.642,-612 168.715,-612 179.919,-612"/>
</g>
<!-- cell 57 -->
<g id="node56" class="node"><title>cell 57</title>
<polygon fill="none" stroke="black" points="234,-576 180,-576 180,-540 234,-540 234,-576"/>
<text text-anchor="middle" x="207" y="-554.3" font-family="Times New Roman,serif" font-size="14.00">cell 57</text>
</g>
<!-- cell 32&#45;&#45;cell 57 -->
<g id="edge40" class="edge"><title>cell 32&#45;&#45;cell 57</title>
<path fill="none" stroke="black" d="M144.403,-558C155.642,-558 168.715,-558 179.919,-558"/>
</g>
</g>
</svg>
