<?xml version="1.0" encoding="UTF-8" standalone="no"?>
<!DOCTYPE svg PUBLIC "-//W3C//DTD SVG 1.1//EN"
 "http://www.w3.org/Graphics/SVG/1.1/DTD/svg11.dtd">
<!-- Generated by graphviz version 2.38.0 (20140413.2041)
 -->
<!-- Title: %3 Pages: 1 -->
<svg width="321pt" height="1988pt"
 viewBox="0.00 0.00 321.20 1988.00" xmlns="http://www.w3.org/2000/svg" xmlns:xlink="http://www.w3.org/1999/xlink">
<g id="graph0" class="graph" transform="scale(1 1) rotate(0) translate(4 1984)">
<title>%3</title>
<polygon fill="white" stroke="none" points="-4,4 -4,-1984 317.2,-1984 317.2,4 -4,4"/>
<!-- cell 0 -->
<g id="node1" class="node"><title>cell 0</title>
<polygon fill="deepskyblue" stroke="black" points="54,-90 0,-90 0,-54 54,-54 54,-90"/>
<text text-anchor="middle" x="27" y="-68.3" font-family="Times New Roman,serif" font-size="14.00">cell 0</text>
</g>
<!-- cell 0A -->
<g id="node25" class="node"><title>cell 0A</title>
<ellipse fill="black" stroke="black" cx="91.8" cy="-72" rx="1.8" ry="1.8"/>
</g>
<!-- cell 0&#45;&#45;cell 0A -->
<g id="edge8" class="edge"><title>cell 0&#45;&#45;cell 0A</title>
<path fill="none" stroke="black" d="M54.269,-72C69.3267,-72 86.0025,-72 89.9361,-72"/>
</g>
<!-- cell 1 -->
<g id="node2" class="node"><title>cell 1</title>
<polygon fill="deepskyblue" stroke="black" points="54,-225 0,-225 0,-189 54,-189 54,-225"/>
<text text-anchor="middle" x="27" y="-203.3" font-family="Times New Roman,serif" font-size="14.00">cell 1</text>
</g>
<!-- cell 1A -->
<g id="node31" class="node"><title>cell 1A</title>
<ellipse fill="black" stroke="black" cx="91.8" cy="-207" rx="1.8" ry="1.8"/>
</g>
<!-- cell 1&#45;&#45;cell 1A -->
<g id="edge14" class="edge"><title>cell 1&#45;&#45;cell 1A</title>
<path fill="none" stroke="black" d="M54.269,-207C69.3267,-207 86.0025,-207 89.9361,-207"/>
</g>
<!-- cell 2 -->
<g id="node3" class="node"><title>cell 2</title>
<polygon fill="deepskyblue" stroke="black" points="54,-333 0,-333 0,-297 54,-297 54,-333"/>
<text text-anchor="middle" x="27" y="-311.3" font-family="Times New Roman,serif" font-size="14.00">cell 2</text>
</g>
<!-- cell 2A -->
<g id="node47" class="node"><title>cell 2A</title>
<ellipse fill="black" stroke="black" cx="91.8" cy="-315" rx="1.8" ry="1.8"/>
</g>
<!-- cell 2&#45;&#45;cell 2A -->
<g id="edge30" class="edge"><title>cell 2&#45;&#45;cell 2A</title>
<path fill="none" stroke="black" d="M54.269,-315C69.3267,-315 86.0025,-315 89.9361,-315"/>
</g>
<!-- cell 3 -->
<g id="node4" class="node"><title>cell 3</title>
<polygon fill="deepskyblue" stroke="black" points="54,-468 0,-468 0,-432 54,-432 54,-468"/>
<text text-anchor="middle" x="27" y="-446.3" font-family="Times New Roman,serif" font-size="14.00">cell 3</text>
</g>
<!-- cell 3A -->
<g id="node23" class="node"><title>cell 3A</title>
<ellipse fill="black" stroke="black" cx="91.8" cy="-450" rx="1.8" ry="1.8"/>
</g>
<!-- cell 3&#45;&#45;cell 3A -->
<g id="edge6" class="edge"><title>cell 3&#45;&#45;cell 3A</title>
<path fill="none" stroke="black" d="M54.269,-450C69.3267,-450 86.0025,-450 89.9361,-450"/>
</g>
<!-- cell 4 -->
<g id="node5" class="node"><title>cell 4</title>
<polygon fill="deepskyblue" stroke="black" points="54,-630 0,-630 0,-594 54,-594 54,-630"/>
<text text-anchor="middle" x="27" y="-608.3" font-family="Times New Roman,serif" font-size="14.00">cell 4</text>
</g>
<!-- cell 4A -->
<g id="node20" class="node"><title>cell 4A</title>
<ellipse fill="black" stroke="black" cx="91.8" cy="-612" rx="1.8" ry="1.8"/>
</g>
<!-- cell 4&#45;&#45;cell 4A -->
<g id="edge3" class="edge"><title>cell 4&#45;&#45;cell 4A</title>
<path fill="none" stroke="black" d="M54.269,-612C69.3267,-612 86.0025,-612 89.9361,-612"/>
</g>
<!-- cell 5 -->
<g id="node6" class="node"><title>cell 5</title>
<polygon fill="deepskyblue" stroke="black" points="54,-846 0,-846 0,-810 54,-810 54,-846"/>
<text text-anchor="middle" x="27" y="-824.3" font-family="Times New Roman,serif" font-size="14.00">cell 5</text>
</g>
<!-- cell 5A -->
<g id="node18" class="node"><title>cell 5A</title>
<ellipse fill="black" stroke="black" cx="91.8" cy="-828" rx="1.8" ry="1.8"/>
</g>
<!-- cell 5&#45;&#45;cell 5A -->
<g id="edge1" class="edge"><title>cell 5&#45;&#45;cell 5A</title>
<path fill="none" stroke="black" d="M54.269,-828C69.3267,-828 86.0025,-828 89.9361,-828"/>
</g>
<!-- cell 6 -->
<g id="node7" class="node"><title>cell 6</title>
<polygon fill="deepskyblue" stroke="black" points="54,-1035 0,-1035 0,-999 54,-999 54,-1035"/>
<text text-anchor="middle" x="27" y="-1013.3" font-family="Times New Roman,serif" font-size="14.00">cell 6</text>
</g>
<!-- cell 6A -->
<g id="node40" class="node"><title>cell 6A</title>
<ellipse fill="black" stroke="black" cx="91.8" cy="-1017" rx="1.8" ry="1.8"/>
</g>
<!-- cell 6&#45;&#45;cell 6A -->
<g id="edge23" class="edge"><title>cell 6&#45;&#45;cell 6A</title>
<path fill="none" stroke="black" d="M54.269,-1017C69.3267,-1017 86.0025,-1017 89.9361,-1017"/>
</g>
<!-- cell 7 -->
<g id="node8" class="node"><title>cell 7</title>
<polygon fill="deepskyblue" stroke="black" points="54,-1170 0,-1170 0,-1134 54,-1134 54,-1170"/>
<text text-anchor="middle" x="27" y="-1148.3" font-family="Times New Roman,serif" font-size="14.00">cell 7</text>
</g>
<!-- cell 7A -->
<g id="node33" class="node"><title>cell 7A</title>
<ellipse fill="black" stroke="black" cx="91.8" cy="-1152" rx="1.8" ry="1.8"/>
</g>
<!-- cell 7&#45;&#45;cell 7A -->
<g id="edge16" class="edge"><title>cell 7&#45;&#45;cell 7A</title>
<path fill="none" stroke="black" d="M54.269,-1152C69.3267,-1152 86.0025,-1152 89.9361,-1152"/>
</g>
<!-- cell 8 -->
<g id="node9" class="node"><title>cell 8</title>
<polygon fill="deepskyblue" stroke="black" points="54,-1305 0,-1305 0,-1269 54,-1269 54,-1305"/>
<text text-anchor="middle" x="27" y="-1283.3" font-family="Times New Roman,serif" font-size="14.00">cell 8</text>
</g>
<!-- cell 8A -->
<g id="node29" class="node"><title>cell 8A</title>
<ellipse fill="black" stroke="black" cx="91.8" cy="-1287" rx="1.8" ry="1.8"/>
</g>
<!-- cell 8&#45;&#45;cell 8A -->
<g id="edge12" class="edge"><title>cell 8&#45;&#45;cell 8A</title>
<path fill="none" stroke="black" d="M54.269,-1287C69.3267,-1287 86.0025,-1287 89.9361,-1287"/>
</g>
<!-- cell 9 -->
<g id="node10" class="node"><title>cell 9</title>
<polygon fill="deepskyblue" stroke="black" points="54,-1440 0,-1440 0,-1404 54,-1404 54,-1440"/>
<text text-anchor="middle" x="27" y="-1418.3" font-family="Times New Roman,serif" font-size="14.00">cell 9</text>
</g>
<!-- cell 9A -->
<g id="node35" class="node"><title>cell 9A</title>
<ellipse fill="black" stroke="black" cx="91.8" cy="-1422" rx="1.8" ry="1.8"/>
</g>
<!-- cell 9&#45;&#45;cell 9A -->
<g id="edge18" class="edge"><title>cell 9&#45;&#45;cell 9A</title>
<path fill="none" stroke="black" d="M54.269,-1422C69.3267,-1422 86.0025,-1422 89.9361,-1422"/>
</g>
<!-- cell 10 -->
<g id="node11" class="node"><title>cell 10</title>
<polygon fill="deepskyblue" stroke="black" points="54,-1548 0,-1548 0,-1512 54,-1512 54,-1548"/>
<text text-anchor="middle" x="27" y="-1526.3" font-family="Times New Roman,serif" font-size="14.00">cell 10</text>
</g>
<!-- cell 10A -->
<g id="node37" class="node"><title>cell 10A</title>
<ellipse fill="black" stroke="black" cx="91.8" cy="-1530" rx="1.8" ry="1.8"/>
</g>
<!-- cell 10&#45;&#45;cell 10A -->
<g id="edge20" class="edge"><title>cell 10&#45;&#45;cell 10A</title>
<path fill="none" stroke="black" d="M54.269,-1530C69.3267,-1530 86.0025,-1530 89.9361,-1530"/>
</g>
<!-- cell 11 -->
<g id="node12" class="node"><title>cell 11</title>
<polygon fill="deepskyblue" stroke="black" points="54,-1602 0,-1602 0,-1566 54,-1566 54,-1602"/>
<text text-anchor="middle" x="27" y="-1580.3" font-family="Times New Roman,serif" font-size="14.00">cell 11</text>
</g>
<!-- cell 12 -->
<g id="node13" class="node"><title>cell 12</title>
<polygon fill="deepskyblue" stroke="black" points="54,-1656 0,-1656 0,-1620 54,-1620 54,-1656"/>
<text text-anchor="middle" x="27" y="-1634.3" font-family="Times New Roman,serif" font-size="14.00">cell 12</text>
</g>
<!-- cell 12A -->
<g id="node65" class="node"><title>cell 12A</title>
<ellipse fill="black" stroke="black" cx="91.8" cy="-1638" rx="1.8" ry="1.8"/>
</g>
<!-- cell 12&#45;&#45;cell 12A -->
<g id="edge48" class="edge"><title>cell 12&#45;&#45;cell 12A</title>
<path fill="none" stroke="black" d="M54.269,-1638C69.3267,-1638 86.0025,-1638 89.9361,-1638"/>
</g>
<!-- cell 13 -->
<g id="node14" class="node"><title>cell 13</title>
<polygon fill="deepskyblue" stroke="black" points="54,-1791 0,-1791 0,-1755 54,-1755 54,-1791"/>
<text text-anchor="middle" x="27" y="-1769.3" font-family="Times New Roman,serif" font-size="14.00">cell 13</text>
</g>
<!-- cell 13A -->
<g id="node27" class="node"><title>cell 13A</title>
<ellipse fill="black" stroke="black" cx="91.8" cy="-1773" rx="1.8" ry="1.8"/>
</g>
<!-- cell 13&#45;&#45;cell 13A -->
<g id="edge10" class="edge"><title>cell 13&#45;&#45;cell 13A</title>
<path fill="none" stroke="black" d="M54.269,-1773C69.3267,-1773 86.0025,-1773 89.9361,-1773"/>
</g>
<!-- cell 14 -->
<g id="node15" class="node"><title>cell 14</title>
<polygon fill="deepskyblue" stroke="black" points="54,-1926 0,-1926 0,-1890 54,-1890 54,-1926"/>
<text text-anchor="middle" x="27" y="-1904.3" font-family="Times New Roman,serif" font-size="14.00">cell 14</text>
</g>
<!-- cell 14A -->
<g id="node71" class="node"><title>cell 14A</title>
<ellipse fill="black" stroke="black" cx="91.8" cy="-1908" rx="1.8" ry="1.8"/>
</g>
<!-- cell 14&#45;&#45;cell 14A -->
<g id="edge54" class="edge"><title>cell 14&#45;&#45;cell 14A</title>
<path fill="none" stroke="black" d="M54.269,-1908C69.3267,-1908 86.0025,-1908 89.9361,-1908"/>
</g>
<!-- cell 15 -->
<g id="node16" class="node"><title>cell 15</title>
<polygon fill="deepskyblue" stroke="black" points="54,-1980 0,-1980 0,-1944 54,-1944 54,-1980"/>
<text text-anchor="middle" x="27" y="-1958.3" font-family="Times New Roman,serif" font-size="14.00">cell 15</text>
</g>
<!-- cell 16 -->
<g id="node17" class="node"><title>cell 16</title>
<polygon fill="red" stroke="black" points="183.6,-954 129.6,-954 129.6,-918 183.6,-918 183.6,-954"/>
<text text-anchor="middle" x="156.6" y="-932.3" font-family="Times New Roman,serif" font-size="14.00">cell 16</text>
</g>
<!-- cell 16A -->
<g id="node67" class="node"><title>cell 16A</title>
<ellipse fill="black" stroke="black" cx="221.4" cy="-936" rx="1.8" ry="1.8"/>
</g>
<!-- cell 16&#45;&#45;cell 16A -->
<g id="edge50" class="edge"><title>cell 16&#45;&#45;cell 16A</title>
<path fill="none" stroke="black" d="M183.869,-936C198.927,-936 215.602,-936 219.536,-936"/>
</g>
<!-- cell 5A&#45;&#45;cell 16 -->
<g id="edge2" class="edge"><title>cell 5A&#45;&#45;cell 16</title>
<path fill="none" stroke="black" d="M93.3202,-829.145C97.7931,-838.99 129.6,-909 129.6,-909 129.6,-909 133.41,-912.957 138.113,-917.841"/>
</g>
<!-- cell 18 -->
<g id="node21" class="node"><title>cell 18</title>
<polygon fill="lime" stroke="black" points="183.6,-900 129.6,-900 129.6,-864 183.6,-864 183.6,-900"/>
<text text-anchor="middle" x="156.6" y="-878.3" font-family="Times New Roman,serif" font-size="14.00">cell 18</text>
</g>
<!-- cell 5A&#45;&#45;cell 18 -->
<g id="edge5" class="edge"><title>cell 5A&#45;&#45;cell 18</title>
<path fill="none" stroke="black" d="M93.5053,-828.606C97.5479,-832.083 118.172,-849.816 134.558,-863.906"/>
</g>
<!-- cell 33 -->
<g id="node45" class="node"><title>cell 33</title>
<polygon fill="lime" stroke="black" points="183.6,-846 129.6,-846 129.6,-810 183.6,-810 183.6,-846"/>
<text text-anchor="middle" x="156.6" y="-824.3" font-family="Times New Roman,serif" font-size="14.00">cell 33</text>
</g>
<!-- cell 5A&#45;&#45;cell 33 -->
<g id="edge29" class="edge"><title>cell 5A&#45;&#45;cell 33</title>
<path fill="none" stroke="black" d="M93.89,-828C98.2225,-828 114.71,-828 129.552,-828"/>
</g>
<!-- cell 37 -->
<g id="node50" class="node"><title>cell 37</title>
<polygon fill="red" stroke="black" points="183.6,-792 129.6,-792 129.6,-756 183.6,-756 183.6,-792"/>
<text text-anchor="middle" x="156.6" y="-770.3" font-family="Times New Roman,serif" font-size="14.00">cell 37</text>
</g>
<!-- cell 5A&#45;&#45;cell 37 -->
<g id="edge34" class="edge"><title>cell 5A&#45;&#45;cell 37</title>
<path fill="none" stroke="black" d="M93.5053,-827.394C97.5479,-823.917 118.172,-806.184 134.558,-792.094"/>
</g>
<!-- cell 59 -->
<g id="node74" class="node"><title>cell 59</title>
<polygon fill="lime" stroke="black" points="183.6,-738 129.6,-738 129.6,-702 183.6,-702 183.6,-738"/>
<text text-anchor="middle" x="156.6" y="-716.3" font-family="Times New Roman,serif" font-size="14.00">cell 59</text>
</g>
<!-- cell 5A&#45;&#45;cell 59 -->
<g id="edge58" class="edge"><title>cell 5A&#45;&#45;cell 59</title>
<path fill="none" stroke="black" d="M93.3202,-826.855C97.7931,-817.01 129.6,-747 129.6,-747 129.6,-747 133.41,-743.043 138.113,-738.159"/>
</g>
<!-- cell 17 -->
<g id="node19" class="node"><title>cell 17</title>
<polygon fill="lime" stroke="black" points="183.6,-684 129.6,-684 129.6,-648 183.6,-648 183.6,-684"/>
<text text-anchor="middle" x="156.6" y="-662.3" font-family="Times New Roman,serif" font-size="14.00">cell 17</text>
</g>
<!-- cell 17A -->
<g id="node69" class="node"><title>cell 17A</title>
<ellipse fill="black" stroke="black" cx="221.4" cy="-666" rx="1.8" ry="1.8"/>
</g>
<!-- cell 17&#45;&#45;cell 17A -->
<g id="edge52" class="edge"><title>cell 17&#45;&#45;cell 17A</title>
<path fill="none" stroke="black" d="M183.869,-666C198.927,-666 215.602,-666 219.536,-666"/>
</g>
<!-- cell 4A&#45;&#45;cell 17 -->
<g id="edge4" class="edge"><title>cell 4A&#45;&#45;cell 17</title>
<path fill="none" stroke="black" d="M93.5053,-612.606C97.5479,-616.083 118.172,-633.816 134.558,-647.906"/>
</g>
<!-- cell 31 -->
<g id="node43" class="node"><title>cell 31</title>
<polygon fill="lime" stroke="black" points="183.6,-630 129.6,-630 129.6,-594 183.6,-594 183.6,-630"/>
<text text-anchor="middle" x="156.6" y="-608.3" font-family="Times New Roman,serif" font-size="14.00">cell 31</text>
</g>
<!-- cell 4A&#45;&#45;cell 31 -->
<g id="edge27" class="edge"><title>cell 4A&#45;&#45;cell 31</title>
<path fill="none" stroke="black" d="M93.89,-612C98.2225,-612 114.71,-612 129.552,-612"/>
</g>
<!-- cell 51 -->
<g id="node62" class="node"><title>cell 51</title>
<polygon fill="lime" stroke="black" points="183.6,-576 129.6,-576 129.6,-540 183.6,-540 183.6,-576"/>
<text text-anchor="middle" x="156.6" y="-554.3" font-family="Times New Roman,serif" font-size="14.00">cell 51</text>
</g>
<!-- cell 4A&#45;&#45;cell 51 -->
<g id="edge46" class="edge"><title>cell 4A&#45;&#45;cell 51</title>
<path fill="none" stroke="black" d="M93.5053,-611.394C97.5479,-607.917 118.172,-590.184 134.558,-576.094"/>
</g>
<!-- cell 19 -->
<g id="node22" class="node"><title>cell 19</title>
<polygon fill="lime" stroke="black" points="183.6,-522 129.6,-522 129.6,-486 183.6,-486 183.6,-522"/>
<text text-anchor="middle" x="156.6" y="-500.3" font-family="Times New Roman,serif" font-size="14.00">cell 19</text>
</g>
<!-- cell 19A -->
<g id="node52" class="node"><title>cell 19A</title>
<ellipse fill="black" stroke="black" cx="221.4" cy="-504" rx="1.8" ry="1.8"/>
</g>
<!-- cell 19&#45;&#45;cell 19A -->
<g id="edge35" class="edge"><title>cell 19&#45;&#45;cell 19A</title>
<path fill="none" stroke="black" d="M183.869,-504C198.927,-504 215.602,-504 219.536,-504"/>
</g>
<!-- cell 3A&#45;&#45;cell 19 -->
<g id="edge7" class="edge"><title>cell 3A&#45;&#45;cell 19</title>
<path fill="none" stroke="black" d="M93.5053,-450.606C97.5479,-454.083 118.172,-471.816 134.558,-485.906"/>
</g>
<!-- cell 32 -->
<g id="node44" class="node"><title>cell 32</title>
<polygon fill="lime" stroke="black" points="183.6,-468 129.6,-468 129.6,-432 183.6,-432 183.6,-468"/>
<text text-anchor="middle" x="156.6" y="-446.3" font-family="Times New Roman,serif" font-size="14.00">cell 32</text>
</g>
<!-- cell 3A&#45;&#45;cell 32 -->
<g id="edge28" class="edge"><title>cell 3A&#45;&#45;cell 32</title>
<path fill="none" stroke="black" d="M93.89,-450C98.2225,-450 114.71,-450 129.552,-450"/>
</g>
<!-- cell 44 -->
<g id="node57" class="node"><title>cell 44</title>
<polygon fill="lime" stroke="black" points="183.6,-414 129.6,-414 129.6,-378 183.6,-378 183.6,-414"/>
<text text-anchor="middle" x="156.6" y="-392.3" font-family="Times New Roman,serif" font-size="14.00">cell 44</text>
</g>
<!-- cell 3A&#45;&#45;cell 44 -->
<g id="edge41" class="edge"><title>cell 3A&#45;&#45;cell 44</title>
<path fill="none" stroke="black" d="M93.5053,-449.394C97.5479,-445.917 118.172,-428.184 134.558,-414.094"/>
</g>
<!-- cell 20 -->
<g id="node24" class="node"><title>cell 20</title>
<polygon fill="lime" stroke="black" points="183.6,-144 129.6,-144 129.6,-108 183.6,-108 183.6,-144"/>
<text text-anchor="middle" x="156.6" y="-122.3" font-family="Times New Roman,serif" font-size="14.00">cell 20</text>
</g>
<!-- cell 0A&#45;&#45;cell 20 -->
<g id="edge9" class="edge"><title>cell 0A&#45;&#45;cell 20</title>
<path fill="none" stroke="black" d="M93.5053,-72.6064C97.5479,-76.0826 118.172,-93.8163 134.558,-107.906"/>
</g>
<!-- cell 29 -->
<g id="node41" class="node"><title>cell 29</title>
<polygon fill="lime" stroke="black" points="183.6,-90 129.6,-90 129.6,-54 183.6,-54 183.6,-90"/>
<text text-anchor="middle" x="156.6" y="-68.3" font-family="Times New Roman,serif" font-size="14.00">cell 29</text>
</g>
<!-- cell 0A&#45;&#45;cell 29 -->
<g id="edge25" class="edge"><title>cell 0A&#45;&#45;cell 29</title>
<path fill="none" stroke="black" d="M93.89,-72C98.2225,-72 114.71,-72 129.552,-72"/>
</g>
<!-- cell 47 -->
<g id="node59" class="node"><title>cell 47</title>
<polygon fill="red" stroke="black" points="183.6,-36 129.6,-36 129.6,-0 183.6,-0 183.6,-36"/>
<text text-anchor="middle" x="156.6" y="-14.3" font-family="Times New Roman,serif" font-size="14.00">cell 47</text>
</g>
<!-- cell 0A&#45;&#45;cell 47 -->
<g id="edge43" class="edge"><title>cell 0A&#45;&#45;cell 47</title>
<path fill="none" stroke="black" d="M93.5053,-71.3936C97.5479,-67.9174 118.172,-50.1837 134.558,-36.0939"/>
</g>
<!-- cell 21 -->
<g id="node26" class="node"><title>cell 21</title>
<polygon fill="lime" stroke="black" points="183.6,-1872 129.6,-1872 129.6,-1836 183.6,-1836 183.6,-1872"/>
<text text-anchor="middle" x="156.6" y="-1850.3" font-family="Times New Roman,serif" font-size="14.00">cell 21</text>
</g>
<!-- cell 13A&#45;&#45;cell 21 -->
<g id="edge11" class="edge"><title>cell 13A&#45;&#45;cell 21</title>
<path fill="none" stroke="black" d="M93.4387,-1773.94C98.3254,-1781.11 129.6,-1827 129.6,-1827 129.6,-1827 133.41,-1830.96 138.113,-1835.84"/>
</g>
<!-- cell 27 -->
<g id="node38" class="node"><title>cell 27</title>
<polygon fill="lime" stroke="black" points="183.6,-1818 129.6,-1818 129.6,-1782 183.6,-1782 183.6,-1818"/>
<text text-anchor="middle" x="156.6" y="-1796.3" font-family="Times New Roman,serif" font-size="14.00">cell 27</text>
</g>
<!-- cell 13A&#45;&#45;cell 27 -->
<g id="edge22" class="edge"><title>cell 13A&#45;&#45;cell 27</title>
<path fill="none" stroke="black" d="M93.89,-1773.47C98.2225,-1775.33 114.71,-1782.42 129.552,-1788.8"/>
</g>
<!-- cell 30 -->
<g id="node42" class="node"><title>cell 30</title>
<polygon fill="lime" stroke="black" points="183.6,-1764 129.6,-1764 129.6,-1728 183.6,-1728 183.6,-1764"/>
<text text-anchor="middle" x="156.6" y="-1742.3" font-family="Times New Roman,serif" font-size="14.00">cell 30</text>
</g>
<!-- cell 13A&#45;&#45;cell 30 -->
<g id="edge26" class="edge"><title>cell 13A&#45;&#45;cell 30</title>
<path fill="none" stroke="black" d="M93.89,-1772.53C98.2225,-1770.67 114.71,-1763.58 129.552,-1757.2"/>
</g>
<!-- cell 46 -->
<g id="node58" class="node"><title>cell 46</title>
<polygon fill="lime" stroke="black" points="183.6,-1710 129.6,-1710 129.6,-1674 183.6,-1674 183.6,-1710"/>
<text text-anchor="middle" x="156.6" y="-1688.3" font-family="Times New Roman,serif" font-size="14.00">cell 46</text>
</g>
<!-- cell 13A&#45;&#45;cell 46 -->
<g id="edge42" class="edge"><title>cell 13A&#45;&#45;cell 46</title>
<path fill="none" stroke="black" d="M93.4387,-1772.06C98.3254,-1764.89 129.6,-1719 129.6,-1719 129.6,-1719 133.41,-1715.04 138.113,-1710.16"/>
</g>
<!-- cell 22 -->
<g id="node28" class="node"><title>cell 22</title>
<polygon fill="lime" stroke="black" points="183.6,-1332 129.6,-1332 129.6,-1296 183.6,-1296 183.6,-1332"/>
<text text-anchor="middle" x="156.6" y="-1310.3" font-family="Times New Roman,serif" font-size="14.00">cell 22</text>
</g>
<!-- cell 8A&#45;&#45;cell 22 -->
<g id="edge13" class="edge"><title>cell 8A&#45;&#45;cell 22</title>
<path fill="none" stroke="black" d="M93.89,-1287.47C98.2225,-1289.33 114.71,-1296.42 129.552,-1302.8"/>
</g>
<!-- cell 36 -->
<g id="node49" class="node"><title>cell 36</title>
<polygon fill="lime" stroke="black" points="183.6,-1278 129.6,-1278 129.6,-1242 183.6,-1242 183.6,-1278"/>
<text text-anchor="middle" x="156.6" y="-1256.3" font-family="Times New Roman,serif" font-size="14.00">cell 36</text>
</g>
<!-- cell 8A&#45;&#45;cell 36 -->
<g id="edge33" class="edge"><title>cell 8A&#45;&#45;cell 36</title>
<path fill="none" stroke="black" d="M93.89,-1286.53C98.2225,-1284.67 114.71,-1277.58 129.552,-1271.2"/>
</g>
<!-- cell 23 -->
<g id="node30" class="node"><title>cell 23</title>
<polygon fill="lime" stroke="black" points="183.6,-252 129.6,-252 129.6,-216 183.6,-216 183.6,-252"/>
<text text-anchor="middle" x="156.6" y="-230.3" font-family="Times New Roman,serif" font-size="14.00">cell 23</text>
</g>
<!-- cell 1A&#45;&#45;cell 23 -->
<g id="edge15" class="edge"><title>cell 1A&#45;&#45;cell 23</title>
<path fill="none" stroke="black" d="M93.89,-207.469C98.2225,-209.331 114.71,-216.42 129.552,-222.801"/>
</g>
<!-- cell 40 -->
<g id="node53" class="node"><title>cell 40</title>
<polygon fill="lime" stroke="black" points="183.6,-198 129.6,-198 129.6,-162 183.6,-162 183.6,-198"/>
<text text-anchor="middle" x="156.6" y="-176.3" font-family="Times New Roman,serif" font-size="14.00">cell 40</text>
</g>
<!-- cell 1A&#45;&#45;cell 40 -->
<g id="edge37" class="edge"><title>cell 1A&#45;&#45;cell 40</title>
<path fill="none" stroke="black" d="M93.89,-206.531C98.2225,-204.669 114.71,-197.58 129.552,-191.199"/>
</g>
<!-- cell 24 -->
<g id="node32" class="node"><title>cell 24</title>
<polygon fill="lime" stroke="black" points="183.6,-1224 129.6,-1224 129.6,-1188 183.6,-1188 183.6,-1224"/>
<text text-anchor="middle" x="156.6" y="-1202.3" font-family="Times New Roman,serif" font-size="14.00">cell 24</text>
</g>
<!-- cell 7A&#45;&#45;cell 24 -->
<g id="edge17" class="edge"><title>cell 7A&#45;&#45;cell 24</title>
<path fill="none" stroke="black" d="M93.5053,-1152.61C97.5479,-1156.08 118.172,-1173.82 134.558,-1187.91"/>
</g>
<!-- cell 41 -->
<g id="node54" class="node"><title>cell 41</title>
<polygon fill="lime" stroke="black" points="183.6,-1170 129.6,-1170 129.6,-1134 183.6,-1134 183.6,-1170"/>
<text text-anchor="middle" x="156.6" y="-1148.3" font-family="Times New Roman,serif" font-size="14.00">cell 41</text>
</g>
<!-- cell 7A&#45;&#45;cell 41 -->
<g id="edge38" class="edge"><title>cell 7A&#45;&#45;cell 41</title>
<path fill="none" stroke="black" d="M93.89,-1152C98.2225,-1152 114.71,-1152 129.552,-1152"/>
</g>
<!-- cell 52 -->
<g id="node63" class="node"><title>cell 52</title>
<polygon fill="red" stroke="black" points="183.6,-1116 129.6,-1116 129.6,-1080 183.6,-1080 183.6,-1116"/>
<text text-anchor="middle" x="156.6" y="-1094.3" font-family="Times New Roman,serif" font-size="14.00">cell 52</text>
</g>
<!-- cell 7A&#45;&#45;cell 52 -->
<g id="edge47" class="edge"><title>cell 7A&#45;&#45;cell 52</title>
<path fill="none" stroke="black" d="M93.5053,-1151.39C97.5479,-1147.92 118.172,-1130.18 134.558,-1116.09"/>
</g>
<!-- cell 25 -->
<g id="node34" class="node"><title>cell 25</title>
<polygon fill="lime" stroke="black" points="183.6,-1494 129.6,-1494 129.6,-1458 183.6,-1458 183.6,-1494"/>
<text text-anchor="middle" x="156.6" y="-1472.3" font-family="Times New Roman,serif" font-size="14.00">cell 25</text>
</g>
<!-- cell 9A&#45;&#45;cell 25 -->
<g id="edge19" class="edge"><title>cell 9A&#45;&#45;cell 25</title>
<path fill="none" stroke="black" d="M93.5053,-1422.61C97.5479,-1426.08 118.172,-1443.82 134.558,-1457.91"/>
</g>
<!-- cell 42 -->
<g id="node55" class="node"><title>cell 42</title>
<polygon fill="lime" stroke="black" points="183.6,-1440 129.6,-1440 129.6,-1404 183.6,-1404 183.6,-1440"/>
<text text-anchor="middle" x="156.6" y="-1418.3" font-family="Times New Roman,serif" font-size="14.00">cell 42</text>
</g>
<!-- cell 9A&#45;&#45;cell 42 -->
<g id="edge39" class="edge"><title>cell 9A&#45;&#45;cell 42</title>
<path fill="none" stroke="black" d="M93.89,-1422C98.2225,-1422 114.71,-1422 129.552,-1422"/>
</g>
<!-- cell 50 -->
<g id="node61" class="node"><title>cell 50</title>
<polygon fill="red" stroke="black" points="183.6,-1386 129.6,-1386 129.6,-1350 183.6,-1350 183.6,-1386"/>
<text text-anchor="middle" x="156.6" y="-1364.3" font-family="Times New Roman,serif" font-size="14.00">cell 50</text>
</g>
<!-- cell 9A&#45;&#45;cell 50 -->
<g id="edge45" class="edge"><title>cell 9A&#45;&#45;cell 50</title>
<path fill="none" stroke="black" d="M93.5053,-1421.39C97.5479,-1417.92 118.172,-1400.18 134.558,-1386.09"/>
</g>
<!-- cell 26 -->
<g id="node36" class="node"><title>cell 26</title>
<polygon fill="lime" stroke="black" points="183.6,-1602 129.6,-1602 129.6,-1566 183.6,-1566 183.6,-1602"/>
<text text-anchor="middle" x="156.6" y="-1580.3" font-family="Times New Roman,serif" font-size="14.00">cell 26</text>
</g>
<!-- cell 10A&#45;&#45;cell 26 -->
<g id="edge21" class="edge"><title>cell 10A&#45;&#45;cell 26</title>
<path fill="none" stroke="black" d="M93.5053,-1530.61C97.5479,-1534.08 118.172,-1551.82 134.558,-1565.91"/>
</g>
<!-- cell 43 -->
<g id="node56" class="node"><title>cell 43</title>
<polygon fill="lime" stroke="black" points="183.6,-1548 129.6,-1548 129.6,-1512 183.6,-1512 183.6,-1548"/>
<text text-anchor="middle" x="156.6" y="-1526.3" font-family="Times New Roman,serif" font-size="14.00">cell 43</text>
</g>
<!-- cell 10A&#45;&#45;cell 43 -->
<g id="edge40" class="edge"><title>cell 10A&#45;&#45;cell 43</title>
<path fill="none" stroke="black" d="M93.89,-1530C98.2225,-1530 114.71,-1530 129.552,-1530"/>
</g>
<!-- cell 28 -->
<g id="node39" class="node"><title>cell 28</title>
<polygon fill="lime" stroke="black" points="183.6,-1062 129.6,-1062 129.6,-1026 183.6,-1026 183.6,-1062"/>
<text text-anchor="middle" x="156.6" y="-1040.3" font-family="Times New Roman,serif" font-size="14.00">cell 28</text>
</g>
<!-- cell 28A -->
<g id="node76" class="node"><title>cell 28A</title>
<ellipse fill="black" stroke="black" cx="221.4" cy="-1044" rx="1.8" ry="1.8"/>
</g>
<!-- cell 28&#45;&#45;cell 28A -->
<g id="edge59" class="edge"><title>cell 28&#45;&#45;cell 28A</title>
<path fill="none" stroke="black" d="M183.869,-1044C198.927,-1044 215.602,-1044 219.536,-1044"/>
</g>
<!-- cell 6A&#45;&#45;cell 28 -->
<g id="edge24" class="edge"><title>cell 6A&#45;&#45;cell 28</title>
<path fill="none" stroke="black" d="M93.89,-1017.47C98.2225,-1019.33 114.71,-1026.42 129.552,-1032.8"/>
</g>
<!-- cell 48 -->
<g id="node60" class="node"><title>cell 48</title>
<polygon fill="lime" stroke="black" points="183.6,-1008 129.6,-1008 129.6,-972 183.6,-972 183.6,-1008"/>
<text text-anchor="middle" x="156.6" y="-986.3" font-family="Times New Roman,serif" font-size="14.00">cell 48</text>
</g>
<!-- cell 6A&#45;&#45;cell 48 -->
<g id="edge44" class="edge"><title>cell 6A&#45;&#45;cell 48</title>
<path fill="none" stroke="black" d="M93.89,-1016.53C98.2225,-1014.67 114.71,-1007.58 129.552,-1001.2"/>
</g>
<!-- cell 32A -->
<g id="node73" class="node"><title>cell 32A</title>
<ellipse fill="black" stroke="black" cx="221.4" cy="-450" rx="1.8" ry="1.8"/>
</g>
<!-- cell 32&#45;&#45;cell 32A -->
<g id="edge56" class="edge"><title>cell 32&#45;&#45;cell 32A</title>
<path fill="none" stroke="black" d="M183.869,-450C198.927,-450 215.602,-450 219.536,-450"/>
</g>
<!-- cell 34 -->
<g id="node46" class="node"><title>cell 34</title>
<polygon fill="lime" stroke="black" points="183.6,-360 129.6,-360 129.6,-324 183.6,-324 183.6,-360"/>
<text text-anchor="middle" x="156.6" y="-338.3" font-family="Times New Roman,serif" font-size="14.00">cell 34</text>
</g>
<!-- cell 2A&#45;&#45;cell 34 -->
<g id="edge31" class="edge"><title>cell 2A&#45;&#45;cell 34</title>
<path fill="none" stroke="black" d="M93.89,-315.469C98.2225,-317.331 114.71,-324.42 129.552,-330.801"/>
</g>
<!-- cell 35 -->
<g id="node48" class="node"><title>cell 35</title>
<polygon fill="lime" stroke="black" points="183.6,-306 129.6,-306 129.6,-270 183.6,-270 183.6,-306"/>
<text text-anchor="middle" x="156.6" y="-284.3" font-family="Times New Roman,serif" font-size="14.00">cell 35</text>
</g>
<!-- cell 2A&#45;&#45;cell 35 -->
<g id="edge32" class="edge"><title>cell 2A&#45;&#45;cell 35</title>
<path fill="none" stroke="black" d="M93.89,-314.531C98.2225,-312.669 114.71,-305.58 129.552,-299.199"/>
</g>
<!-- cell 38 -->
<g id="node51" class="node"><title>cell 38</title>
<polygon fill="lime" stroke="black" points="313.2,-522 259.2,-522 259.2,-486 313.2,-486 313.2,-522"/>
<text text-anchor="middle" x="286.2" y="-500.3" font-family="Times New Roman,serif" font-size="14.00">cell 38</text>
</g>
<!-- cell 19A&#45;&#45;cell 38 -->
<g id="edge36" class="edge"><title>cell 19A&#45;&#45;cell 38</title>
<path fill="none" stroke="black" d="M223.49,-504C227.822,-504 244.31,-504 259.152,-504"/>
</g>
<!-- cell 53 -->
<g id="node64" class="node"><title>cell 53</title>
<polygon fill="lime" stroke="black" points="183.6,-1656 129.6,-1656 129.6,-1620 183.6,-1620 183.6,-1656"/>
<text text-anchor="middle" x="156.6" y="-1634.3" font-family="Times New Roman,serif" font-size="14.00">cell 53</text>
</g>
<!-- cell 12A&#45;&#45;cell 53 -->
<g id="edge49" class="edge"><title>cell 12A&#45;&#45;cell 53</title>
<path fill="none" stroke="black" d="M93.89,-1638C98.2225,-1638 114.71,-1638 129.552,-1638"/>
</g>
<!-- cell 54 -->
<g id="node66" class="node"><title>cell 54</title>
<polygon fill="lime" stroke="black" points="313.2,-954 259.2,-954 259.2,-918 313.2,-918 313.2,-954"/>
<text text-anchor="middle" x="286.2" y="-932.3" font-family="Times New Roman,serif" font-size="14.00">cell 54</text>
</g>
<!-- cell 16A&#45;&#45;cell 54 -->
<g id="edge51" class="edge"><title>cell 16A&#45;&#45;cell 54</title>
<path fill="none" stroke="black" d="M223.49,-936C227.822,-936 244.31,-936 259.152,-936"/>
</g>
<!-- cell 55 -->
<g id="node68" class="node"><title>cell 55</title>
<polygon fill="lime" stroke="black" points="313.2,-684 259.2,-684 259.2,-648 313.2,-648 313.2,-684"/>
<text text-anchor="middle" x="286.2" y="-662.3" font-family="Times New Roman,serif" font-size="14.00">cell 55</text>
</g>
<!-- cell 17A&#45;&#45;cell 55 -->
<g id="edge53" class="edge"><title>cell 17A&#45;&#45;cell 55</title>
<path fill="none" stroke="black" d="M223.49,-666C227.822,-666 244.31,-666 259.152,-666"/>
</g>
<!-- cell 56 -->
<g id="node70" class="node"><title>cell 56</title>
<polygon fill="lime" stroke="black" points="183.6,-1926 129.6,-1926 129.6,-1890 183.6,-1890 183.6,-1926"/>
<text text-anchor="middle" x="156.6" y="-1904.3" font-family="Times New Roman,serif" font-size="14.00">cell 56</text>
</g>
<!-- cell 14A&#45;&#45;cell 56 -->
<g id="edge55" class="edge"><title>cell 14A&#45;&#45;cell 56</title>
<path fill="none" stroke="black" d="M93.89,-1908C98.2225,-1908 114.71,-1908 129.552,-1908"/>
</g>
<!-- cell 57 -->
<g id="node72" class="node"><title>cell 57</title>
<polygon fill="lime" stroke="black" points="313.2,-468 259.2,-468 259.2,-432 313.2,-432 313.2,-468"/>
<text text-anchor="middle" x="286.2" y="-446.3" font-family="Times New Roman,serif" font-size="14.00">cell 57</text>
</g>
<!-- cell 32A&#45;&#45;cell 57 -->
<g id="edge57" class="edge"><title>cell 32A&#45;&#45;cell 57</title>
<path fill="none" stroke="black" d="M223.49,-450C227.822,-450 244.31,-450 259.152,-450"/>
</g>
<!-- cell 60 -->
<g id="node75" class="node"><title>cell 60</title>
<polygon fill="lime" stroke="black" points="313.2,-1062 259.2,-1062 259.2,-1026 313.2,-1026 313.2,-1062"/>
<text text-anchor="middle" x="286.2" y="-1040.3" font-family="Times New Roman,serif" font-size="14.00">cell 60</text>
</g>
<!-- cell 28A&#45;&#45;cell 60 -->
<g id="edge60" class="edge"><title>cell 28A&#45;&#45;cell 60</title>
<path fill="none" stroke="black" d="M223.49,-1044C227.822,-1044 244.31,-1044 259.152,-1044"/>
</g>
</g>
</svg>
