<?xml version="1.0" encoding="UTF-8" standalone="no"?>
<!DOCTYPE svg PUBLIC "-//W3C//DTD SVG 1.1//EN"
 "http://www.w3.org/Graphics/SVG/1.1/DTD/svg11.dtd">
<!-- Generated by graphviz version 2.38.0 (20140413.2041)
 -->
<!-- Title: %3 Pages: 1 -->
<svg width="451pt" height="1691pt"
 viewBox="0.00 0.00 450.80 1691.00" xmlns="http://www.w3.org/2000/svg" xmlns:xlink="http://www.w3.org/1999/xlink">
<g id="graph0" class="graph" transform="scale(1 1) rotate(0) translate(4 1687)">
<title>%3</title>
<polygon fill="white" stroke="none" points="-4,4 -4,-1687 446.8,-1687 446.8,4 -4,4"/>
<!-- cell 0 -->
<g id="node1" class="node"><title>cell 0</title>
<polygon fill="deepskyblue" stroke="black" points="54,-117 0,-117 0,-81 54,-81 54,-117"/>
<text text-anchor="middle" x="27" y="-95.3" font-family="Times New Roman,serif" font-size="14.00">cell 0</text>
</g>
<!-- cell 0A -->
<g id="node11" class="node"><title>cell 0A</title>
<ellipse fill="black" stroke="black" cx="91.8" cy="-99" rx="1.8" ry="1.8"/>
</g>
<!-- cell 0&#45;&#45;cell 0A -->
<g id="edge3" class="edge"><title>cell 0&#45;&#45;cell 0A</title>
<path fill="none" stroke="black" d="M54.269,-99C69.3267,-99 86.0025,-99 89.9361,-99"/>
</g>
<!-- cell 1 -->
<g id="node2" class="node"><title>cell 1</title>
<polygon fill="deepskyblue" stroke="black" points="54,-333 0,-333 0,-297 54,-297 54,-333"/>
<text text-anchor="middle" x="27" y="-311.3" font-family="Times New Roman,serif" font-size="14.00">cell 1</text>
</g>
<!-- cell 1A -->
<g id="node21" class="node"><title>cell 1A</title>
<ellipse fill="black" stroke="black" cx="91.8" cy="-315" rx="1.8" ry="1.8"/>
</g>
<!-- cell 1&#45;&#45;cell 1A -->
<g id="edge13" class="edge"><title>cell 1&#45;&#45;cell 1A</title>
<path fill="none" stroke="black" d="M54.269,-315C69.3267,-315 86.0025,-315 89.9361,-315"/>
</g>
<!-- cell 2 -->
<g id="node3" class="node"><title>cell 2</title>
<polygon fill="deepskyblue" stroke="black" points="54,-549 0,-549 0,-513 54,-513 54,-549"/>
<text text-anchor="middle" x="27" y="-527.3" font-family="Times New Roman,serif" font-size="14.00">cell 2</text>
</g>
<!-- cell 2A -->
<g id="node13" class="node"><title>cell 2A</title>
<ellipse fill="black" stroke="black" cx="91.8" cy="-531" rx="1.8" ry="1.8"/>
</g>
<!-- cell 2&#45;&#45;cell 2A -->
<g id="edge5" class="edge"><title>cell 2&#45;&#45;cell 2A</title>
<path fill="none" stroke="black" d="M54.269,-531C69.3267,-531 86.0025,-531 89.9361,-531"/>
</g>
<!-- cell 3 -->
<g id="node4" class="node"><title>cell 3</title>
<polygon fill="deepskyblue" stroke="black" points="54,-846 0,-846 0,-810 54,-810 54,-846"/>
<text text-anchor="middle" x="27" y="-824.3" font-family="Times New Roman,serif" font-size="14.00">cell 3</text>
</g>
<!-- cell 3A -->
<g id="node9" class="node"><title>cell 3A</title>
<ellipse fill="black" stroke="black" cx="91.8" cy="-828" rx="1.8" ry="1.8"/>
</g>
<!-- cell 3&#45;&#45;cell 3A -->
<g id="edge1" class="edge"><title>cell 3&#45;&#45;cell 3A</title>
<path fill="none" stroke="black" d="M54.269,-828C69.3267,-828 86.0025,-828 89.9361,-828"/>
</g>
<!-- cell 4 -->
<g id="node5" class="node"><title>cell 4</title>
<polygon fill="deepskyblue" stroke="black" points="54,-1224 0,-1224 0,-1188 54,-1188 54,-1224"/>
<text text-anchor="middle" x="27" y="-1202.3" font-family="Times New Roman,serif" font-size="14.00">cell 4</text>
</g>
<!-- cell 4A -->
<g id="node15" class="node"><title>cell 4A</title>
<ellipse fill="black" stroke="black" cx="91.8" cy="-1206" rx="1.8" ry="1.8"/>
</g>
<!-- cell 4&#45;&#45;cell 4A -->
<g id="edge7" class="edge"><title>cell 4&#45;&#45;cell 4A</title>
<path fill="none" stroke="black" d="M54.269,-1206C69.3267,-1206 86.0025,-1206 89.9361,-1206"/>
</g>
<!-- cell 5 -->
<g id="node6" class="node"><title>cell 5</title>
<polygon fill="deepskyblue" stroke="black" points="54,-1359 0,-1359 0,-1323 54,-1323 54,-1359"/>
<text text-anchor="middle" x="27" y="-1337.3" font-family="Times New Roman,serif" font-size="14.00">cell 5</text>
</g>
<!-- cell 5A -->
<g id="node33" class="node"><title>cell 5A</title>
<ellipse fill="black" stroke="black" cx="91.8" cy="-1341" rx="1.8" ry="1.8"/>
</g>
<!-- cell 5&#45;&#45;cell 5A -->
<g id="edge25" class="edge"><title>cell 5&#45;&#45;cell 5A</title>
<path fill="none" stroke="black" d="M54.269,-1341C69.3267,-1341 86.0025,-1341 89.9361,-1341"/>
</g>
<!-- cell 6 -->
<g id="node7" class="node"><title>cell 6</title>
<polygon fill="deepskyblue" stroke="black" points="54,-1548 0,-1548 0,-1512 54,-1512 54,-1548"/>
<text text-anchor="middle" x="27" y="-1526.3" font-family="Times New Roman,serif" font-size="14.00">cell 6</text>
</g>
<!-- cell 6A -->
<g id="node17" class="node"><title>cell 6A</title>
<ellipse fill="black" stroke="black" cx="91.8" cy="-1530" rx="1.8" ry="1.8"/>
</g>
<!-- cell 6&#45;&#45;cell 6A -->
<g id="edge9" class="edge"><title>cell 6&#45;&#45;cell 6A</title>
<path fill="none" stroke="black" d="M54.269,-1530C69.3267,-1530 86.0025,-1530 89.9361,-1530"/>
</g>
<!-- cell 7 -->
<g id="node8" class="node"><title>cell 7</title>
<polygon fill="lime" stroke="black" points="183.6,-1089 129.6,-1089 129.6,-1053 183.6,-1053 183.6,-1089"/>
<text text-anchor="middle" x="156.6" y="-1067.3" font-family="Times New Roman,serif" font-size="14.00">cell 7</text>
</g>
<!-- cell 7A -->
<g id="node55" class="node"><title>cell 7A</title>
<ellipse fill="black" stroke="black" cx="221.4" cy="-1085" rx="1.8" ry="1.8"/>
</g>
<!-- cell 7&#45;&#45;cell 7A -->
<g id="edge47" class="edge"><title>cell 7&#45;&#45;cell 7A</title>
<path fill="none" stroke="black" d="M183.869,-1076.86C198.927,-1080.21 215.602,-1083.93 219.536,-1084.81"/>
</g>
<!-- cell 3A&#45;&#45;cell 7 -->
<g id="edge2" class="edge"><title>cell 3A&#45;&#45;cell 7</title>
<path fill="none" stroke="black" d="M93.1181,-829.634C96.7149,-848.107 129.6,-1017 129.6,-1017 129.6,-1017 139.255,-1037.05 146.798,-1052.72"/>
</g>
<!-- cell 12 -->
<g id="node18" class="node"><title>cell 12</title>
<polygon fill="lime" stroke="black" points="183.6,-1008 129.6,-1008 129.6,-972 183.6,-972 183.6,-1008"/>
<text text-anchor="middle" x="156.6" y="-986.3" font-family="Times New Roman,serif" font-size="14.00">cell 12</text>
</g>
<!-- cell 3A&#45;&#45;cell 12 -->
<g id="edge11" class="edge"><title>cell 3A&#45;&#45;cell 12</title>
<path fill="none" stroke="black" d="M93.2133,-829.516C97.2563,-844.348 129.6,-963 129.6,-963 129.6,-963 133.41,-966.957 138.113,-971.841"/>
</g>
<!-- cell 15 -->
<g id="node22" class="node"><title>cell 15</title>
<polygon fill="lime" stroke="black" points="183.6,-954 129.6,-954 129.6,-918 183.6,-918 183.6,-954"/>
<text text-anchor="middle" x="156.6" y="-932.3" font-family="Times New Roman,serif" font-size="14.00">cell 15</text>
</g>
<!-- cell 3A&#45;&#45;cell 15 -->
<g id="edge15" class="edge"><title>cell 3A&#45;&#45;cell 15</title>
<path fill="none" stroke="black" d="M93.3202,-829.145C97.7931,-838.99 129.6,-909 129.6,-909 129.6,-909 133.41,-912.957 138.113,-917.841"/>
</g>
<!-- cell 18 -->
<g id="node25" class="node"><title>cell 18</title>
<polygon fill="lime" stroke="black" points="183.6,-900 129.6,-900 129.6,-864 183.6,-864 183.6,-900"/>
<text text-anchor="middle" x="156.6" y="-878.3" font-family="Times New Roman,serif" font-size="14.00">cell 18</text>
</g>
<!-- cell 3A&#45;&#45;cell 18 -->
<g id="edge18" class="edge"><title>cell 3A&#45;&#45;cell 18</title>
<path fill="none" stroke="black" d="M93.5053,-828.606C97.5479,-832.083 118.172,-849.816 134.558,-863.906"/>
</g>
<!-- cell 21 -->
<g id="node29" class="node"><title>cell 21</title>
<polygon fill="lime" stroke="black" points="183.6,-846 129.6,-846 129.6,-810 183.6,-810 183.6,-846"/>
<text text-anchor="middle" x="156.6" y="-824.3" font-family="Times New Roman,serif" font-size="14.00">cell 21</text>
</g>
<!-- cell 3A&#45;&#45;cell 21 -->
<g id="edge22" class="edge"><title>cell 3A&#45;&#45;cell 21</title>
<path fill="none" stroke="black" d="M93.89,-828C98.2225,-828 114.71,-828 129.552,-828"/>
</g>
<!-- cell 29 -->
<g id="node41" class="node"><title>cell 29</title>
<polygon fill="lime" stroke="black" points="183.6,-792 129.6,-792 129.6,-756 183.6,-756 183.6,-792"/>
<text text-anchor="middle" x="156.6" y="-770.3" font-family="Times New Roman,serif" font-size="14.00">cell 29</text>
</g>
<!-- cell 3A&#45;&#45;cell 29 -->
<g id="edge34" class="edge"><title>cell 3A&#45;&#45;cell 29</title>
<path fill="none" stroke="black" d="M93.5053,-827.394C97.5479,-823.917 118.172,-806.184 134.558,-792.094"/>
</g>
<!-- cell 33 -->
<g id="node45" class="node"><title>cell 33</title>
<polygon fill="lime" stroke="black" points="183.6,-738 129.6,-738 129.6,-702 183.6,-702 183.6,-738"/>
<text text-anchor="middle" x="156.6" y="-716.3" font-family="Times New Roman,serif" font-size="14.00">cell 33</text>
</g>
<!-- cell 3A&#45;&#45;cell 33 -->
<g id="edge38" class="edge"><title>cell 3A&#45;&#45;cell 33</title>
<path fill="none" stroke="black" d="M93.3202,-826.855C97.7931,-817.01 129.6,-747 129.6,-747 129.6,-747 133.41,-743.043 138.113,-738.159"/>
</g>
<!-- cell 35 -->
<g id="node48" class="node"><title>cell 35</title>
<polygon fill="lime" stroke="black" points="183.6,-684 129.6,-684 129.6,-648 183.6,-648 183.6,-684"/>
<text text-anchor="middle" x="156.6" y="-662.3" font-family="Times New Roman,serif" font-size="14.00">cell 35</text>
</g>
<!-- cell 3A&#45;&#45;cell 35 -->
<g id="edge41" class="edge"><title>cell 3A&#45;&#45;cell 35</title>
<path fill="none" stroke="black" d="M93.2133,-826.484C97.2563,-811.652 129.6,-693 129.6,-693 129.6,-693 133.41,-689.043 138.113,-684.159"/>
</g>
<!-- cell 57 -->
<g id="node80" class="node"><title>cell 57</title>
<polygon fill="lime" stroke="black" points="183.6,-630 129.6,-630 129.6,-594 183.6,-594 183.6,-630"/>
<text text-anchor="middle" x="156.6" y="-608.3" font-family="Times New Roman,serif" font-size="14.00">cell 57</text>
</g>
<!-- cell 3A&#45;&#45;cell 57 -->
<g id="edge73" class="edge"><title>cell 3A&#45;&#45;cell 57</title>
<path fill="none" stroke="black" d="M93.1181,-826.366C96.7149,-807.893 129.6,-639 129.6,-639 129.6,-639 133.41,-635.043 138.113,-630.159"/>
</g>
<!-- cell 8 -->
<g id="node10" class="node"><title>cell 8</title>
<polygon fill="lime" stroke="black" points="183.6,-198 129.6,-198 129.6,-162 183.6,-162 183.6,-198"/>
<text text-anchor="middle" x="156.6" y="-176.3" font-family="Times New Roman,serif" font-size="14.00">cell 8</text>
</g>
<!-- cell 8A -->
<g id="node35" class="node"><title>cell 8A</title>
<ellipse fill="black" stroke="black" cx="221.4" cy="-180" rx="1.8" ry="1.8"/>
</g>
<!-- cell 8&#45;&#45;cell 8A -->
<g id="edge27" class="edge"><title>cell 8&#45;&#45;cell 8A</title>
<path fill="none" stroke="black" d="M183.869,-180C198.927,-180 215.602,-180 219.536,-180"/>
</g>
<!-- cell 0A&#45;&#45;cell 8 -->
<g id="edge4" class="edge"><title>cell 0A&#45;&#45;cell 8</title>
<path fill="none" stroke="black" d="M93.4387,-99.9373C98.3254,-107.108 129.6,-153 129.6,-153 129.6,-153 133.41,-156.957 138.113,-161.841"/>
</g>
<!-- cell 13 -->
<g id="node19" class="node"><title>cell 13</title>
<polygon fill="lime" stroke="black" points="183.6,-144 129.6,-144 129.6,-108 183.6,-108 183.6,-144"/>
<text text-anchor="middle" x="156.6" y="-122.3" font-family="Times New Roman,serif" font-size="14.00">cell 13</text>
</g>
<!-- cell 0A&#45;&#45;cell 13 -->
<g id="edge12" class="edge"><title>cell 0A&#45;&#45;cell 13</title>
<path fill="none" stroke="black" d="M93.89,-99.4686C98.2225,-101.331 114.71,-108.42 129.552,-114.801"/>
</g>
<!-- cell 22 -->
<g id="node30" class="node"><title>cell 22</title>
<polygon fill="lime" stroke="black" points="183.6,-90 129.6,-90 129.6,-54 183.6,-54 183.6,-90"/>
<text text-anchor="middle" x="156.6" y="-68.3" font-family="Times New Roman,serif" font-size="14.00">cell 22</text>
</g>
<!-- cell 0A&#45;&#45;cell 22 -->
<g id="edge23" class="edge"><title>cell 0A&#45;&#45;cell 22</title>
<path fill="none" stroke="black" d="M93.89,-98.5314C98.2225,-96.6687 114.71,-89.5803 129.552,-83.1988"/>
</g>
<!-- cell 42 -->
<g id="node57" class="node"><title>cell 42</title>
<polygon fill="lime" stroke="black" points="183.6,-36 129.6,-36 129.6,-0 183.6,-0 183.6,-36"/>
<text text-anchor="middle" x="156.6" y="-14.3" font-family="Times New Roman,serif" font-size="14.00">cell 42</text>
</g>
<!-- cell 0A&#45;&#45;cell 42 -->
<g id="edge50" class="edge"><title>cell 0A&#45;&#45;cell 42</title>
<path fill="none" stroke="black" d="M93.4387,-98.0627C98.3254,-90.8921 129.6,-45 129.6,-45 129.6,-45 133.41,-41.0433 138.113,-36.1592"/>
</g>
<!-- cell 9 -->
<g id="node12" class="node"><title>cell 9</title>
<polygon fill="lime" stroke="black" points="183.6,-576 129.6,-576 129.6,-540 183.6,-540 183.6,-576"/>
<text text-anchor="middle" x="156.6" y="-554.3" font-family="Times New Roman,serif" font-size="14.00">cell 9</text>
</g>
<!-- cell 9A -->
<g id="node28" class="node"><title>cell 9A</title>
<ellipse fill="black" stroke="black" cx="221.4" cy="-558" rx="1.8" ry="1.8"/>
</g>
<!-- cell 9&#45;&#45;cell 9A -->
<g id="edge20" class="edge"><title>cell 9&#45;&#45;cell 9A</title>
<path fill="none" stroke="black" d="M183.869,-558C198.927,-558 215.602,-558 219.536,-558"/>
</g>
<!-- cell 2A&#45;&#45;cell 9 -->
<g id="edge6" class="edge"><title>cell 2A&#45;&#45;cell 9</title>
<path fill="none" stroke="black" d="M93.89,-531.469C98.2225,-533.331 114.71,-540.42 129.552,-546.801"/>
</g>
<!-- cell 16 -->
<g id="node23" class="node"><title>cell 16</title>
<polygon fill="lime" stroke="black" points="183.6,-522 129.6,-522 129.6,-486 183.6,-486 183.6,-522"/>
<text text-anchor="middle" x="156.6" y="-500.3" font-family="Times New Roman,serif" font-size="14.00">cell 16</text>
</g>
<!-- cell 2A&#45;&#45;cell 16 -->
<g id="edge16" class="edge"><title>cell 2A&#45;&#45;cell 16</title>
<path fill="none" stroke="black" d="M93.89,-530.531C98.2225,-528.669 114.71,-521.58 129.552,-515.199"/>
</g>
<!-- cell 10 -->
<g id="node14" class="node"><title>cell 10</title>
<polygon fill="lime" stroke="black" points="183.6,-1305 129.6,-1305 129.6,-1269 183.6,-1269 183.6,-1305"/>
<text text-anchor="middle" x="156.6" y="-1283.3" font-family="Times New Roman,serif" font-size="14.00">cell 10</text>
</g>
<!-- cell 10A -->
<g id="node59" class="node"><title>cell 10A</title>
<ellipse fill="black" stroke="black" cx="221.4" cy="-1287" rx="1.8" ry="1.8"/>
</g>
<!-- cell 10&#45;&#45;cell 10A -->
<g id="edge51" class="edge"><title>cell 10&#45;&#45;cell 10A</title>
<path fill="none" stroke="black" d="M183.869,-1287C198.927,-1287 215.602,-1287 219.536,-1287"/>
</g>
<!-- cell 4A&#45;&#45;cell 10 -->
<g id="edge8" class="edge"><title>cell 4A&#45;&#45;cell 10</title>
<path fill="none" stroke="black" d="M93.4387,-1206.94C98.3254,-1214.11 129.6,-1260 129.6,-1260 129.6,-1260 133.41,-1263.96 138.113,-1268.84"/>
</g>
<!-- cell 19 -->
<g id="node26" class="node"><title>cell 19</title>
<polygon fill="lime" stroke="black" points="183.6,-1251 129.6,-1251 129.6,-1215 183.6,-1215 183.6,-1251"/>
<text text-anchor="middle" x="156.6" y="-1229.3" font-family="Times New Roman,serif" font-size="14.00">cell 19</text>
</g>
<!-- cell 4A&#45;&#45;cell 19 -->
<g id="edge19" class="edge"><title>cell 4A&#45;&#45;cell 19</title>
<path fill="none" stroke="black" d="M93.89,-1206.47C98.2225,-1208.33 114.71,-1215.42 129.552,-1221.8"/>
</g>
<!-- cell 31 -->
<g id="node43" class="node"><title>cell 31</title>
<polygon fill="lime" stroke="black" points="183.6,-1197 129.6,-1197 129.6,-1161 183.6,-1161 183.6,-1197"/>
<text text-anchor="middle" x="156.6" y="-1175.3" font-family="Times New Roman,serif" font-size="14.00">cell 31</text>
</g>
<!-- cell 4A&#45;&#45;cell 31 -->
<g id="edge36" class="edge"><title>cell 4A&#45;&#45;cell 31</title>
<path fill="none" stroke="black" d="M93.89,-1205.53C98.2225,-1203.67 114.71,-1196.58 129.552,-1190.2"/>
</g>
<!-- cell 37 -->
<g id="node51" class="node"><title>cell 37</title>
<polygon fill="lime" stroke="black" points="183.6,-1143 129.6,-1143 129.6,-1107 183.6,-1107 183.6,-1143"/>
<text text-anchor="middle" x="156.6" y="-1121.3" font-family="Times New Roman,serif" font-size="14.00">cell 37</text>
</g>
<!-- cell 4A&#45;&#45;cell 37 -->
<g id="edge44" class="edge"><title>cell 4A&#45;&#45;cell 37</title>
<path fill="none" stroke="black" d="M93.4387,-1205.06C98.3254,-1197.89 129.6,-1152 129.6,-1152 129.6,-1152 133.41,-1148.04 138.113,-1143.16"/>
</g>
<!-- cell 11 -->
<g id="node16" class="node"><title>cell 11</title>
<polygon fill="lime" stroke="black" points="183.6,-1683 129.6,-1683 129.6,-1647 183.6,-1647 183.6,-1683"/>
<text text-anchor="middle" x="156.6" y="-1661.3" font-family="Times New Roman,serif" font-size="14.00">cell 11</text>
</g>
<!-- cell 6A&#45;&#45;cell 11 -->
<g id="edge10" class="edge"><title>cell 6A&#45;&#45;cell 11</title>
<path fill="none" stroke="black" d="M93.2133,-1531.21C97.2563,-1543.08 129.6,-1638 129.6,-1638 129.6,-1638 133.41,-1641.96 138.113,-1646.84"/>
</g>
<!-- cell 17 -->
<g id="node24" class="node"><title>cell 17</title>
<polygon fill="lime" stroke="black" points="183.6,-1629 129.6,-1629 129.6,-1593 183.6,-1593 183.6,-1629"/>
<text text-anchor="middle" x="156.6" y="-1607.3" font-family="Times New Roman,serif" font-size="14.00">cell 17</text>
</g>
<!-- cell 6A&#45;&#45;cell 17 -->
<g id="edge17" class="edge"><title>cell 6A&#45;&#45;cell 17</title>
<path fill="none" stroke="black" d="M93.4387,-1530.94C98.3254,-1538.11 129.6,-1584 129.6,-1584 129.6,-1584 133.41,-1587.96 138.113,-1592.84"/>
</g>
<!-- cell 23 -->
<g id="node31" class="node"><title>cell 23</title>
<polygon fill="lime" stroke="black" points="183.6,-1575 129.6,-1575 129.6,-1539 183.6,-1539 183.6,-1575"/>
<text text-anchor="middle" x="156.6" y="-1553.3" font-family="Times New Roman,serif" font-size="14.00">cell 23</text>
</g>
<!-- cell 6A&#45;&#45;cell 23 -->
<g id="edge24" class="edge"><title>cell 6A&#45;&#45;cell 23</title>
<path fill="none" stroke="black" d="M93.89,-1530.47C98.2225,-1532.33 114.71,-1539.42 129.552,-1545.8"/>
</g>
<!-- cell 32 -->
<g id="node44" class="node"><title>cell 32</title>
<polygon fill="lime" stroke="black" points="183.6,-1521 129.6,-1521 129.6,-1485 183.6,-1485 183.6,-1521"/>
<text text-anchor="middle" x="156.6" y="-1499.3" font-family="Times New Roman,serif" font-size="14.00">cell 32</text>
</g>
<!-- cell 6A&#45;&#45;cell 32 -->
<g id="edge37" class="edge"><title>cell 6A&#45;&#45;cell 32</title>
<path fill="none" stroke="black" d="M93.89,-1529.53C98.2225,-1527.67 114.71,-1520.58 129.552,-1514.2"/>
</g>
<!-- cell 52 -->
<g id="node73" class="node"><title>cell 52</title>
<polygon fill="lime" stroke="black" points="183.6,-1467 129.6,-1467 129.6,-1431 183.6,-1431 183.6,-1467"/>
<text text-anchor="middle" x="156.6" y="-1445.3" font-family="Times New Roman,serif" font-size="14.00">cell 52</text>
</g>
<!-- cell 6A&#45;&#45;cell 52 -->
<g id="edge66" class="edge"><title>cell 6A&#45;&#45;cell 52</title>
<path fill="none" stroke="black" d="M93.4387,-1529.06C98.3254,-1521.89 129.6,-1476 129.6,-1476 129.6,-1476 133.41,-1472.04 138.113,-1467.16"/>
</g>
<!-- cell 55 -->
<g id="node78" class="node"><title>cell 55</title>
<polygon fill="lime" stroke="black" points="183.6,-1413 129.6,-1413 129.6,-1377 183.6,-1377 183.6,-1413"/>
<text text-anchor="middle" x="156.6" y="-1391.3" font-family="Times New Roman,serif" font-size="14.00">cell 55</text>
</g>
<!-- cell 6A&#45;&#45;cell 55 -->
<g id="edge71" class="edge"><title>cell 6A&#45;&#45;cell 55</title>
<path fill="none" stroke="black" d="M93.2133,-1528.79C97.2563,-1516.92 129.6,-1422 129.6,-1422 129.6,-1422 133.41,-1418.04 138.113,-1413.16"/>
</g>
<!-- cell 12A -->
<g id="node77" class="node"><title>cell 12A</title>
<ellipse fill="black" stroke="black" cx="221.4" cy="-990" rx="1.8" ry="1.8"/>
</g>
<!-- cell 12&#45;&#45;cell 12A -->
<g id="edge69" class="edge"><title>cell 12&#45;&#45;cell 12A</title>
<path fill="none" stroke="black" d="M183.869,-990C198.927,-990 215.602,-990 219.536,-990"/>
</g>
<!-- cell 13A -->
<g id="node40" class="node"><title>cell 13A</title>
<ellipse fill="black" stroke="black" cx="221.4" cy="-126" rx="1.8" ry="1.8"/>
</g>
<!-- cell 13&#45;&#45;cell 13A -->
<g id="edge32" class="edge"><title>cell 13&#45;&#45;cell 13A</title>
<path fill="none" stroke="black" d="M183.869,-126C198.927,-126 215.602,-126 219.536,-126"/>
</g>
<!-- cell 14 -->
<g id="node20" class="node"><title>cell 14</title>
<polygon fill="lime" stroke="black" points="183.6,-414 129.6,-414 129.6,-378 183.6,-378 183.6,-414"/>
<text text-anchor="middle" x="156.6" y="-392.3" font-family="Times New Roman,serif" font-size="14.00">cell 14</text>
</g>
<!-- cell 14A -->
<g id="node50" class="node"><title>cell 14A</title>
<ellipse fill="black" stroke="black" cx="221.4" cy="-396" rx="1.8" ry="1.8"/>
</g>
<!-- cell 14&#45;&#45;cell 14A -->
<g id="edge42" class="edge"><title>cell 14&#45;&#45;cell 14A</title>
<path fill="none" stroke="black" d="M183.869,-396C198.927,-396 215.602,-396 219.536,-396"/>
</g>
<!-- cell 1A&#45;&#45;cell 14 -->
<g id="edge14" class="edge"><title>cell 1A&#45;&#45;cell 14</title>
<path fill="none" stroke="black" d="M93.4387,-315.937C98.3254,-323.108 129.6,-369 129.6,-369 129.6,-369 133.41,-372.957 138.113,-377.841"/>
</g>
<!-- cell 26 -->
<g id="node36" class="node"><title>cell 26</title>
<polygon fill="lime" stroke="black" points="183.6,-360 129.6,-360 129.6,-324 183.6,-324 183.6,-360"/>
<text text-anchor="middle" x="156.6" y="-338.3" font-family="Times New Roman,serif" font-size="14.00">cell 26</text>
</g>
<!-- cell 1A&#45;&#45;cell 26 -->
<g id="edge29" class="edge"><title>cell 1A&#45;&#45;cell 26</title>
<path fill="none" stroke="black" d="M93.89,-315.469C98.2225,-317.331 114.71,-324.42 129.552,-330.801"/>
</g>
<!-- cell 38 -->
<g id="node52" class="node"><title>cell 38</title>
<polygon fill="lime" stroke="black" points="183.6,-306 129.6,-306 129.6,-270 183.6,-270 183.6,-306"/>
<text text-anchor="middle" x="156.6" y="-284.3" font-family="Times New Roman,serif" font-size="14.00">cell 38</text>
</g>
<!-- cell 1A&#45;&#45;cell 38 -->
<g id="edge45" class="edge"><title>cell 1A&#45;&#45;cell 38</title>
<path fill="none" stroke="black" d="M93.89,-314.531C98.2225,-312.669 114.71,-305.58 129.552,-299.199"/>
</g>
<!-- cell 49 -->
<g id="node69" class="node"><title>cell 49</title>
<polygon fill="lime" stroke="black" points="183.6,-252 129.6,-252 129.6,-216 183.6,-216 183.6,-252"/>
<text text-anchor="middle" x="156.6" y="-230.3" font-family="Times New Roman,serif" font-size="14.00">cell 49</text>
</g>
<!-- cell 1A&#45;&#45;cell 49 -->
<g id="edge62" class="edge"><title>cell 1A&#45;&#45;cell 49</title>
<path fill="none" stroke="black" d="M93.4387,-314.063C98.3254,-306.892 129.6,-261 129.6,-261 129.6,-261 133.41,-257.043 138.113,-252.159"/>
</g>
<!-- cell 15A -->
<g id="node68" class="node"><title>cell 15A</title>
<ellipse fill="black" stroke="black" cx="221.4" cy="-936" rx="1.8" ry="1.8"/>
</g>
<!-- cell 15&#45;&#45;cell 15A -->
<g id="edge60" class="edge"><title>cell 15&#45;&#45;cell 15A</title>
<path fill="none" stroke="black" d="M183.869,-936C198.927,-936 215.602,-936 219.536,-936"/>
</g>
<!-- cell 16A -->
<g id="node61" class="node"><title>cell 16A</title>
<ellipse fill="black" stroke="black" cx="221.4" cy="-504" rx="1.8" ry="1.8"/>
</g>
<!-- cell 16&#45;&#45;cell 16A -->
<g id="edge53" class="edge"><title>cell 16&#45;&#45;cell 16A</title>
<path fill="none" stroke="black" d="M183.869,-504C198.927,-504 215.602,-504 219.536,-504"/>
</g>
<!-- cell 17A -->
<g id="node38" class="node"><title>cell 17A</title>
<ellipse fill="black" stroke="black" cx="221.4" cy="-1611" rx="1.8" ry="1.8"/>
</g>
<!-- cell 17&#45;&#45;cell 17A -->
<g id="edge30" class="edge"><title>cell 17&#45;&#45;cell 17A</title>
<path fill="none" stroke="black" d="M183.869,-1611C198.927,-1611 215.602,-1611 219.536,-1611"/>
</g>
<!-- cell 18A -->
<g id="node47" class="node"><title>cell 18A</title>
<ellipse fill="black" stroke="black" cx="221.4" cy="-882" rx="1.8" ry="1.8"/>
</g>
<!-- cell 18&#45;&#45;cell 18A -->
<g id="edge39" class="edge"><title>cell 18&#45;&#45;cell 18A</title>
<path fill="none" stroke="black" d="M183.869,-882C198.927,-882 215.602,-882 219.536,-882"/>
</g>
<!-- cell 19A -->
<g id="node66" class="node"><title>cell 19A</title>
<ellipse fill="black" stroke="black" cx="221.4" cy="-1233" rx="1.8" ry="1.8"/>
</g>
<!-- cell 19&#45;&#45;cell 19A -->
<g id="edge58" class="edge"><title>cell 19&#45;&#45;cell 19A</title>
<path fill="none" stroke="black" d="M183.869,-1233C198.927,-1233 215.602,-1233 219.536,-1233"/>
</g>
<!-- cell 20 -->
<g id="node27" class="node"><title>cell 20</title>
<polygon fill="lime" stroke="black" points="313.2,-630 259.2,-630 259.2,-594 313.2,-594 313.2,-630"/>
<text text-anchor="middle" x="286.2" y="-608.3" font-family="Times New Roman,serif" font-size="14.00">cell 20</text>
</g>
<!-- cell 9A&#45;&#45;cell 20 -->
<g id="edge21" class="edge"><title>cell 9A&#45;&#45;cell 20</title>
<path fill="none" stroke="black" d="M223.105,-558.606C227.148,-562.083 247.772,-579.816 264.158,-593.906"/>
</g>
<!-- cell 39 -->
<g id="node53" class="node"><title>cell 39</title>
<polygon fill="lime" stroke="black" points="313.2,-576 259.2,-576 259.2,-540 313.2,-540 313.2,-576"/>
<text text-anchor="middle" x="286.2" y="-554.3" font-family="Times New Roman,serif" font-size="14.00">cell 39</text>
</g>
<!-- cell 9A&#45;&#45;cell 39 -->
<g id="edge46" class="edge"><title>cell 9A&#45;&#45;cell 39</title>
<path fill="none" stroke="black" d="M223.49,-558C227.822,-558 244.31,-558 259.152,-558"/>
</g>
<!-- cell 24 -->
<g id="node32" class="node"><title>cell 24</title>
<polygon fill="lime" stroke="black" points="183.6,-1359 129.6,-1359 129.6,-1323 183.6,-1323 183.6,-1359"/>
<text text-anchor="middle" x="156.6" y="-1337.3" font-family="Times New Roman,serif" font-size="14.00">cell 24</text>
</g>
<!-- cell 5A&#45;&#45;cell 24 -->
<g id="edge26" class="edge"><title>cell 5A&#45;&#45;cell 24</title>
<path fill="none" stroke="black" d="M93.89,-1341C98.2225,-1341 114.71,-1341 129.552,-1341"/>
</g>
<!-- cell 25 -->
<g id="node34" class="node"><title>cell 25</title>
<polygon fill="lime" stroke="black" points="313.2,-198 259.2,-198 259.2,-162 313.2,-162 313.2,-198"/>
<text text-anchor="middle" x="286.2" y="-176.3" font-family="Times New Roman,serif" font-size="14.00">cell 25</text>
</g>
<!-- cell 25A -->
<g id="node75" class="node"><title>cell 25A</title>
<ellipse fill="black" stroke="black" cx="351" cy="-180" rx="1.8" ry="1.8"/>
</g>
<!-- cell 25&#45;&#45;cell 25A -->
<g id="edge67" class="edge"><title>cell 25&#45;&#45;cell 25A</title>
<path fill="none" stroke="black" d="M313.469,-180C328.527,-180 345.202,-180 349.136,-180"/>
</g>
<!-- cell 8A&#45;&#45;cell 25 -->
<g id="edge28" class="edge"><title>cell 8A&#45;&#45;cell 25</title>
<path fill="none" stroke="black" d="M223.49,-180C227.822,-180 244.31,-180 259.152,-180"/>
</g>
<!-- cell 27 -->
<g id="node37" class="node"><title>cell 27</title>
<polygon fill="lime" stroke="black" points="313.2,-1656 259.2,-1656 259.2,-1620 313.2,-1620 313.2,-1656"/>
<text text-anchor="middle" x="286.2" y="-1634.3" font-family="Times New Roman,serif" font-size="14.00">cell 27</text>
</g>
<!-- cell 27A -->
<g id="node64" class="node"><title>cell 27A</title>
<ellipse fill="black" stroke="black" cx="351" cy="-1638" rx="1.8" ry="1.8"/>
</g>
<!-- cell 27&#45;&#45;cell 27A -->
<g id="edge56" class="edge"><title>cell 27&#45;&#45;cell 27A</title>
<path fill="none" stroke="black" d="M313.469,-1638C328.527,-1638 345.202,-1638 349.136,-1638"/>
</g>
<!-- cell 17A&#45;&#45;cell 27 -->
<g id="edge31" class="edge"><title>cell 17A&#45;&#45;cell 27</title>
<path fill="none" stroke="black" d="M223.49,-1611.47C227.822,-1613.33 244.31,-1620.42 259.152,-1626.8"/>
</g>
<!-- cell 30 -->
<g id="node42" class="node"><title>cell 30</title>
<polygon fill="lime" stroke="black" points="313.2,-1602 259.2,-1602 259.2,-1566 313.2,-1566 313.2,-1602"/>
<text text-anchor="middle" x="286.2" y="-1580.3" font-family="Times New Roman,serif" font-size="14.00">cell 30</text>
</g>
<!-- cell 17A&#45;&#45;cell 30 -->
<g id="edge35" class="edge"><title>cell 17A&#45;&#45;cell 30</title>
<path fill="none" stroke="black" d="M223.49,-1610.53C227.822,-1608.67 244.31,-1601.58 259.152,-1595.2"/>
</g>
<!-- cell 28 -->
<g id="node39" class="node"><title>cell 28</title>
<polygon fill="lime" stroke="black" points="313.2,-144 259.2,-144 259.2,-108 313.2,-108 313.2,-144"/>
<text text-anchor="middle" x="286.2" y="-122.3" font-family="Times New Roman,serif" font-size="14.00">cell 28</text>
</g>
<!-- cell 13A&#45;&#45;cell 28 -->
<g id="edge33" class="edge"><title>cell 13A&#45;&#45;cell 28</title>
<path fill="none" stroke="black" d="M223.49,-126C227.822,-126 244.31,-126 259.152,-126"/>
</g>
<!-- cell 32A -->
<g id="node72" class="node"><title>cell 32A</title>
<ellipse fill="black" stroke="black" cx="221.4" cy="-1503" rx="1.8" ry="1.8"/>
</g>
<!-- cell 32&#45;&#45;cell 32A -->
<g id="edge64" class="edge"><title>cell 32&#45;&#45;cell 32A</title>
<path fill="none" stroke="black" d="M183.869,-1503C198.927,-1503 215.602,-1503 219.536,-1503"/>
</g>
<!-- cell 34 -->
<g id="node46" class="node"><title>cell 34</title>
<polygon fill="lime" stroke="black" points="313.2,-900 259.2,-900 259.2,-864 313.2,-864 313.2,-900"/>
<text text-anchor="middle" x="286.2" y="-878.3" font-family="Times New Roman,serif" font-size="14.00">cell 34</text>
</g>
<!-- cell 18A&#45;&#45;cell 34 -->
<g id="edge40" class="edge"><title>cell 18A&#45;&#45;cell 34</title>
<path fill="none" stroke="black" d="M223.49,-882C227.822,-882 244.31,-882 259.152,-882"/>
</g>
<!-- cell 36 -->
<g id="node49" class="node"><title>cell 36</title>
<polygon fill="lime" stroke="black" points="313.2,-414 259.2,-414 259.2,-378 313.2,-378 313.2,-414"/>
<text text-anchor="middle" x="286.2" y="-392.3" font-family="Times New Roman,serif" font-size="14.00">cell 36</text>
</g>
<!-- cell 14A&#45;&#45;cell 36 -->
<g id="edge43" class="edge"><title>cell 14A&#45;&#45;cell 36</title>
<path fill="none" stroke="black" d="M223.49,-396C227.822,-396 244.31,-396 259.152,-396"/>
</g>
<!-- cell 40 -->
<g id="node54" class="node"><title>cell 40</title>
<polygon fill="lime" stroke="black" points="313.2,-1170 259.2,-1170 259.2,-1134 313.2,-1134 313.2,-1170"/>
<text text-anchor="middle" x="286.2" y="-1148.3" font-family="Times New Roman,serif" font-size="14.00">cell 40</text>
</g>
<!-- cell 7A&#45;&#45;cell 40 -->
<g id="edge48" class="edge"><title>cell 7A&#45;&#45;cell 40</title>
<path fill="none" stroke="black" d="M223.31,-1085.99C228.977,-1092.15 259.2,-1125 259.2,-1125 259.2,-1125 263.01,-1128.96 267.713,-1133.84"/>
</g>
<!-- cell 41 -->
<g id="node56" class="node"><title>cell 41</title>
<polygon fill="lime" stroke="black" points="313.2,-1116 259.2,-1116 259.2,-1080 313.2,-1080 313.2,-1116"/>
<text text-anchor="middle" x="286.2" y="-1094.3" font-family="Times New Roman,serif" font-size="14.00">cell 41</text>
</g>
<!-- cell 7A&#45;&#45;cell 41 -->
<g id="edge49" class="edge"><title>cell 7A&#45;&#45;cell 41</title>
<path fill="none" stroke="black" d="M223.49,-1085.23C227.822,-1086.12 244.31,-1089.54 259.152,-1092.61"/>
</g>
<!-- cell 56 -->
<g id="node79" class="node"><title>cell 56</title>
<polygon fill="lime" stroke="black" points="313.2,-1062 259.2,-1062 259.2,-1026 313.2,-1026 313.2,-1062"/>
<text text-anchor="middle" x="286.2" y="-1040.3" font-family="Times New Roman,serif" font-size="14.00">cell 56</text>
</g>
<!-- cell 7A&#45;&#45;cell 56 -->
<g id="edge72" class="edge"><title>cell 7A&#45;&#45;cell 56</title>
<path fill="none" stroke="black" d="M223.49,-1084.29C227.822,-1081.46 244.31,-1070.7 259.152,-1061.01"/>
</g>
<!-- cell 43 -->
<g id="node58" class="node"><title>cell 43</title>
<polygon fill="lime" stroke="black" points="313.2,-1305 259.2,-1305 259.2,-1269 313.2,-1269 313.2,-1305"/>
<text text-anchor="middle" x="286.2" y="-1283.3" font-family="Times New Roman,serif" font-size="14.00">cell 43</text>
</g>
<!-- cell 10A&#45;&#45;cell 43 -->
<g id="edge52" class="edge"><title>cell 10A&#45;&#45;cell 43</title>
<path fill="none" stroke="black" d="M223.49,-1287C227.822,-1287 244.31,-1287 259.152,-1287"/>
</g>
<!-- cell 44 -->
<g id="node60" class="node"><title>cell 44</title>
<polygon fill="lime" stroke="black" points="313.2,-522 259.2,-522 259.2,-486 313.2,-486 313.2,-522"/>
<text text-anchor="middle" x="286.2" y="-500.3" font-family="Times New Roman,serif" font-size="14.00">cell 44</text>
</g>
<!-- cell 16A&#45;&#45;cell 44 -->
<g id="edge54" class="edge"><title>cell 16A&#45;&#45;cell 44</title>
<path fill="none" stroke="black" d="M223.49,-504C227.822,-504 244.31,-504 259.152,-504"/>
</g>
<!-- cell 45 -->
<g id="node62" class="node"><title>cell 45</title>
<polygon fill="lime" stroke="black" points="313.2,-468 259.2,-468 259.2,-432 313.2,-432 313.2,-468"/>
<text text-anchor="middle" x="286.2" y="-446.3" font-family="Times New Roman,serif" font-size="14.00">cell 45</text>
</g>
<!-- cell 16A&#45;&#45;cell 45 -->
<g id="edge55" class="edge"><title>cell 16A&#45;&#45;cell 45</title>
<path fill="none" stroke="black" d="M223.105,-503.394C227.148,-499.917 247.772,-482.184 264.158,-468.094"/>
</g>
<!-- cell 46 -->
<g id="node63" class="node"><title>cell 46</title>
<polygon fill="lime" stroke="black" points="442.8,-1683 388.8,-1683 388.8,-1647 442.8,-1647 442.8,-1683"/>
<text text-anchor="middle" x="415.8" y="-1661.3" font-family="Times New Roman,serif" font-size="14.00">cell 46</text>
</g>
<!-- cell 27A&#45;&#45;cell 46 -->
<g id="edge57" class="edge"><title>cell 27A&#45;&#45;cell 46</title>
<path fill="none" stroke="black" d="M353.09,-1638.47C357.422,-1640.33 373.91,-1647.42 388.752,-1653.8"/>
</g>
<!-- cell 50 -->
<g id="node70" class="node"><title>cell 50</title>
<polygon fill="lime" stroke="black" points="442.8,-1629 388.8,-1629 388.8,-1593 442.8,-1593 442.8,-1629"/>
<text text-anchor="middle" x="415.8" y="-1607.3" font-family="Times New Roman,serif" font-size="14.00">cell 50</text>
</g>
<!-- cell 27A&#45;&#45;cell 50 -->
<g id="edge63" class="edge"><title>cell 27A&#45;&#45;cell 50</title>
<path fill="none" stroke="black" d="M353.09,-1637.53C357.422,-1635.67 373.91,-1628.58 388.752,-1622.2"/>
</g>
<!-- cell 47 -->
<g id="node65" class="node"><title>cell 47</title>
<polygon fill="lime" stroke="black" points="313.2,-1251 259.2,-1251 259.2,-1215 313.2,-1215 313.2,-1251"/>
<text text-anchor="middle" x="286.2" y="-1229.3" font-family="Times New Roman,serif" font-size="14.00">cell 47</text>
</g>
<!-- cell 19A&#45;&#45;cell 47 -->
<g id="edge59" class="edge"><title>cell 19A&#45;&#45;cell 47</title>
<path fill="none" stroke="black" d="M223.49,-1233C227.822,-1233 244.31,-1233 259.152,-1233"/>
</g>
<!-- cell 48 -->
<g id="node67" class="node"><title>cell 48</title>
<polygon fill="lime" stroke="black" points="313.2,-954 259.2,-954 259.2,-918 313.2,-918 313.2,-954"/>
<text text-anchor="middle" x="286.2" y="-932.3" font-family="Times New Roman,serif" font-size="14.00">cell 48</text>
</g>
<!-- cell 15A&#45;&#45;cell 48 -->
<g id="edge61" class="edge"><title>cell 15A&#45;&#45;cell 48</title>
<path fill="none" stroke="black" d="M223.49,-936C227.822,-936 244.31,-936 259.152,-936"/>
</g>
<!-- cell 51 -->
<g id="node71" class="node"><title>cell 51</title>
<polygon fill="lime" stroke="black" points="313.2,-1521 259.2,-1521 259.2,-1485 313.2,-1485 313.2,-1521"/>
<text text-anchor="middle" x="286.2" y="-1499.3" font-family="Times New Roman,serif" font-size="14.00">cell 51</text>
</g>
<!-- cell 32A&#45;&#45;cell 51 -->
<g id="edge65" class="edge"><title>cell 32A&#45;&#45;cell 51</title>
<path fill="none" stroke="black" d="M223.49,-1503C227.822,-1503 244.31,-1503 259.152,-1503"/>
</g>
<!-- cell 53 -->
<g id="node74" class="node"><title>cell 53</title>
<polygon fill="lime" stroke="black" points="442.8,-198 388.8,-198 388.8,-162 442.8,-162 442.8,-198"/>
<text text-anchor="middle" x="415.8" y="-176.3" font-family="Times New Roman,serif" font-size="14.00">cell 53</text>
</g>
<!-- cell 25A&#45;&#45;cell 53 -->
<g id="edge68" class="edge"><title>cell 25A&#45;&#45;cell 53</title>
<path fill="none" stroke="black" d="M353.09,-180C357.422,-180 373.91,-180 388.752,-180"/>
</g>
<!-- cell 54 -->
<g id="node76" class="node"><title>cell 54</title>
<polygon fill="lime" stroke="black" points="313.2,-1008 259.2,-1008 259.2,-972 313.2,-972 313.2,-1008"/>
<text text-anchor="middle" x="286.2" y="-986.3" font-family="Times New Roman,serif" font-size="14.00">cell 54</text>
</g>
<!-- cell 12A&#45;&#45;cell 54 -->
<g id="edge70" class="edge"><title>cell 12A&#45;&#45;cell 54</title>
<path fill="none" stroke="black" d="M223.49,-990C227.822,-990 244.31,-990 259.152,-990"/>
</g>
</g>
</svg>
